URWGroteskGPL-RegularItalic.ufo
<glyph name="exclam" format="2">
  <advance width="265"/>
  <unicode hex="0021"/>
  <outline>
    <contour>
      <point x="95" y="209" type="line"/>
      <point x="163" y="209" type="line"/>
      <point x="244" y="480" type="line"/>
      <point x="284" y="667" type="line"/>
      <point x="173" y="667" type="line"/>
      <point x="137" y="503" type="line"/>
    </contour>
    <contour>
      <point x="103" y="121" type="curve" smooth="yes"/>
      <point x="61" y="121"/>
      <point x="29" y="90"/>
      <point x="29" y="50" type="curve" smooth="yes"/>
      <point x="29" y="12"/>
      <point x="53" y="-12"/>
      <point x="91" y="-12" type="curve" smooth="yes"/>
      <point x="134" y="-12"/>
      <point x="165" y="19"/>
      <point x="165" y="61" type="curve" smooth="yes"/>
      <point x="165" y="97"/>
      <point x="140" y="121"/>
    </contour>
  </outline>
</glyph>
<glyph name="quotedbl" format="2">
  <advance width="356"/>
  <unicode hex="0022"/>
  <outline>
    <contour>
      <point x="172" y="399" type="line"/>
      <point x="245" y="667" type="line"/>
      <point x="144" y="667" type="line"/>
      <point x="103" y="399" type="line"/>
    </contour>
    <contour>
      <point x="329" y="399" type="line"/>
      <point x="401" y="667" type="line"/>
      <point x="301" y="667" type="line"/>
      <point x="260" y="399" type="line"/>
    </contour>
  </outline>
</glyph>
<glyph name="numbersign" format="2">
  <advance width="454"/>
  <unicode hex="0023"/>
  <outline>
    <contour>
      <point x="33" y="216" type="line"/>
      <point x="17" y="140" type="line"/>
      <point x="97" y="140" type="line"/>
      <point x="66" y="0" type="line"/>
      <point x="114" y="0" type="line"/>
      <point x="143" y="140" type="line"/>
      <point x="243" y="140" type="line"/>
      <point x="214" y="0" type="line"/>
      <point x="261" y="0" type="line"/>
      <point x="290" y="140" type="line"/>
      <point x="369" y="140" type="line"/>
      <point x="383" y="216" type="line"/>
      <point x="304" y="216" type="line"/>
      <point x="355" y="468" type="line"/>
      <point x="433" y="468" type="line"/>
      <point x="448" y="543" type="line"/>
      <point x="369" y="543" type="line"/>
      <point x="396" y="667" type="line"/>
      <point x="350" y="667" type="line"/>
      <point x="324" y="543" type="line"/>
      <point x="224" y="543" type="line"/>
      <point x="251" y="667" type="line"/>
      <point x="205" y="667" type="line"/>
      <point x="179" y="543" type="line"/>
      <point x="99" y="543" type="line"/>
      <point x="83" y="468" type="line"/>
      <point x="165" y="468" type="line"/>
      <point x="111" y="216" type="line"/>
    </contour>
    <contour>
      <point x="159" y="216" type="line"/>
      <point x="210" y="468" type="line"/>
      <point x="309" y="468" type="line"/>
      <point x="258" y="216" type="line"/>
    </contour>
  </outline>
</glyph>
<glyph name="dollar" format="2">
  <advance width="588"/>
  <unicode hex="0024"/>
  <outline>
    <contour>
      <point x="24" y="120" type="line"/>
      <point x="41" y="36"/>
      <point x="105" y="-8"/>
      <point x="216" y="-9" type="curve"/>
      <point x="193" y="-117" type="line"/>
      <point x="232" y="-117" type="line"/>
      <point x="255" y="-9" type="line"/>
      <point x="311" y="-7"/>
      <point x="348" y="0"/>
      <point x="382" y="15" type="curve" smooth="yes"/>
      <point x="462" y="50"/>
      <point x="514" y="128"/>
      <point x="514" y="211" type="curve" smooth="yes"/>
      <point x="514" y="276"/>
      <point x="479" y="328"/>
      <point x="413" y="360" type="curve" smooth="yes"/>
      <point x="392" y="370"/>
      <point x="379" y="375"/>
      <point x="340" y="390" type="curve"/>
      <point x="384" y="595" type="line"/>
      <point x="430" y="595"/>
      <point x="457" y="566"/>
      <point x="466" y="508" type="curve"/>
      <point x="572" y="558" type="line"/>
      <point x="553" y="634"/>
      <point x="499" y="671"/>
      <point x="401" y="675" type="curve"/>
      <point x="421" y="769" type="line"/>
      <point x="382" y="769" type="line"/>
      <point x="361" y="675" type="line"/>
      <point x="313" y="673"/>
      <point x="278" y="665"/>
      <point x="245" y="650" type="curve" smooth="yes"/>
      <point x="173" y="617"/>
      <point x="127" y="545"/>
      <point x="127" y="469" type="curve" smooth="yes"/>
      <point x="127" y="416"/>
      <point x="149" y="372"/>
      <point x="192" y="338" type="curve" smooth="yes"/>
      <point x="213" y="322"/>
      <point x="229" y="314"/>
      <point x="280" y="293" type="curve"/>
      <point x="234" y="75" type="line"/>
      <point x="173" y="77"/>
      <point x="136" y="111"/>
      <point x="129" y="173" type="curve"/>
    </contour>
    <contour>
      <point x="304" y="406" type="line"/>
      <point x="262" y="425"/>
      <point x="243" y="451"/>
      <point x="243" y="492" type="curve" smooth="yes"/>
      <point x="243" y="529"/>
      <point x="264" y="565"/>
      <point x="295" y="582" type="curve" smooth="yes"/>
      <point x="310" y="590"/>
      <point x="321" y="593"/>
      <point x="345" y="595" type="curve"/>
    </contour>
    <contour>
      <point x="316" y="277" type="line"/>
      <point x="348" y="259"/>
      <point x="350" y="258"/>
      <point x="361" y="249" type="curve"/>
      <point x="381" y="235"/>
      <point x="392" y="212"/>
      <point x="392" y="187" type="curve" smooth="yes"/>
      <point x="392" y="124"/>
      <point x="343" y="77"/>
      <point x="273" y="73" type="curve"/>
    </contour>
  </outline>
</glyph>
<glyph name="percent" format="2">
  <advance width="764"/>
  <unicode hex="0025"/>
  <outline>
    <contour>
      <point x="280" y="670" type="curve" smooth="yes"/>
      <point x="223" y="670"/>
      <point x="179" y="650"/>
      <point x="148" y="610" type="curve" smooth="yes"/>
      <point x="119" y="574"/>
      <point x="102" y="520"/>
      <point x="102" y="467" type="curve" smooth="yes"/>
      <point x="102" y="388"/>
      <point x="143" y="349"/>
      <point x="228" y="349" type="curve" smooth="yes"/>
      <point x="287" y="349"/>
      <point x="330" y="370"/>
      <point x="362" y="413" type="curve" smooth="yes"/>
      <point x="388" y="447"/>
      <point x="404" y="504"/>
      <point x="404" y="557" type="curve" smooth="yes"/>
      <point x="404" y="631"/>
      <point x="361" y="670"/>
    </contour>
    <contour>
      <point x="276" y="618" type="curve" smooth="yes"/>
      <point x="308" y="618"/>
      <point x="327" y="595"/>
      <point x="327" y="558" type="curve" smooth="yes"/>
      <point x="327" y="529"/>
      <point x="320" y="492"/>
      <point x="309" y="465" type="curve" smooth="yes"/>
      <point x="293" y="423"/>
      <point x="266" y="401"/>
      <point x="233" y="401" type="curve" smooth="yes"/>
      <point x="200" y="401"/>
      <point x="181" y="424"/>
      <point x="181" y="462" type="curve" smooth="yes"/>
      <point x="181" y="491"/>
      <point x="188" y="526"/>
      <point x="199" y="554" type="curve" smooth="yes"/>
      <point x="215" y="596"/>
      <point x="241" y="618"/>
    </contour>
    <contour>
      <point x="701" y="699" type="line"/>
      <point x="648" y="708" type="line"/>
      <point x="75" y="-94" type="line"/>
      <point x="129" y="-102" type="line"/>
    </contour>
    <contour>
      <point x="587" y="319" type="curve" smooth="yes"/>
      <point x="529" y="319"/>
      <point x="485" y="299"/>
      <point x="454" y="259" type="curve" smooth="yes"/>
      <point x="426" y="223"/>
      <point x="409" y="169"/>
      <point x="409" y="116" type="curve" smooth="yes"/>
      <point x="409" y="37"/>
      <point x="450" y="-2"/>
      <point x="534" y="-2" type="curve" smooth="yes"/>
      <point x="593" y="-2"/>
      <point x="637" y="19"/>
      <point x="669" y="62" type="curve" smooth="yes"/>
      <point x="694" y="96"/>
      <point x="710" y="153"/>
      <point x="710" y="207" type="curve" smooth="yes"/>
      <point x="710" y="280"/>
      <point x="667" y="319"/>
    </contour>
    <contour>
      <point x="582" y="267" type="curve" smooth="yes"/>
      <point x="614" y="267"/>
      <point x="633" y="244"/>
      <point x="633" y="206" type="curve" smooth="yes"/>
      <point x="633" y="178"/>
      <point x="626" y="141"/>
      <point x="615" y="114" type="curve" smooth="yes"/>
      <point x="599" y="72"/>
      <point x="573" y="50"/>
      <point x="539" y="50" type="curve" smooth="yes"/>
      <point x="507" y="50"/>
      <point x="488" y="73"/>
      <point x="488" y="111" type="curve" smooth="yes"/>
      <point x="488" y="139"/>
      <point x="495" y="175"/>
      <point x="506" y="203" type="curve" smooth="yes"/>
      <point x="522" y="246"/>
      <point x="548" y="267"/>
    </contour>
  </outline>
</glyph>
<glyph name="ampersand" format="2">
  <advance width="681"/>
  <unicode hex="0026"/>
  <outline>
    <contour>
      <point x="647" y="84" type="line"/>
      <point x="617" y="95"/>
      <point x="564" y="126"/>
      <point x="539" y="145" type="curve"/>
      <point x="602" y="213"/>
      <point x="644" y="283"/>
      <point x="663" y="354" type="curve"/>
      <point x="550" y="354" type="line"/>
      <point x="543" y="299"/>
      <point x="512" y="237"/>
      <point x="472" y="196" type="curve"/>
      <point x="420" y="245"/>
      <point x="381" y="293"/>
      <point x="354" y="343" type="curve"/>
      <point x="421" y="373"/>
      <point x="450" y="388"/>
      <point x="475" y="406" type="curve" smooth="yes"/>
      <point x="531" y="446"/>
      <point x="561" y="498"/>
      <point x="561" y="554" type="curve" smooth="yes"/>
      <point x="561" y="631"/>
      <point x="497" y="680"/>
      <point x="398" y="680" type="curve" smooth="yes"/>
      <point x="272" y="680"/>
      <point x="188" y="603"/>
      <point x="188" y="488" type="curve" smooth="yes"/>
      <point x="188" y="450"/>
      <point x="196" y="415"/>
      <point x="214" y="369" type="curve"/>
      <point x="88" y="320"/>
      <point x="31" y="256"/>
      <point x="31" y="162" type="curve" smooth="yes"/>
      <point x="31" y="59"/>
      <point x="109" y="-12"/>
      <point x="223" y="-12" type="curve" smooth="yes"/>
      <point x="301" y="-12"/>
      <point x="372" y="14"/>
      <point x="447" y="69" type="curve"/>
      <point x="494" y="34"/>
      <point x="530" y="12"/>
      <point x="567" y="-4" type="curve"/>
    </contour>
    <contour>
      <point x="384" y="125" type="curve"/>
      <point x="340" y="91"/>
      <point x="303" y="77"/>
      <point x="258" y="77" type="curve" smooth="yes"/>
      <point x="196" y="77"/>
      <point x="151" y="120"/>
      <point x="151" y="178" type="curve" smooth="yes"/>
      <point x="151" y="230"/>
      <point x="184" y="270"/>
      <point x="251" y="300" type="curve"/>
      <point x="291" y="231"/>
      <point x="333" y="177"/>
    </contour>
    <contour>
      <point x="318" y="408" type="curve"/>
      <point x="299" y="455"/>
      <point x="294" y="476"/>
      <point x="294" y="503" type="curve" smooth="yes"/>
      <point x="294" y="561"/>
      <point x="334" y="602"/>
      <point x="390" y="602" type="curve" smooth="yes"/>
      <point x="433" y="602"/>
      <point x="462" y="577"/>
      <point x="462" y="541" type="curve" smooth="yes"/>
      <point x="462" y="501"/>
      <point x="436" y="468"/>
      <point x="382" y="438" type="curve" smooth="yes"/>
      <point x="362" y="427"/>
      <point x="355" y="424"/>
    </contour>
  </outline>
</glyph>
<glyph name="quotesingle" format="2">
  <advance width="199"/>
  <unicode hex="0027"/>
  <outline>
    <contour>
      <point x="172" y="399" type="line"/>
      <point x="245" y="667" type="line"/>
      <point x="144" y="667" type="line"/>
      <point x="103" y="399" type="line"/>
    </contour>
  </outline>
</glyph>
<glyph name="parenleft" format="2">
  <advance width="283"/>
  <unicode hex="0028"/>
  <outline>
    <contour>
      <point x="159" y="-214" type="line"/>
      <point x="132" y="-127"/>
      <point x="124" y="-82"/>
      <point x="124" y="-5" type="curve" smooth="yes"/>
      <point x="124" y="137"/>
      <point x="156" y="311"/>
      <point x="207" y="446" type="curve" smooth="yes"/>
      <point x="244" y="541"/>
      <point x="285" y="610"/>
      <point x="355" y="695" type="curve"/>
      <point x="293" y="700" type="line"/>
      <point x="138" y="563"/>
      <point x="33" y="313"/>
      <point x="33" y="81" type="curve" smooth="yes"/>
      <point x="33" y="-29"/>
      <point x="54" y="-121"/>
      <point x="100" y="-218" type="curve"/>
    </contour>
  </outline>
</glyph>
<glyph name="parenright" format="2">
  <advance width="283"/>
  <unicode hex="0029"/>
  <outline>
    <contour>
      <point x="133" y="695" type="line"/>
      <point x="160" y="609"/>
      <point x="168" y="563"/>
      <point x="168" y="486" type="curve" smooth="yes"/>
      <point x="168" y="345"/>
      <point x="136" y="171"/>
      <point x="85" y="36" type="curve" smooth="yes"/>
      <point x="48" y="-60"/>
      <point x="7" y="-129"/>
      <point x="-63" y="-213" type="curve"/>
      <point x="-1" y="-218" type="line"/>
      <point x="155" y="-80"/>
      <point x="259" y="168"/>
      <point x="259" y="400" type="curve" smooth="yes"/>
      <point x="259" y="510"/>
      <point x="238" y="602"/>
      <point x="192" y="700" type="curve"/>
    </contour>
  </outline>
</glyph>
<glyph name="asterisk" format="2">
  <advance width="404"/>
  <unicode hex="002A"/>
  <outline>
    <contour>
      <point x="247" y="462" type="line"/>
      <point x="328" y="357" type="line"/>
      <point x="350" y="371" type="line"/>
      <point x="300" y="498" type="line"/>
      <point x="448" y="564" type="line"/>
      <point x="444" y="586" type="line"/>
      <point x="295" y="553" type="line"/>
      <point x="310" y="708" type="line"/>
      <point x="286" y="708" type="line"/>
      <point x="236" y="553" type="line"/>
      <point x="105" y="584" type="line"/>
      <point x="92" y="561" type="line"/>
      <point x="209" y="500" type="line"/>
      <point x="104" y="373" type="line"/>
      <point x="121" y="359" type="line"/>
    </contour>
  </outline>
</glyph>
<glyph name="plus" format="2">
  <advance width="564"/>
  <unicode hex="002B"/>
  <outline>
    <contour>
      <point x="69.3669" y="367" type="line"/>
      <point x="58.3139" y="315" type="line"/>
      <point x="256.314" y="315" type="line"/>
      <point x="211.252" y="103" type="line"/>
      <point x="270.252" y="103" type="line"/>
      <point x="315.314" y="315" type="line"/>
      <point x="515.314" y="315" type="line"/>
      <point x="526.367" y="367" type="line"/>
      <point x="326.367" y="367" type="line"/>
      <point x="371.641" y="580" type="line"/>
      <point x="312.641" y="580" type="line"/>
      <point x="267.367" y="367" type="line"/>
    </contour>
  </outline>
</glyph>
<glyph name="comma" format="2">
  <advance width="247"/>
  <unicode hex="002C"/>
  <outline>
    <contour>
      <point x="-54" y="-140" type="line"/>
      <point x="5" y="-136" type="line"/>
      <point x="135" y="20" type="line"/>
      <point x="160" y="135" type="line"/>
      <point x="61" y="135" type="line"/>
      <point x="54" y="104" type="line" smooth="yes"/>
      <point x="38" y="32"/>
      <point x="34" y="18"/>
      <point x="11" y="-25" type="curve"/>
      <point x="-24" y="-86" type="line"/>
    </contour>
  </outline>
</glyph>
<glyph name="hyphen" format="2">
  <advance width="230"/>
  <unicode hex="002D"/>
  <outline>
    <contour>
      <point x="12" y="279" type="line"/>
      <point x="-4" y="202" type="line"/>
      <point x="226" y="202" type="line"/>
      <point x="242" y="279" type="line"/>
    </contour>
  </outline>
</glyph>
<glyph name="period" format="2">
  <advance width="247"/>
  <unicode hex="002E"/>
  <outline>
    <contour>
      <point x="94" y="121" type="curve" smooth="yes"/>
      <point x="52" y="121"/>
      <point x="20" y="90"/>
      <point x="20" y="49" type="curve" smooth="yes"/>
      <point x="20" y="12"/>
      <point x="45" y="-12"/>
      <point x="82" y="-12" type="curve" smooth="yes"/>
      <point x="125" y="-12"/>
      <point x="156" y="19"/>
      <point x="156" y="61" type="curve" smooth="yes"/>
      <point x="156" y="97"/>
      <point x="131" y="121"/>
    </contour>
  </outline>
</glyph>
<glyph name="slash" format="2">
  <advance width="426"/>
  <unicode hex="002F"/>
  <outline>
    <contour>
      <point x="-105" y="-216" type="line"/>
      <point x="-42" y="-225" type="line"/>
      <point x="492" y="697" type="line"/>
      <point x="429" y="707" type="line"/>
    </contour>
  </outline>
</glyph>
<glyph name="zero" format="2">
  <advance width="564"/>
  <unicode hex="0030"/>
  <outline>
    <contour>
      <point x="368" y="681" type="curve" smooth="yes"/>
      <point x="265" y="681"/>
      <point x="185" y="629"/>
      <point x="130" y="527" type="curve" smooth="yes"/>
      <point x="86" y="445"/>
      <point x="50" y="303"/>
      <point x="50" y="211" type="curve" smooth="yes"/>
      <point x="50" y="66"/>
      <point x="119" y="-13"/>
      <point x="247" y="-13" type="curve" smooth="yes"/>
      <point x="352" y="-13"/>
      <point x="437" y="45"/>
      <point x="490" y="153" type="curve" smooth="yes"/>
      <point x="532" y="238"/>
      <point x="564" y="375"/>
      <point x="564" y="472" type="curve" smooth="yes"/>
      <point x="564" y="604"/>
      <point x="492" y="681"/>
    </contour>
    <contour>
      <point x="359" y="594" type="curve" smooth="yes"/>
      <point x="417" y="594"/>
      <point x="451" y="549"/>
      <point x="451" y="474" type="curve" smooth="yes"/>
      <point x="451" y="421"/>
      <point x="432" y="314"/>
      <point x="411" y="248" type="curve" smooth="yes"/>
      <point x="374" y="134"/>
      <point x="321" y="75"/>
      <point x="253" y="75" type="curve" smooth="yes"/>
      <point x="194" y="75"/>
      <point x="165" y="119"/>
      <point x="165" y="211" type="curve" smooth="yes"/>
      <point x="165" y="274"/>
      <point x="181" y="358"/>
      <point x="207" y="432" type="curve" smooth="yes"/>
      <point x="247" y="544"/>
      <point x="294" y="594"/>
    </contour>
  </outline>
</glyph>
<glyph name="one" format="2">
  <advance width="564"/>
  <unicode hex="0031"/>
  <outline>
    <contour>
      <point x="222" y="0" type="line"/>
      <point x="338" y="0" type="line"/>
      <point x="480" y="667" type="line"/>
      <point x="395" y="667" type="line"/>
      <point x="345" y="593"/>
      <point x="288" y="565"/>
      <point x="162" y="556" type="curve"/>
      <point x="147" y="488" type="line"/>
      <point x="327" y="492" type="line"/>
    </contour>
  </outline>
</glyph>
<glyph name="two" format="2">
  <advance width="564"/>
  <unicode hex="0032"/>
  <outline>
    <contour>
      <point x="15" y="0" type="line"/>
      <point x="459" y="0" type="line"/>
      <point x="480" y="98" type="line"/>
      <point x="188" y="98" type="line"/>
      <point x="353" y="252" type="line"/>
      <point x="466" y="353"/>
      <point x="466" y="353"/>
      <point x="499" y="396" type="curve" smooth="yes"/>
      <point x="533" y="442"/>
      <point x="553" y="494"/>
      <point x="553" y="538" type="curve" smooth="yes"/>
      <point x="553" y="623"/>
      <point x="479" y="680"/>
      <point x="367" y="680" type="curve" smooth="yes"/>
      <point x="254" y="680"/>
      <point x="176" y="626"/>
      <point x="142" y="525" type="curve"/>
      <point x="235" y="476" type="line"/>
      <point x="256" y="554"/>
      <point x="297" y="594"/>
      <point x="357" y="594" type="curve" smooth="yes"/>
      <point x="405" y="594"/>
      <point x="437" y="562"/>
      <point x="437" y="513" type="curve" smooth="yes"/>
      <point x="437" y="480"/>
      <point x="423" y="450"/>
      <point x="390" y="410" type="curve" smooth="yes"/>
      <point x="358" y="373"/>
      <point x="358" y="373"/>
      <point x="259" y="289" type="curve"/>
      <point x="34" y="87" type="line"/>
    </contour>
  </outline>
</glyph>
<glyph name="three" format="2">
  <advance width="564"/>
  <unicode hex="0033"/>
  <outline>
    <contour>
      <point x="20" y="107" type="line"/>
      <point x="52" y="23"/>
      <point x="112" y="-13"/>
      <point x="218" y="-13" type="curve" smooth="yes"/>
      <point x="297" y="-13"/>
      <point x="362" y="10"/>
      <point x="411" y="54" type="curve" smooth="yes"/>
      <point x="461" y="98"/>
      <point x="491" y="167"/>
      <point x="491" y="234" type="curve" smooth="yes"/>
      <point x="491" y="299"/>
      <point x="457" y="345"/>
      <point x="394" y="362" type="curve"/>
      <point x="482" y="400"/>
      <point x="531" y="463" name="hr01"/>
      <point x="531" y="538" type="curve" smooth="yes"/>
      <point x="531" y="626"/>
      <point x="460" y="681"/>
      <point x="347" y="681" type="curve" smooth="yes"/>
      <point x="245" y="681"/>
      <point x="190" y="648"/>
      <point x="142" y="560" type="curve"/>
      <point x="233" y="508" type="line"/>
      <point x="257" y="571"/>
      <point x="288" y="596"/>
      <point x="339" y="596" type="curve" smooth="yes"/>
      <point x="389" y="596"/>
      <point x="419" y="569"/>
      <point x="419" y="523" type="curve" smooth="yes"/>
      <point x="419" y="492"/>
      <point x="406" y="460"/>
      <point x="383" y="439" type="curve" smooth="yes"/>
      <point x="352" y="410"/>
      <point x="314" y="397"/>
      <point x="240" y="390" type="curve"/>
      <point x="225" y="319" type="line"/>
      <point x="268" y="319"/>
      <point x="273" y="319"/>
      <point x="295" y="315" type="curve" smooth="yes"/>
      <point x="346" y="306"/>
      <point x="375" y="274" name="hr02"/>
      <point x="375" y="226" type="curve" smooth="yes"/>
      <point x="375" y="145"/>
      <point x="312" y="79"/>
      <point x="236" y="79" type="curve" smooth="yes"/>
      <point x="183" y="79"/>
      <point x="144" y="108"/>
      <point x="132" y="157" type="curve"/>
    </contour>
  </outline>
</glyph>
<glyph name="four" format="2">
  <advance width="564"/>
  <unicode hex="0034"/>
  <outline>
    <contour>
      <point x="285" y="0" type="line"/>
      <point x="392" y="0" type="line"/>
      <point x="423" y="145" type="line"/>
      <point x="512" y="145" type="line"/>
      <point x="531" y="234" type="line"/>
      <point x="441" y="234" type="line"/>
      <point x="533" y="667" type="line"/>
      <point x="397" y="667" type="line"/>
      <point x="38" y="229" type="line"/>
      <point x="20" y="145" type="line"/>
      <point x="316" y="145" type="line"/>
    </contour>
    <contour>
      <point x="148" y="234" type="line"/>
      <point x="406" y="569" type="line"/>
      <point x="335" y="234" type="line"/>
    </contour>
  </outline>
</glyph>
<glyph name="five" format="2">
  <advance width="564"/>
  <unicode hex="0035"/>
  <outline>
    <contour>
      <point x="12" y="107" type="line"/>
      <point x="40" y="27"/>
      <point x="107" y="-13"/>
      <point x="210" y="-13" type="curve" smooth="yes"/>
      <point x="299" y="-13"/>
      <point x="380" y="19"/>
      <point x="431" y="74" type="curve" smooth="yes"/>
      <point x="477" y="125"/>
      <point x="505" y="197"/>
      <point x="505" y="264" type="curve" smooth="yes"/>
      <point x="505" y="368"/>
      <point x="438" y="437"/>
      <point x="335" y="437" type="curve" smooth="yes"/>
      <point x="289" y="437"/>
      <point x="254" y="425"/>
      <point x="211" y="394" type="curve"/>
      <point x="276" y="576" type="line"/>
      <point x="540" y="576" type="line"/>
      <point x="563" y="667" type="line"/>
      <point x="204" y="667" type="line"/>
      <point x="94" y="334" type="line"/>
      <point x="176" y="290" type="line"/>
      <point x="208" y="331"/>
      <point x="246" y="352"/>
      <point x="288" y="352" type="curve" smooth="yes"/>
      <point x="345" y="352"/>
      <point x="383" y="312"/>
      <point x="383" y="253" type="curve" smooth="yes"/>
      <point x="383" y="156"/>
      <point x="315" y="79"/>
      <point x="229" y="79" type="curve" smooth="yes"/>
      <point x="175" y="79"/>
      <point x="142" y="103"/>
      <point x="123" y="157" type="curve"/>
    </contour>
  </outline>
</glyph>
<glyph name="six" format="2">
  <advance width="564"/>
  <unicode hex="0036"/>
  <outline>
    <contour>
      <point x="579" y="608" type="line"/>
      <point x="546" y="658"/>
      <point x="498" y="680"/>
      <point x="417" y="680" type="curve" smooth="yes"/>
      <point x="286" y="680"/>
      <point x="196" y="614"/>
      <point x="134" y="473" type="curve" smooth="yes"/>
      <point x="91" y="374"/>
      <point x="63" y="255"/>
      <point x="63" y="171" type="curve" smooth="yes"/>
      <point x="63" y="52"/>
      <point x="128" y="-13"/>
      <point x="246" y="-13" type="curve" smooth="yes"/>
      <point x="330" y="-13"/>
      <point x="403" y="20"/>
      <point x="450" y="79" type="curve" smooth="yes"/>
      <point x="491" y="130"/>
      <point x="516" y="202"/>
      <point x="516" y="267" type="curve" smooth="yes"/>
      <point x="516" y="364"/>
      <point x="455" y="424"/>
      <point x="357" y="424" type="curve" smooth="yes"/>
      <point x="301" y="424"/>
      <point x="260" y="408"/>
      <point x="210" y="367" type="curve"/>
      <point x="233" y="439"/>
      <point x="244" y="470"/>
      <point x="261" y="499" type="curve" smooth="yes"/>
      <point x="299" y="564"/>
      <point x="349" y="598"/>
      <point x="407" y="598" type="curve" smooth="yes"/>
      <point x="453" y="598"/>
      <point x="477" y="582"/>
      <point x="499" y="536" type="curve"/>
    </contour>
    <contour>
      <point x="314" y="338" type="curve" smooth="yes"/>
      <point x="367" y="338"/>
      <point x="400" y="304"/>
      <point x="400" y="250" type="curve" smooth="yes"/>
      <point x="400" y="154"/>
      <point x="336" y="77"/>
      <point x="256" y="77" type="curve" smooth="yes"/>
      <point x="200" y="77"/>
      <point x="169" y="110"/>
      <point x="169" y="172" type="curve" smooth="yes"/>
      <point x="169" y="263"/>
      <point x="234" y="338"/>
    </contour>
  </outline>
</glyph>
<glyph name="seven" format="2">
  <advance width="564"/>
  <unicode hex="0037"/>
  <outline>
    <contour>
      <point x="57" y="0" type="line"/>
      <point x="189" y="0" type="line"/>
      <point x="578" y="581" type="line"/>
      <point x="596" y="667" type="line"/>
      <point x="162" y="667" type="line"/>
      <point x="142" y="572" type="line"/>
      <point x="446" y="572" type="line"/>
    </contour>
  </outline>
</glyph>
<glyph name="eight" format="2">
  <advance width="564"/>
  <unicode hex="0038"/>
  <outline>
    <contour>
      <point x="194" y="364" type="curve"/>
      <point x="148" y="346"/>
      <point x="127" y="333"/>
      <point x="103" y="308" type="curve" smooth="yes"/>
      <point x="66" y="269"/>
      <point x="44" y="212"/>
      <point x="44" y="156" type="curve" smooth="yes"/>
      <point x="44" y="51"/>
      <point x="119" y="-13"/>
      <point x="241" y="-13" type="curve" smooth="yes"/>
      <point x="323" y="-13"/>
      <point x="395" y="15"/>
      <point x="442" y="64" type="curve" smooth="yes"/>
      <point x="482" y="107"/>
      <point x="507" y="171"/>
      <point x="507" y="233" type="curve" smooth="yes"/>
      <point x="507" y="293"/>
      <point x="485" y="328"/>
      <point x="430" y="357" type="curve"/>
      <point x="470" y="377"/>
      <point x="489" y="390"/>
      <point x="508" y="413" type="curve" smooth="yes"/>
      <point x="536" y="445"/>
      <point x="553" y="493" name="hr01"/>
      <point x="553" y="537" type="curve" smooth="yes"/>
      <point x="553" y="623"/>
      <point x="481" y="680"/>
      <point x="373" y="680" type="curve" smooth="yes"/>
      <point x="234" y="680"/>
      <point x="135" y="597"/>
      <point x="135" y="481" type="curve" smooth="yes"/>
      <point x="135" y="430"/>
      <point x="152" y="396"/>
    </contour>
    <contour>
      <point x="358" y="596" type="curve" smooth="yes"/>
      <point x="411" y="596"/>
      <point x="441" y="568"/>
      <point x="441" y="516" type="curve" smooth="yes"/>
      <point x="441" y="449"/>
      <point x="390" y="396"/>
      <point x="324" y="396" type="curve" smooth="yes"/>
      <point x="274" y="396"/>
      <point x="243" y="428"/>
      <point x="243" y="482" type="curve" smooth="yes"/>
      <point x="243" y="548"/>
      <point x="291" y="596"/>
    </contour>
    <contour>
      <point x="299" y="317" type="curve" smooth="yes"/>
      <point x="357" y="317"/>
      <point x="394" y="282"/>
      <point x="394" y="225" type="curve" smooth="yes"/>
      <point x="394" y="141" name="hr02"/>
      <point x="331" y="74"/>
      <point x="253" y="74" type="curve" smooth="yes"/>
      <point x="193" y="74"/>
      <point x="158" y="109"/>
      <point x="158" y="169" type="curve" smooth="yes"/>
      <point x="158" y="250"/>
      <point x="222" y="317"/>
    </contour>
  </outline>
</glyph>
<glyph name="nine" format="2">
  <advance width="564"/>
  <unicode hex="0039"/>
  <outline>
    <contour>
      <point x="32" y="44" type="line"/>
      <point x="73" y="4"/>
      <point x="121" y="-13"/>
      <point x="194" y="-13" type="curve" smooth="yes"/>
      <point x="331" y="-13"/>
      <point x="419" y="52"/>
      <point x="479" y="195" type="curve" smooth="yes"/>
      <point x="520" y="295"/>
      <point x="546" y="406"/>
      <point x="546" y="486" type="curve" smooth="yes"/>
      <point x="546" y="615"/>
      <point x="484" y="680"/>
      <point x="361" y="680" type="curve" smooth="yes"/>
      <point x="279" y="680"/>
      <point x="204" y="646"/>
      <point x="158" y="589" type="curve" smooth="yes"/>
      <point x="119" y="540"/>
      <point x="96" y="474"/>
      <point x="96" y="410" type="curve" smooth="yes"/>
      <point x="96" y="307"/>
      <point x="156" y="244"/>
      <point x="255" y="244" type="curve" smooth="yes"/>
      <point x="308" y="244"/>
      <point x="349" y="260"/>
      <point x="402" y="301" type="curve"/>
      <point x="382" y="235"/>
      <point x="369" y="202"/>
      <point x="351" y="170" type="curve" smooth="yes"/>
      <point x="313" y="104"/>
      <point x="269" y="74"/>
      <point x="208" y="74" type="curve" smooth="yes"/>
      <point x="162" y="74"/>
      <point x="130" y="89"/>
      <point x="104" y="122" type="curve"/>
    </contour>
    <contour>
      <point x="351" y="590" type="curve" smooth="yes"/>
      <point x="410" y="590"/>
      <point x="440" y="557"/>
      <point x="440" y="493" type="curve" smooth="yes"/>
      <point x="440" y="404"/>
      <point x="375" y="330"/>
      <point x="297" y="330" type="curve" smooth="yes"/>
      <point x="243" y="330"/>
      <point x="210" y="364"/>
      <point x="210" y="420" type="curve" smooth="yes"/>
      <point x="210" y="514"/>
      <point x="273" y="590"/>
    </contour>
  </outline>
</glyph>
<glyph name="colon" format="2">
  <advance width="247"/>
  <unicode hex="003A"/>
  <outline>
    <contour>
      <point x="94" y="121" type="curve" smooth="yes"/>
      <point x="52" y="121"/>
      <point x="20" y="90"/>
      <point x="20" y="50" type="curve" smooth="yes"/>
      <point x="20" y="12"/>
      <point x="45" y="-12"/>
      <point x="82" y="-12" type="curve" smooth="yes"/>
      <point x="125" y="-12"/>
      <point x="156" y="19"/>
      <point x="156" y="61" type="curve" smooth="yes"/>
      <point x="156" y="97"/>
      <point x="131" y="121"/>
    </contour>
    <contour>
      <point x="163" y="447" type="curve" smooth="yes"/>
      <point x="122" y="447"/>
      <point x="89" y="416"/>
      <point x="89" y="375" type="curve" smooth="yes"/>
      <point x="89" y="338"/>
      <point x="114" y="314"/>
      <point x="152" y="314" type="curve" smooth="yes"/>
      <point x="194" y="314"/>
      <point x="226" y="345"/>
      <point x="226" y="387" type="curve" smooth="yes"/>
      <point x="226" y="423"/>
      <point x="201" y="447"/>
    </contour>
  </outline>
</glyph>
<glyph name="semicolon" format="2">
  <advance width="248"/>
  <unicode hex="003B"/>
  <outline>
    <contour>
      <point x="-59" y="-140" type="line"/>
      <point x="0" y="-136" type="line"/>
      <point x="130" y="20" type="line"/>
      <point x="155" y="135" type="line"/>
      <point x="56" y="135" type="line"/>
      <point x="49" y="104" type="line" smooth="yes"/>
      <point x="33" y="32"/>
      <point x="28" y="17"/>
      <point x="6" y="-25" type="curve"/>
      <point x="-6" y="-45"/>
      <point x="-18" y="-66"/>
      <point x="-29" y="-86" type="curve" smooth="yes"/>
    </contour>
    <contour>
      <point x="162" y="448" type="curve" smooth="yes"/>
      <point x="121" y="448"/>
      <point x="88" y="416"/>
      <point x="88" y="375" type="curve" smooth="yes"/>
      <point x="88" y="338"/>
      <point x="113" y="314"/>
      <point x="151" y="314" type="curve" smooth="yes"/>
      <point x="194" y="314"/>
      <point x="225" y="345"/>
      <point x="225" y="388" type="curve" smooth="yes"/>
      <point x="225" y="424"/>
      <point x="200" y="448"/>
    </contour>
  </outline>
</glyph>
<glyph name="less" format="2">
  <advance width="530"/>
  <unicode hex="003C"/>
  <outline>
    <contour>
      <point x="5" y="319" type="line"/>
      <point x="455" y="135" type="line"/>
      <point x="498" y="184" type="line"/>
      <point x="105" y="339" type="line"/>
      <point x="498" y="494" type="line"/>
      <point x="466" y="542" type="line"/>
      <point x="5" y="361" type="line"/>
    </contour>
  </outline>
</glyph>
<glyph name="equal" format="2">
  <advance width="571"/>
  <unicode hex="003D"/>
  <outline>
    <contour>
      <point x="57" y="321" type="line"/>
      <point x="45" y="264" type="line"/>
      <point x="557" y="264" type="line"/>
      <point x="569" y="321" type="line"/>
    </contour>
    <contour>
      <point x="28" y="185" type="line"/>
      <point x="16" y="127" type="line"/>
      <point x="527" y="127" type="line"/>
      <point x="540" y="185" type="line"/>
    </contour>
  </outline>
</glyph>
<glyph name="greater" format="2">
  <advance width="530"/>
  <unicode hex="003E"/>
  <outline>
    <contour>
      <point x="526" y="244" type="line"/>
      <point x="65" y="424" type="line"/>
      <point x="33" y="377" type="line"/>
      <point x="426" y="222" type="line"/>
      <point x="33" y="67" type="line"/>
      <point x="76" y="18" type="line"/>
      <point x="526" y="202" type="line"/>
    </contour>
  </outline>
</glyph>
<glyph name="question" format="2">
  <advance width="386"/>
  <unicode hex="003F"/>
  <outline>
    <contour>
      <point x="211" y="196" type="line"/>
      <point x="209" y="203"/>
      <point x="207" y="209"/>
      <point x="207" y="211" type="curve"/>
      <point x="202" y="227"/>
      <point x="199" y="240"/>
      <point x="199" y="247" type="curve" smooth="yes"/>
      <point x="199" y="279"/>
      <point x="222" y="307"/>
      <point x="297" y="366" type="curve" smooth="yes"/>
      <point x="354" y="411"/>
      <point x="360" y="416"/>
      <point x="379" y="438" type="curve"/>
      <point x="410" y="471"/>
      <point x="427" y="512"/>
      <point x="427" y="550" type="curve" smooth="yes"/>
      <point x="427" y="629"/>
      <point x="366" y="681"/>
      <point x="273" y="681" type="curve" smooth="yes"/>
      <point x="182" y="681"/>
      <point x="122" y="639"/>
      <point x="91" y="554" type="curve"/>
      <point x="179" y="510" type="line"/>
      <point x="192" y="568"/>
      <point x="217" y="594"/>
      <point x="260" y="594" type="curve" smooth="yes"/>
      <point x="295" y="594"/>
      <point x="321" y="569"/>
      <point x="321" y="534" type="curve" smooth="yes"/>
      <point x="321" y="507"/>
      <point x="307" y="477"/>
      <point x="280" y="451" type="curve" smooth="yes"/>
      <point x="264" y="435"/>
      <point x="256" y="428"/>
      <point x="210" y="395" type="curve" smooth="yes"/>
      <point x="174" y="369"/>
      <point x="154" y="352"/>
      <point x="140" y="334" type="curve" smooth="yes"/>
      <point x="121" y="311"/>
      <point x="109" y="281"/>
      <point x="109" y="255" type="curve" smooth="yes"/>
      <point x="109" y="239"/>
      <point x="113" y="224"/>
      <point x="125" y="189" type="curve"/>
    </contour>
    <contour>
      <point x="141" y="122" type="curve" smooth="yes"/>
      <point x="99" y="122"/>
      <point x="67" y="90"/>
      <point x="67" y="50" type="curve" smooth="yes"/>
      <point x="67" y="12"/>
      <point x="91" y="-12"/>
      <point x="129" y="-12" type="curve" smooth="yes"/>
      <point x="172" y="-12"/>
      <point x="203" y="19"/>
      <point x="203" y="62" type="curve" smooth="yes"/>
      <point x="203" y="98"/>
      <point x="178" y="122"/>
    </contour>
  </outline>
</glyph>
<glyph name="at" format="2">
  <advance width="733"/>
  <unicode hex="0040"/>
  <outline>
    <contour>
      <point x="518" y="486" type="line"/>
      <point x="504" y="434" type="line"/>
      <point x="481" y="474"/>
      <point x="444" y="497"/>
      <point x="405" y="497" type="curve" smooth="yes"/>
      <point x="313" y="497"/>
      <point x="223" y="403"/>
      <point x="217" y="297" type="curve"/>
      <point x="216" y="293"/>
      <point x="216" y="289"/>
      <point x="216" y="285" type="curve" smooth="yes"/>
      <point x="216" y="207"/>
      <point x="266" y="149"/>
      <point x="338" y="149" type="curve" smooth="yes"/>
      <point x="386" y="149"/>
      <point x="440" y="178"/>
      <point x="478" y="226" type="curve"/>
      <point x="484" y="185"/>
      <point x="513" y="158" name="hr01"/>
      <point x="549" y="158" type="curve" smooth="yes"/>
      <point x="637" y="158"/>
      <point x="724" y="268"/>
      <point x="732" y="393" type="curve"/>
      <point x="733" y="400"/>
      <point x="733" y="407"/>
      <point x="733" y="415" type="curve" smooth="yes"/>
      <point x="733" y="571"/>
      <point x="613" y="679"/>
      <point x="437" y="679" type="curve" smooth="yes"/>
      <point x="241" y="679"/>
      <point x="69" y="516"/>
      <point x="52" y="320" type="curve" smooth="yes"/>
      <point x="51" y="313"/>
      <point x="51" y="305"/>
      <point x="51" y="298" type="curve" smooth="yes"/>
      <point x="51" y="215"/>
      <point x="83" y="133"/>
      <point x="137" y="76" type="curve"/>
      <point x="196" y="18"/>
      <point x="278" y="-12"/>
      <point x="383" y="-12" type="curve" smooth="yes"/>
      <point x="452" y="-12"/>
      <point x="523" y="-2"/>
      <point x="582" y="16" type="curve"/>
      <point x="571" y="81" type="line"/>
      <point x="511" y="63"/>
      <point x="451" y="53"/>
      <point x="392" y="53" type="curve" smooth="yes"/>
      <point x="299" y="53"/>
      <point x="237" y="76"/>
      <point x="190" y="128" type="curve" smooth="yes"/>
      <point x="142" y="183"/>
      <point x="129" y="250"/>
      <point x="129" y="322" type="curve"/>
      <point x="141" y="486"/>
      <point x="277" y="615"/>
      <point x="440" y="615" type="curve" smooth="yes"/>
      <point x="582" y="615"/>
      <point x="670" y="534"/>
      <point x="670" y="409" type="curve" smooth="yes"/>
      <point x="670" y="403"/>
      <point x="670" y="397"/>
      <point x="670" y="389" type="curve"/>
      <point x="663" y="306"/>
      <point x="606" y="215"/>
      <point x="561" y="215" type="curve" smooth="yes"/>
      <point x="542" y="215"/>
      <point x="531" y="228"/>
      <point x="531" y="252" type="curve" smooth="yes"/>
      <point x="531" y="257" type="line"/>
      <point x="532" y="264"/>
      <point x="535" y="281"/>
      <point x="543" y="303" type="curve"/>
      <point x="594" y="486" type="line"/>
    </contour>
    <contour>
      <point x="413" y="420" type="curve" smooth="yes"/>
      <point x="461" y="420"/>
      <point x="480" y="383"/>
      <point x="480" y="340" type="curve"/>
      <point x="474" y="281"/>
      <point x="425" y="224" name="hr02"/>
      <point x="375" y="224" type="curve" smooth="yes"/>
      <point x="326" y="224"/>
      <point x="306" y="261"/>
      <point x="306" y="305" type="curve"/>
      <point x="313" y="365"/>
      <point x="362" y="420"/>
    </contour>
  </outline>
</glyph>
<glyph name="A" format="2">
  <advance width="623"/>
  <unicode hex="0041"/>
  <outline>
    <contour>
      <point x="-55" y="0" type="line"/>
      <point x="68" y="0" type="line"/>
      <point x="170" y="176" type="line"/>
      <point x="426" y="176" type="line"/>
      <point x="453" y="0" type="line"/>
      <point x="578" y="0" type="line"/>
      <point x="475" y="667" type="line"/>
      <point x="343" y="667" type="line"/>
    </contour>
    <contour>
      <point x="219" y="263" type="line"/>
      <point x="378" y="537" type="line"/>
      <point x="418" y="263" type="line"/>
    </contour>
  </outline>
</glyph>
<glyph name="B" format="2">
  <advance width="602"/>
  <unicode hex="0042"/>
  <outline>
    <contour>
      <point x="38" y="0" type="line"/>
      <point x="282" y="0" type="line" smooth="yes"/>
      <point x="362" y="0"/>
      <point x="415" y="14"/>
      <point x="461" y="48" type="curve" smooth="yes"/>
      <point x="517" y="90"/>
      <point x="552" y="159"/>
      <point x="552" y="228" type="curve" smooth="yes"/>
      <point x="552" y="294"/>
      <point x="524" y="336"/>
      <point x="464" y="362" type="curve"/>
      <point x="547" y="406"/>
      <point x="588" y="463" name="hr01"/>
      <point x="588" y="534" type="curve" smooth="yes"/>
      <point x="588" y="581"/>
      <point x="565" y="624"/>
      <point x="528" y="644" type="curve" smooth="yes"/>
      <point x="499" y="660"/>
      <point x="461" y="667"/>
      <point x="405" y="667" type="curve" smooth="yes"/>
      <point x="180" y="667" type="line"/>
    </contour>
    <contour>
      <point x="239" y="392" type="line"/>
      <point x="278" y="576" type="line"/>
      <point x="357" y="576" type="line" smooth="yes"/>
      <point x="432" y="576"/>
      <point x="458" y="558"/>
      <point x="458" y="507" type="curve" smooth="yes"/>
      <point x="458" y="436"/>
      <point x="402" y="392"/>
      <point x="312" y="392" type="curve" smooth="yes"/>
    </contour>
    <contour>
      <point x="175" y="91" type="line"/>
      <point x="221" y="307" type="line"/>
      <point x="311" y="307" type="line" smooth="yes"/>
      <point x="391" y="307"/>
      <point x="419" y="285" name="hr02"/>
      <point x="419" y="223" type="curve" smooth="yes"/>
      <point x="419" y="185"/>
      <point x="402" y="147"/>
      <point x="376" y="123" type="curve" smooth="yes"/>
      <point x="348" y="98"/>
      <point x="319" y="91"/>
      <point x="251" y="91" type="curve" smooth="yes"/>
    </contour>
  </outline>
</glyph>
<glyph name="C" format="2">
  <advance width="640"/>
  <unicode hex="0043"/>
  <outline>
    <contour>
      <point x="519" y="177" type="line"/>
      <point x="470" y="106"/>
      <point x="420" y="77"/>
      <point x="344" y="77" type="curve" smooth="yes"/>
      <point x="245" y="77"/>
      <point x="190" y="136"/>
      <point x="190" y="242" type="curve" smooth="yes"/>
      <point x="190" y="318"/>
      <point x="213" y="406"/>
      <point x="249" y="466" type="curve" smooth="yes"/>
      <point x="297" y="546"/>
      <point x="364" y="588"/>
      <point x="444" y="588" type="curve" smooth="yes"/>
      <point x="514" y="588"/>
      <point x="562" y="558"/>
      <point x="575" y="505" type="curve"/>
      <point x="681" y="562" type="line"/>
      <point x="631" y="649"/>
      <point x="568" y="682"/>
      <point x="453" y="682" type="curve" smooth="yes"/>
      <point x="337" y="682"/>
      <point x="238" y="639"/>
      <point x="170" y="560" type="curve" smooth="yes"/>
      <point x="103" y="482"/>
      <point x="60" y="353"/>
      <point x="60" y="233" type="curve" smooth="yes"/>
      <point x="60" y="70"/>
      <point x="153" y="-14"/>
      <point x="333" y="-14" type="curve" smooth="yes"/>
      <point x="423" y="-14"/>
      <point x="494" y="4"/>
      <point x="543" y="40" type="curve" smooth="yes"/>
      <point x="565" y="56"/>
      <point x="582" y="73"/>
      <point x="609" y="109" type="curve"/>
    </contour>
  </outline>
</glyph>
<glyph name="D" format="2">
  <advance width="700"/>
  <unicode hex="0044"/>
  <outline>
    <contour>
      <point x="38" y="0" type="line"/>
      <point x="268" y="0" type="line" smooth="yes"/>
      <point x="419" y="0"/>
      <point x="502" y="31"/>
      <point x="577" y="113" type="curve" smooth="yes"/>
      <point x="644" y="187"/>
      <point x="689" y="316"/>
      <point x="689" y="433" type="curve" smooth="yes"/>
      <point x="689" y="513"/>
      <point x="656" y="581"/>
      <point x="599" y="621" type="curve" smooth="yes"/>
      <point x="553" y="652"/>
      <point x="492" y="667"/>
      <point x="410" y="667" type="curve" smooth="yes"/>
      <point x="180" y="667" type="line"/>
    </contour>
    <contour>
      <point x="178" y="94" type="line"/>
      <point x="280" y="573" type="line"/>
      <point x="395" y="573" type="line" smooth="yes"/>
      <point x="450" y="573"/>
      <point x="486" y="563"/>
      <point x="513" y="539" type="curve" smooth="yes"/>
      <point x="544" y="512"/>
      <point x="560" y="470"/>
      <point x="560" y="417" type="curve" smooth="yes"/>
      <point x="560" y="345"/>
      <point x="537" y="264"/>
      <point x="499" y="206" type="curve" smooth="yes"/>
      <point x="447" y="126"/>
      <point x="387" y="94"/>
      <point x="288" y="94" type="curve" smooth="yes"/>
    </contour>
  </outline>
</glyph>
<glyph name="E" format="2">
  <advance width="529"/>
  <unicode hex="0045"/>
  <outline>
    <contour>
      <point x="38" y="0" type="line"/>
      <point x="447" y="0" type="line"/>
      <point x="467" y="94" type="line"/>
      <point x="178" y="94" type="line"/>
      <point x="221" y="295" type="line"/>
      <point x="473" y="295" type="line"/>
      <point x="492" y="385" type="line"/>
      <point x="240" y="385" type="line"/>
      <point x="280" y="573" type="line"/>
      <point x="532" y="573" type="line"/>
      <point x="552" y="667" type="line"/>
      <point x="180" y="667" type="line"/>
    </contour>
  </outline>
</glyph>
<glyph name="F" format="2">
  <advance width="473"/>
  <unicode hex="0046"/>
  <outline>
    <contour>
      <point x="38" y="0" type="line"/>
      <point x="158" y="0" type="line"/>
      <point x="220" y="290" type="line"/>
      <point x="451" y="290" type="line"/>
      <point x="470" y="380" type="line"/>
      <point x="239" y="380" type="line"/>
      <point x="280" y="573" type="line"/>
      <point x="527" y="573" type="line"/>
      <point x="547" y="667" type="line"/>
      <point x="180" y="667" type="line"/>
    </contour>
  </outline>
</glyph>
<glyph name="G" format="2">
  <advance width="684"/>
  <unicode hex="0047"/>
  <outline>
    <contour>
      <point x="658" y="336" type="line"/>
      <point x="383" y="336" type="line"/>
      <point x="364" y="247" type="line"/>
      <point x="521" y="247" type="line"/>
      <point x="488" y="94" type="line"/>
      <point x="435" y="77"/>
      <point x="408" y="72"/>
      <point x="366" y="72" type="curve" smooth="yes"/>
      <point x="292" y="72"/>
      <point x="249" y="88"/>
      <point x="221" y="125" type="curve" smooth="yes"/>
      <point x="200" y="154"/>
      <point x="189" y="192"/>
      <point x="189" y="240" type="curve" smooth="yes"/>
      <point x="189" y="315"/>
      <point x="213" y="406"/>
      <point x="249" y="465" type="curve" smooth="yes"/>
      <point x="296" y="545"/>
      <point x="365" y="588"/>
      <point x="444" y="588" type="curve" smooth="yes"/>
      <point x="515" y="588"/>
      <point x="566" y="557"/>
      <point x="585" y="500" type="curve"/>
      <point x="689" y="557" type="line"/>
      <point x="680" y="588"/>
      <point x="670" y="603"/>
      <point x="647" y="622" type="curve" smooth="yes"/>
      <point x="601" y="662"/>
      <point x="535" y="682"/>
      <point x="455" y="682" type="curve" smooth="yes"/>
      <point x="339" y="682"/>
      <point x="240" y="640"/>
      <point x="171" y="560" type="curve" smooth="yes"/>
      <point x="103" y="483"/>
      <point x="60" y="354"/>
      <point x="60" y="232" type="curve" smooth="yes"/>
      <point x="60" y="154"/>
      <point x="82" y="94"/>
      <point x="127" y="51" type="curve" smooth="yes"/>
      <point x="174" y="5"/>
      <point x="241" y="-15"/>
      <point x="347" y="-15" type="curve" smooth="yes"/>
      <point x="435" y="-15"/>
      <point x="493" y="-6"/>
      <point x="592" y="22" type="curve"/>
    </contour>
  </outline>
</glyph>
<glyph name="H" format="2">
  <advance width="711"/>
  <unicode hex="0048"/>
  <outline>
    <contour>
      <point x="38" y="0" type="line"/>
      <point x="158" y="0" type="line"/>
      <point x="220" y="293" type="line"/>
      <point x="522" y="293" type="line"/>
      <point x="459" y="0" type="line"/>
      <point x="579" y="0" type="line"/>
      <point x="721" y="667" type="line"/>
      <point x="601" y="667" type="line"/>
      <point x="541" y="387" type="line"/>
      <point x="240" y="387" type="line"/>
      <point x="300" y="667" type="line"/>
      <point x="180" y="667" type="line"/>
    </contour>
  </outline>
</glyph>
<glyph name="I" format="2">
  <advance width="290"/>
  <unicode hex="0049"/>
  <outline>
    <contour>
      <point x="38" y="0" type="line"/>
      <point x="158" y="0" type="line"/>
      <point x="300" y="667" type="line"/>
      <point x="180" y="667" type="line"/>
    </contour>
  </outline>
</glyph>
<glyph name="J" format="2">
  <advance width="429"/>
  <unicode hex="004A"/>
  <outline>
    <contour>
      <point x="-64" y="102" type="line"/>
      <point x="-52" y="68"/>
      <point x="-45" y="53"/>
      <point x="-31" y="36" type="curve" smooth="yes"/>
      <point x="-5" y="3"/>
      <point x="43" y="-15"/>
      <point x="107" y="-15" type="curve" smooth="yes"/>
      <point x="175" y="-15"/>
      <point x="233" y="3"/>
      <point x="268" y="35" type="curve" smooth="yes"/>
      <point x="306" y="70"/>
      <point x="330.347" y="126.136"/>
      <point x="353" y="233" type="curve" smooth="yes"/>
      <point x="445" y="667" type="line"/>
      <point x="325" y="667" type="line"/>
      <point x="232" y="226" type="line"/>
      <point x="219" y="168"/>
      <point x="204" y="125"/>
      <point x="189" y="105" type="curve" smooth="yes"/>
      <point x="175" y="87"/>
      <point x="147" y="75"/>
      <point x="120" y="75" type="curve" smooth="yes"/>
      <point x="77" y="75"/>
      <point x="59" y="91"/>
      <point x="43" y="147" type="curve"/>
    </contour>
  </outline>
</glyph>
<glyph name="K" format="2">
  <advance width="560"/>
  <unicode hex="004B"/>
  <outline>
    <contour>
      <point x="38" y="0" type="line"/>
      <point x="158" y="0" type="line"/>
      <point x="226" y="319" type="line"/>
      <point x="402" y="0" type="line"/>
      <point x="540" y="0" type="line"/>
      <point x="349" y="341" type="line"/>
      <point x="661" y="667" type="line"/>
      <point x="521" y="667" type="line"/>
      <point x="236" y="368" type="line"/>
      <point x="300" y="667" type="line"/>
      <point x="180" y="667" type="line"/>
    </contour>
  </outline>
</glyph>
<glyph name="M" format="2">
  <advance width="895"/>
  <unicode hex="004D"/>
  <outline>
    <contour>
      <point x="38" y="0" type="line"/>
      <point x="153" y="0" type="line"/>
      <point x="252" y="465" type="line"/>
      <point x="355" y="0" type="line"/>
      <point x="446" y="0" type="line"/>
      <point x="747" y="465" type="line"/>
      <point x="649" y="0" type="line"/>
      <point x="764" y="0" type="line"/>
      <point x="905" y="667" type="line"/>
      <point x="769" y="667" type="line"/>
      <point x="436" y="169" type="line"/>
      <point x="313" y="667" type="line"/>
      <point x="180" y="667" type="line"/>
    </contour>
  </outline>
</glyph>
<glyph name="N" format="2">
  <advance width="756"/>
  <unicode hex="004E"/>
  <outline>
    <contour>
      <point x="38" y="0" type="line"/>
      <point x="156" y="0" type="line"/>
      <point x="259" y="484" type="line"/>
      <point x="507" y="0" type="line"/>
      <point x="624" y="0" type="line"/>
      <point x="766" y="667" type="line"/>
      <point x="649" y="667" type="line"/>
      <point x="546" y="185" type="line"/>
      <point x="298" y="667" type="line"/>
      <point x="180" y="667" type="line"/>
    </contour>
  </outline>
</glyph>
<glyph name="P" format="2">
  <advance width="537"/>
  <unicode hex="0050"/>
  <outline>
    <contour>
      <point x="38" y="0" type="line"/>
      <point x="158" y="0" type="line"/>
      <point x="216" y="273" type="line"/>
      <point x="283" y="273" type="line" smooth="yes"/>
      <point x="377" y="273"/>
      <point x="451" y="298"/>
      <point x="506" y="348" type="curve" smooth="yes"/>
      <point x="554" y="392"/>
      <point x="582" y="453"/>
      <point x="582" y="515" type="curve" smooth="yes"/>
      <point x="582" y="564"/>
      <point x="562" y="609"/>
      <point x="531" y="631" type="curve" smooth="yes"/>
      <point x="500" y="653"/>
      <point x="449" y="667"/>
      <point x="400" y="667" type="curve" smooth="yes"/>
      <point x="180" y="667" type="line"/>
    </contour>
    <contour>
      <point x="236" y="366" type="line"/>
      <point x="280" y="573" type="line"/>
      <point x="354" y="573" type="line" smooth="yes"/>
      <point x="396" y="573"/>
      <point x="412" y="570"/>
      <point x="429" y="557" type="curve" smooth="yes"/>
      <point x="445" y="545"/>
      <point x="453" y="525"/>
      <point x="453" y="499" type="curve" smooth="yes"/>
      <point x="453" y="416"/>
      <point x="393" y="366"/>
      <point x="292" y="366" type="curve" smooth="yes"/>
    </contour>
  </outline>
</glyph>
<glyph name="Q" format="2">
  <advance width="736"/>
  <unicode hex="0051"/>
  <outline>
    <contour>
      <point x="466" y="2" type="line"/>
      <point x="528" y="19"/>
      <point x="573" y="46"/>
      <point x="617" y="95" type="curve" smooth="yes"/>
      <point x="690" y="174"/>
      <point x="738" y="310"/>
      <point x="738" y="433" type="curve" smooth="yes"/>
      <point x="738" y="597"/>
      <point x="641" y="682"/>
      <point x="455" y="682" type="curve" smooth="yes"/>
      <point x="340" y="682"/>
      <point x="250" y="647"/>
      <point x="184" y="577" type="curve" smooth="yes"/>
      <point x="109" y="498"/>
      <point x="59" y="360"/>
      <point x="59" y="233" type="curve" smooth="yes"/>
      <point x="59" y="156"/>
      <point x="81" y="95"/>
      <point x="123" y="54" type="curve" smooth="yes"/>
      <point x="157" y="21"/>
      <point x="191" y="5"/>
      <point x="269" y="-11" type="curve"/>
      <point x="681" y="-183" type="line"/>
      <point x="786" y="-105" type="line"/>
    </contour>
    <contour>
      <point x="451" y="588" type="curve" smooth="yes"/>
      <point x="554" y="588"/>
      <point x="608" y="531"/>
      <point x="608" y="422" type="curve" smooth="yes"/>
      <point x="608" y="345"/>
      <point x="583" y="254"/>
      <point x="545" y="193" type="curve" smooth="yes"/>
      <point x="497" y="118"/>
      <point x="432" y="80"/>
      <point x="348" y="80" type="curve" smooth="yes"/>
      <point x="242" y="80"/>
      <point x="190" y="136"/>
      <point x="190" y="249" type="curve" smooth="yes"/>
      <point x="190" y="322"/>
      <point x="216" y="415"/>
      <point x="254" y="475" type="curve" smooth="yes"/>
      <point x="302" y="551"/>
      <point x="366" y="588"/>
    </contour>
  </outline>
</glyph>
<glyph name="R" format="2">
  <advance width="595"/>
  <unicode hex="0052"/>
  <outline>
    <contour>
      <point x="38" y="0" type="line"/>
      <point x="158" y="0" type="line"/>
      <point x="219" y="285" type="line"/>
      <point x="293" y="285" type="line"/>
      <point x="395" y="0" type="line"/>
      <point x="531" y="0" type="line"/>
      <point x="411" y="303" type="line"/>
      <point x="515" y="340"/>
      <point x="582" y="425"/>
      <point x="582" y="522" type="curve" smooth="yes"/>
      <point x="582" y="615"/>
      <point x="513" y="667"/>
      <point x="391" y="667" type="curve" smooth="yes"/>
      <point x="180" y="667" type="line"/>
    </contour>
    <contour>
      <point x="238" y="375" type="line"/>
      <point x="280" y="574" type="line"/>
      <point x="342" y="574" type="line" smooth="yes"/>
      <point x="385" y="574"/>
      <point x="405" y="571"/>
      <point x="421" y="563" type="curve" smooth="yes"/>
      <point x="440" y="554"/>
      <point x="451" y="532"/>
      <point x="451" y="504" type="curve" smooth="yes"/>
      <point x="451" y="473"/>
      <point x="438" y="441"/>
      <point x="417" y="418" type="curve" smooth="yes"/>
      <point x="389" y="388"/>
      <point x="353" y="375"/>
      <point x="300" y="375" type="curve" smooth="yes"/>
    </contour>
  </outline>
</glyph>
<glyph name="S" format="2">
  <advance width="528"/>
  <unicode hex="0053"/>
  <outline>
    <contour>
      <point x="-4" y="114" type="line"/>
      <point x="19" y="30"/>
      <point x="95" y="-14"/>
      <point x="215" y="-14" type="curve" smooth="yes"/>
      <point x="292" y="-14"/>
      <point x="354" y="4"/>
      <point x="399" y="40" type="curve" smooth="yes"/>
      <point x="450" y="80"/>
      <point x="481" y="144"/>
      <point x="481" y="207" type="curve" smooth="yes"/>
      <point x="481" y="257"/>
      <point x="463" y="297"/>
      <point x="427" y="330" type="curve" smooth="yes"/>
      <point x="406" y="349"/>
      <point x="393" y="357"/>
      <point x="326" y="394" type="curve" smooth="yes"/>
      <point x="246" y="438"/>
      <point x="229" y="457"/>
      <point x="229" y="500" type="curve" smooth="yes"/>
      <point x="229" y="555"/>
      <point x="275" y="595"/>
      <point x="338" y="595" type="curve" smooth="yes"/>
      <point x="392" y="595"/>
      <point x="425" y="571"/>
      <point x="442" y="520" type="curve"/>
      <point x="543" y="574" type="line"/>
      <point x="515" y="647"/>
      <point x="453" y="682"/>
      <point x="350" y="682" type="curve" smooth="yes"/>
      <point x="203" y="682"/>
      <point x="106" y="601"/>
      <point x="106" y="480" type="curve" smooth="yes"/>
      <point x="106" y="432"/>
      <point x="121" y="391"/>
      <point x="151" y="362" type="curve" smooth="yes"/>
      <point x="171" y="342"/>
      <point x="189" y="330"/>
      <point x="248" y="299" type="curve" smooth="yes"/>
      <point x="327" y="257"/>
      <point x="348" y="235"/>
      <point x="348" y="191" type="curve" smooth="yes"/>
      <point x="348" y="127"/>
      <point x="296" y="80"/>
      <point x="224" y="80" type="curve" smooth="yes"/>
      <point x="159" y="80"/>
      <point x="116" y="114"/>
      <point x="101" y="177" type="curve"/>
    </contour>
  </outline>
</glyph>
<glyph name="T" format="2">
  <advance width="473"/>
  <unicode hex="0054"/>
  <outline>
    <contour>
      <point x="130" y="0" type="line"/>
      <point x="250" y="0" type="line"/>
      <point x="371" y="573" type="line"/>
      <point x="556" y="573" type="line"/>
      <point x="576" y="667" type="line"/>
      <point x="80" y="667" type="line"/>
      <point x="60" y="573" type="line"/>
      <point x="251" y="573" type="line"/>
    </contour>
  </outline>
</glyph>
<glyph name="U" format="2">
  <advance width="700"/>
  <unicode hex="0055"/>
  <outline>
    <contour>
      <point x="174" y="667" type="line"/>
      <point x="84" y="244" type="line" smooth="yes"/>
      <point x="78.244" y="216.947"/>
      <point x="75" y="190"/>
      <point x="75" y="164" type="curve" smooth="yes"/>
      <point x="75" y="47"/>
      <point x="154" y="-14"/>
      <point x="303" y="-14" type="curve" smooth="yes"/>
      <point x="488" y="-14"/>
      <point x="589" y="68"/>
      <point x="628" y="250" type="curve" smooth="yes"/>
      <point x="717" y="667" type="line"/>
      <point x="597" y="667" type="line"/>
      <point x="506" y="240" type="line" smooth="yes"/>
      <point x="484" y="135"/>
      <point x="419" y="80"/>
      <point x="319" y="80" type="curve" smooth="yes"/>
      <point x="238" y="80"/>
      <point x="194" y="114"/>
      <point x="194" y="175" type="curve" smooth="yes"/>
      <point x="194" y="189"/>
      <point x="198" y="215"/>
      <point x="202" y="238" type="curve"/>
      <point x="294" y="667" type="line"/>
    </contour>
  </outline>
</glyph>
<glyph name="V" format="2">
  <advance width="589"/>
  <unicode hex="0056"/>
  <outline>
    <contour>
      <point x="187" y="0" type="line"/>
      <point x="304" y="0" type="line"/>
      <point x="704" y="667" type="line"/>
      <point x="575" y="667" type="line"/>
      <point x="284" y="164" type="line"/>
      <point x="216" y="667" type="line"/>
      <point x="90" y="667" type="line"/>
    </contour>
  </outline>
</glyph>
<glyph name="W" format="2">
  <advance width="935"/>
  <unicode hex="0057"/>
  <outline>
    <contour>
      <point x="144" y="0" type="line"/>
      <point x="254" y="0" type="line"/>
      <point x="521" y="474" type="line"/>
      <point x="559" y="0" type="line"/>
      <point x="669" y="0" type="line"/>
      <point x="1031" y="667" type="line"/>
      <point x="906" y="667" type="line"/>
      <point x="652" y="191" type="line"/>
      <point x="618" y="667" type="line"/>
      <point x="515" y="667" type="line"/>
      <point x="253" y="191" type="line"/>
      <point x="224" y="667" type="line"/>
      <point x="102" y="667" type="line"/>
    </contour>
  </outline>
</glyph>
<glyph name="X" format="2">
  <advance width="560"/>
  <unicode hex="0058"/>
  <outline>
    <contour>
      <point x="-53" y="0" type="line"/>
      <point x="89" y="0" type="line"/>
      <point x="285" y="241" type="line"/>
      <point x="386" y="0" type="line"/>
      <point x="517" y="0" type="line"/>
      <point x="370" y="343" type="line"/>
      <point x="637" y="667" type="line"/>
      <point x="509" y="667" type="line"/>
      <point x="329" y="448" type="line"/>
      <point x="238" y="667" type="line"/>
      <point x="107" y="667" type="line"/>
      <point x="242" y="350" type="line"/>
    </contour>
  </outline>
</glyph>
<glyph name="Y" format="2">
  <advance width="524"/>
  <unicode hex="0059"/>
  <outline>
    <contour>
      <point x="156" y="0" type="line"/>
      <point x="276" y="0" type="line"/>
      <point x="337" y="286" type="line"/>
      <point x="646" y="667" type="line"/>
      <point x="512" y="667" type="line"/>
      <point x="297" y="391" type="line"/>
      <point x="195" y="667" type="line"/>
      <point x="64" y="667" type="line"/>
      <point x="216" y="284" type="line"/>
    </contour>
  </outline>
</glyph>
<glyph name="Z" format="2">
  <advance width="520"/>
  <unicode hex="005A"/>
  <outline>
    <contour>
      <point x="-45" y="0" type="line"/>
      <point x="481" y="0" type="line"/>
      <point x="501" y="94" type="line"/>
      <point x="129" y="94" type="line"/>
      <point x="567" y="575" type="line"/>
      <point x="586" y="667" type="line"/>
      <point x="132" y="667" type="line"/>
      <point x="112" y="573" type="line"/>
      <point x="424" y="573" type="line"/>
      <point x="-26" y="90" type="line"/>
    </contour>
  </outline>
</glyph>
<glyph name="bracketleft" format="2">
  <advance width="287"/>
  <unicode hex="005B"/>
  <outline>
    <contour>
      <point x="-23" y="-218" type="line"/>
      <point x="164" y="-218" type="line"/>
      <point x="173" y="-175" type="line"/>
      <point x="78" y="-163" type="line"/>
      <point x="250" y="647" type="line"/>
      <point x="350" y="656" type="line"/>
      <point x="359" y="700" type="line"/>
      <point x="172" y="700" type="line"/>
    </contour>
  </outline>
</glyph>
<glyph name="backslash" format="2">
  <advance width="426"/>
  <unicode hex="005C"/>
  <outline>
    <contour>
      <point x="321" y="-216" type="line"/>
      <point x="179" y="707" type="line"/>
      <point x="112" y="697" type="line"/>
      <point x="254" y="-225" type="line"/>
    </contour>
  </outline>
</glyph>
<glyph name="bracketright" format="2">
  <advance width="287"/>
  <unicode hex="005D"/>
  <outline>
    <contour>
      <point x="319" y="700" type="line"/>
      <point x="131" y="700" type="line"/>
      <point x="122" y="657" type="line"/>
      <point x="217" y="645" type="line"/>
      <point x="45" y="-165" type="line"/>
      <point x="-55" y="-174" type="line"/>
      <point x="-64" y="-218" type="line"/>
      <point x="123" y="-218" type="line"/>
    </contour>
  </outline>
</glyph>
<glyph name="asciicircum" format="2">
  <advance width="440"/>
  <unicode hex="005E"/>
  <outline>
    <contour>
      <point x="155" y="435" type="line"/>
      <point x="267" y="623" type="line"/>
      <point x="383" y="435" type="line"/>
      <point x="440" y="452" type="line"/>
      <point x="287" y="698" type="line"/>
      <point x="243" y="698" type="line"/>
      <point x="99" y="452" type="line"/>
    </contour>
  </outline>
</glyph>
<glyph name="underscore" format="2">
  <advance width="562"/>
  <unicode hex="005F"/>
  <outline>
    <contour>
      <point x="-51" y="-59" type="line"/>
      <point x="-51" y="-115" type="line"/>
      <point x="512" y="-115" type="line"/>
      <point x="512" y="-59" type="line"/>
    </contour>
  </outline>
</glyph>
<glyph name="grave" format="2">
  <advance width="500"/>
  <unicode hex="0060"/>
  <outline>
    <contour>
      <point x="339" y="528" type="line"/>
      <point x="376" y="532" type="line"/>
      <point x="260" y="697" type="line"/>
      <point x="169" y="675" type="line"/>
    </contour>
  </outline>
</glyph>
<glyph name="a" format="2">
  <advance width="567"/>
  <unicode hex="0061"/>
  <outline>
    <contour>
      <point x="436" y="448" type="line"/>
      <point x="426" y="401" type="line"/>
      <point x="389" y="442"/>
      <point x="350" y="460"/>
      <point x="294" y="460" type="curve" smooth="yes"/>
      <point x="223" y="460"/>
      <point x="155" y="427"/>
      <point x="108" y="371" type="curve"/>
      <point x="64" y="316"/>
      <point x="35" y="232"/>
      <point x="35" y="155" type="curve" smooth="yes"/>
      <point x="35" y="54"/>
      <point x="98" y="-11"/>
      <point x="197" y="-11" type="curve" smooth="yes"/>
      <point x="256" y="-11"/>
      <point x="302" y="8"/>
      <point x="352" y="52" type="curve"/>
      <point x="341" y="0" type="line"/>
      <point x="452" y="0" type="line"/>
      <point x="547" y="448" type="line"/>
    </contour>
    <contour>
      <point x="308" y="378" type="curve" smooth="yes"/>
      <point x="363" y="378"/>
      <point x="398" y="340"/>
      <point x="398" y="281" type="curve" smooth="yes"/>
      <point x="398" y="166"/>
      <point x="328" y="71" name="hr02"/>
      <point x="243" y="71" type="curve" smooth="yes"/>
      <point x="186" y="71"/>
      <point x="153" y="107"/>
      <point x="153" y="169" type="curve" smooth="yes"/>
      <point x="153" y="210"/>
      <point x="172" y="275"/>
      <point x="195" y="310" type="curve" smooth="yes"/>
      <point x="223" y="354"/>
      <point x="264" y="378"/>
    </contour>
  </outline>
</glyph>
<glyph name="b" format="2">
  <advance width="567"/>
  <unicode hex="0062"/>
  <outline>
    <contour>
      <point x="105" y="0" type="line"/>
      <point x="144" y="51" type="line"/>
      <point x="178" y="8"/>
      <point x="220" y="-11" name="hr01"/>
      <point x="278" y="-11" type="curve" smooth="yes"/>
      <point x="349" y="-11"/>
      <point x="417" y="22"/>
      <point x="462" y="77" type="curve" smooth="yes"/>
      <point x="506" y="132"/>
      <point x="535" y="218"/>
      <point x="535" y="294" type="curve" smooth="yes"/>
      <point x="535" y="395"/>
      <point x="471" y="459"/>
      <point x="371" y="459" type="curve" smooth="yes"/>
      <point x="316" y="459"/>
      <point x="272" y="442"/>
      <point x="218" y="399" type="curve"/>
      <point x="282" y="700" type="line"/>
      <point x="171" y="700" type="line" name="hr02"/>
      <point x="22" y="0" type="line"/>
    </contour>
    <contour>
      <point x="326" y="377" type="curve" smooth="yes"/>
      <point x="382" y="377"/>
      <point x="415" y="341"/>
      <point x="415" y="278" type="curve" smooth="yes"/>
      <point x="415" y="235"/>
      <point x="397" y="175"/>
      <point x="373" y="138" type="curve" smooth="yes"/>
      <point x="345" y="95"/>
      <point x="305" y="71" name="hr03"/>
      <point x="261" y="71" type="curve" smooth="yes"/>
      <point x="206" y="71"/>
      <point x="171" y="108"/>
      <point x="171" y="168" type="curve" smooth="yes"/>
      <point x="171" y="283"/>
      <point x="241" y="377"/>
    </contour>
  </outline>
</glyph>
<glyph name="c" format="2">
  <advance width="480"/>
  <unicode hex="0063"/>
  <outline>
    <contour>
      <point x="343" y="146" type="line"/>
      <point x="319" y="91"/>
      <point x="281" y="61"/>
      <point x="233" y="61" type="curve" smooth="yes"/>
      <point x="181" y="61"/>
      <point x="151" y="98"/>
      <point x="151" y="162" type="curve" smooth="yes"/>
      <point x="151" y="198"/>
      <point x="161" y="243"/>
      <point x="179" y="285" type="curve" smooth="yes"/>
      <point x="208" y="351"/>
      <point x="251" y="387"/>
      <point x="303" y="387" type="curve" smooth="yes"/>
      <point x="333" y="387"/>
      <point x="357" y="371"/>
      <point x="368" y="346" type="curve"/>
      <point x="373" y="332"/>
      <point x="375" y="322"/>
      <point x="375" y="296" type="curve"/>
      <point x="482" y="330" type="line"/>
      <point x="472" y="417"/>
      <point x="416" y="459"/>
      <point x="313" y="459" type="curve" smooth="yes"/>
      <point x="221" y="459"/>
      <point x="151" y="428"/>
      <point x="103" y="364" type="curve"/>
      <point x="62" y="312"/>
      <point x="37" y="234"/>
      <point x="37" y="163" type="curve" smooth="yes"/>
      <point x="37" y="52"/>
      <point x="104" y="-11"/>
      <point x="222" y="-11" type="curve" smooth="yes"/>
      <point x="275" y="-11"/>
      <point x="324" y="0"/>
      <point x="363" y="21" type="curve" smooth="yes"/>
      <point x="400" y="42"/>
      <point x="421" y="66"/>
      <point x="447" y="118" type="curve"/>
    </contour>
  </outline>
</glyph>
<glyph name="d" format="2">
  <advance width="567"/>
  <unicode hex="0064"/>
  <outline>
    <contour>
      <point x="489" y="700" type="line"/>
      <point x="426" y="401" type="line"/>
      <point x="395" y="440"/>
      <point x="350" y="460"/>
      <point x="293" y="460" type="curve" smooth="yes"/>
      <point x="222" y="460"/>
      <point x="155" y="427"/>
      <point x="108" y="371" type="curve" smooth="yes"/>
      <point x="64" y="318"/>
      <point x="35" y="232"/>
      <point x="35" y="155" type="curve" smooth="yes"/>
      <point x="35" y="54"/>
      <point x="98" y="-11"/>
      <point x="196" y="-11" type="curve" smooth="yes"/>
      <point x="256" y="-11"/>
      <point x="302" y="8"/>
      <point x="351" y="52" type="curve"/>
      <point x="340" y="0" type="line"/>
      <point x="452" y="0" type="line"/>
      <point x="600" y="700" type="line"/>
    </contour>
    <contour>
      <point x="309" y="378" type="curve" smooth="yes"/>
      <point x="363" y="378"/>
      <point x="398" y="340"/>
      <point x="398" y="281" type="curve" smooth="yes"/>
      <point x="398" y="165"/>
      <point x="328" y="71" name="hr02"/>
      <point x="243" y="71" type="curve" smooth="yes"/>
      <point x="187" y="71"/>
      <point x="155" y="107"/>
      <point x="155" y="170" type="curve" smooth="yes"/>
      <point x="155" y="212"/>
      <point x="173" y="273"/>
      <point x="197" y="310" type="curve" smooth="yes"/>
      <point x="226" y="355"/>
      <point x="264" y="378"/>
    </contour>
  </outline>
</glyph>
<glyph name="e" format="2">
  <advance width="512"/>
  <unicode hex="0065"/>
  <outline>
    <contour>
      <point x="337" y="133" type="line"/>
      <point x="315" y="87"/>
      <point x="279" y="62"/>
      <point x="233" y="62" type="curve" smooth="yes"/>
      <point x="179" y="62"/>
      <point x="146" y="98"/>
      <point x="146" y="156" type="curve" smooth="yes"/>
      <point x="146" y="171"/>
      <point x="148" y="183"/>
      <point x="153" y="207" type="curve"/>
      <point x="468" y="207" type="line"/>
      <point x="478" y="251"/>
      <point x="481" y="274"/>
      <point x="481" y="304" type="curve" smooth="yes"/>
      <point x="481" y="406"/>
      <point x="422" y="459"/>
      <point x="309" y="459" type="curve" smooth="yes"/>
      <point x="230" y="459"/>
      <point x="170" y="434"/>
      <point x="119" y="382" type="curve" smooth="yes"/>
      <point x="68" y="329"/>
      <point x="37" y="247"/>
      <point x="37" y="163" type="curve" smooth="yes"/>
      <point x="37" y="52"/>
      <point x="105" y="-11"/>
      <point x="227" y="-11" type="curve" smooth="yes"/>
      <point x="283" y="-11"/>
      <point x="332" y="2"/>
      <point x="373" y="27" type="curve" smooth="yes"/>
      <point x="404" y="47"/>
      <point x="421" y="67"/>
      <point x="444" y="109" type="curve"/>
    </contour>
    <contour>
      <point x="169" y="272" type="line"/>
      <point x="195" y="347"/>
      <point x="240" y="388"/>
      <point x="298" y="388" type="curve" smooth="yes"/>
      <point x="346" y="388"/>
      <point x="374" y="359"/>
      <point x="374" y="310" type="curve" smooth="yes"/>
      <point x="374" y="303"/>
      <point x="372" y="286"/>
      <point x="370" y="272" type="curve"/>
    </contour>
  </outline>
</glyph>
<glyph name="f" format="2">
  <advance width="314"/>
  <unicode hex="0066"/>
  <outline>
    <contour>
      <point x="32" y="0" type="line"/>
      <point x="143" y="0" type="line"/>
      <point x="219" y="358" type="line"/>
      <point x="335" y="358" type="line"/>
      <point x="354" y="448" type="line"/>
      <point x="238" y="448" type="line"/>
      <point x="247" y="491" type="line" smooth="yes"/>
      <point x="256.644" y="537.076"/>
      <point x="264" y="556"/>
      <point x="278" y="577" type="curve" smooth="yes"/>
      <point x="294" y="601"/>
      <point x="321" y="616"/>
      <point x="347" y="616" type="curve" smooth="yes"/>
      <point x="363" y="616"/>
      <point x="374" y="612"/>
      <point x="392" y="598" type="curve"/>
      <point x="432" y="681" type="line"/>
      <point x="397" y="696"/>
      <point x="375" y="701"/>
      <point x="342" y="701" type="curve" smooth="yes"/>
      <point x="285" y="701"/>
      <point x="237" y="681"/>
      <point x="201" y="642" type="curve" smooth="yes"/>
      <point x="170" y="608"/>
      <point x="153" y="568"/>
      <point x="138" y="498" type="curve" smooth="yes"/>
      <point x="127" y="448" type="line"/>
      <point x="66" y="448" type="line"/>
      <point x="47" y="358" type="line"/>
      <point x="108" y="358" type="line"/>
    </contour>
  </outline>
</glyph>
<glyph name="h" format="2">
  <advance width="552"/>
  <unicode hex="0068"/>
  <outline>
    <contour>
      <point x="22" y="0" type="line"/>
      <point x="133" y="0" type="line"/>
      <point x="185" y="242" type="line" smooth="yes"/>
      <point x="195" y="289"/>
      <point x="208" y="316"/>
      <point x="232" y="338" type="curve" smooth="yes"/>
      <point x="254" y="357"/>
      <point x="283" y="368"/>
      <point x="313" y="368" type="curve" smooth="yes"/>
      <point x="359" y="368"/>
      <point x="387" y="344"/>
      <point x="387" y="303" type="curve" smooth="yes"/>
      <point x="387" y="291"/>
      <point x="384" y="269"/>
      <point x="379" y="245" type="curve" smooth="yes"/>
      <point x="327" y="0" type="line"/>
      <point x="438" y="0" type="line"/>
      <point x="491" y="250" type="line" smooth="yes"/>
      <point x="499" y="287"/>
      <point x="502" y="308"/>
      <point x="502" y="326" type="curve" smooth="yes"/>
      <point x="502" y="405"/>
      <point x="448" y="456"/>
      <point x="365" y="456" type="curve" smooth="yes"/>
      <point x="309" y="456"/>
      <point x="263" y="439"/>
      <point x="219" y="402" type="curve"/>
      <point x="282" y="700" type="line"/>
      <point x="171" y="700" type="line"/>
    </contour>
  </outline>
</glyph>
<glyph name="i" format="2">
  <advance width="243"/>
  <unicode hex="0069"/>
  <outline>
    <contour>
      <point x="17" y="0" type="line"/>
      <point x="128" y="0" type="line"/>
      <point x="223" y="448" type="line"/>
      <point x="112" y="448" type="line"/>
    </contour>
    <contour>
      <point x="208" y="679" type="curve" smooth="yes"/>
      <point x="169" y="679"/>
      <point x="138" y="649"/>
      <point x="138" y="611" type="curve" smooth="yes"/>
      <point x="138" y="576"/>
      <point x="162" y="553"/>
      <point x="198" y="553" type="curve" smooth="yes"/>
      <point x="238" y="553"/>
      <point x="268" y="583"/>
      <point x="268" y="623" type="curve" smooth="yes"/>
      <point x="268" y="656"/>
      <point x="244" y="679"/>
    </contour>
  </outline>
</glyph>
<glyph name="j" format="2">
  <advance width="260"/>
  <unicode hex="006A"/>
  <outline>
    <contour>
      <point x="129" y="448" type="line"/>
      <point x="34" y="1" type="line" smooth="yes"/>
      <point x="22" y="-57"/>
      <point x="14" y="-78"/>
      <point x="-3" y="-99" type="curve" smooth="yes"/>
      <point x="-21" y="-122"/>
      <point x="-50" y="-134"/>
      <point x="-87" y="-134" type="curve" smooth="yes"/>
      <point x="-101" y="-134"/>
      <point x="-112" y="-133"/>
      <point x="-134" y="-130" type="curve"/>
      <point x="-120" y="-216" type="line"/>
      <point x="-106" y="-218"/>
      <point x="-99" y="-218"/>
      <point x="-88" y="-218" type="curve" smooth="yes"/>
      <point x="-36" y="-218"/>
      <point x="13" y="-207"/>
      <point x="45" y="-187" type="curve" smooth="yes"/>
      <point x="94" y="-157"/>
      <point x="123" y="-107"/>
      <point x="142" y="-18" type="curve" smooth="yes"/>
      <point x="241" y="448" type="line"/>
    </contour>
    <contour>
      <point x="225" y="680" type="curve" smooth="yes"/>
      <point x="186" y="680"/>
      <point x="155" y="650"/>
      <point x="155" y="612" type="curve" smooth="yes"/>
      <point x="155" y="577"/>
      <point x="179" y="554"/>
      <point x="215" y="554" type="curve" smooth="yes"/>
      <point x="255" y="554"/>
      <point x="285" y="583"/>
      <point x="285" y="624" type="curve" smooth="yes"/>
      <point x="285" y="657"/>
      <point x="261" y="680"/>
    </contour>
  </outline>
</glyph>
<glyph name="k" format="2">
  <advance width="473"/>
  <unicode hex="006B"/>
  <outline>
    <contour>
      <point x="22" y="0" type="line"/>
      <point x="133" y="0" type="line"/>
      <point x="182" y="228" type="line"/>
      <point x="302" y="0" type="line"/>
      <point x="431" y="0" type="line"/>
      <point x="297" y="245" type="line"/>
      <point x="506" y="448" type="line"/>
      <point x="378" y="448" type="line"/>
      <point x="186" y="249" type="line"/>
      <point x="282" y="700" type="line"/>
      <point x="171" y="700" type="line"/>
    </contour>
  </outline>
</glyph>
<glyph name="l" format="2">
  <advance width="248"/>
  <unicode hex="006C"/>
  <outline>
    <contour>
      <point x="22" y="0" type="line"/>
      <point x="133" y="0" type="line"/>
      <point x="282" y="700" type="line"/>
      <point x="171" y="700" type="line"/>
    </contour>
  </outline>
</glyph>
<glyph name="m" format="2">
  <advance width="836"/>
  <unicode hex="006D"/>
  <outline>
    <contour>
      <point x="22" y="0" type="line"/>
      <point x="133" y="0" type="line"/>
      <point x="182" y="227" type="line" smooth="yes"/>
      <point x="195" y="288"/>
      <point x="203" y="309"/>
      <point x="224" y="333" type="curve" smooth="yes"/>
      <point x="244" y="356"/>
      <point x="275" y="370"/>
      <point x="307" y="370" type="curve" smooth="yes"/>
      <point x="350" y="370"/>
      <point x="377" y="345"/>
      <point x="377" y="307" type="curve" smooth="yes"/>
      <point x="377" y="289"/>
      <point x="374" y="270"/>
      <point x="365" y="226" type="curve" smooth="yes"/>
      <point x="317" y="0" type="line"/>
      <point x="428" y="0" type="line"/>
      <point x="476" y="229" type="line" smooth="yes"/>
      <point x="490" y="294"/>
      <point x="494" y="305"/>
      <point x="514" y="329" type="curve" smooth="yes"/>
      <point x="535" y="356"/>
      <point x="566" y="370"/>
      <point x="601" y="370" type="curve" smooth="yes"/>
      <point x="645" y="370"/>
      <point x="672" y="346"/>
      <point x="672" y="307" type="curve" smooth="yes"/>
      <point x="672" y="290"/>
      <point x="671" y="282"/>
      <point x="658" y="224" type="curve"/>
      <point x="611" y="0" type="line"/>
      <point x="722" y="0" type="line"/>
      <point x="769" y="222" type="line" smooth="yes"/>
      <point x="789" y="316"/>
      <point x="790" y="321"/>
      <point x="790" y="347" type="curve" smooth="yes"/>
      <point x="790" y="411"/>
      <point x="730" y="459"/>
      <point x="651" y="459" type="curve" smooth="yes"/>
      <point x="593" y="459"/>
      <point x="549" y="440"/>
      <point x="489" y="389" type="curve"/>
      <point x="460" y="440"/>
      <point x="425" y="459"/>
      <point x="363" y="459" type="curve" smooth="yes"/>
      <point x="307" y="459"/>
      <point x="273" y="445"/>
      <point x="218" y="399" type="curve"/>
      <point x="228" y="448" type="line" name="hr01"/>
      <point x="117" y="448" type="line"/>
    </contour>
  </outline>
</glyph>
<glyph name="n" format="2">
  <advance width="552"/>
  <unicode hex="006E"/>
  <outline>
    <contour>
      <point x="22" y="0" type="line"/>
      <point x="133" y="0" type="line"/>
      <point x="185" y="242" type="line" smooth="yes"/>
      <point x="195" y="289"/>
      <point x="208" y="316"/>
      <point x="232" y="338" type="curve" smooth="yes"/>
      <point x="254" y="357"/>
      <point x="283" y="368"/>
      <point x="313" y="368" type="curve" smooth="yes"/>
      <point x="359" y="368"/>
      <point x="387" y="344"/>
      <point x="387" y="303" type="curve" smooth="yes"/>
      <point x="387" y="291"/>
      <point x="384" y="270"/>
      <point x="379" y="245" type="curve" smooth="yes"/>
      <point x="327" y="0" type="line"/>
      <point x="438" y="0" type="line"/>
      <point x="491" y="250" type="line" smooth="yes"/>
      <point x="499" y="287"/>
      <point x="502" y="308"/>
      <point x="502" y="326" type="curve" smooth="yes"/>
      <point x="502" y="405"/>
      <point x="448" y="456"/>
      <point x="365" y="456" type="curve" smooth="yes"/>
      <point x="309" y="456"/>
      <point x="263" y="439"/>
      <point x="219" y="402" type="curve"/>
      <point x="228" y="448" type="line"/>
      <point x="117" y="448" type="line"/>
    </contour>
  </outline>
</glyph>
<glyph name="o" format="2">
  <advance width="547"/>
  <unicode hex="006F"/>
  <outline>
    <contour>
      <point x="315" y="459" type="curve" smooth="yes"/>
      <point x="238" y="459"/>
      <point x="175" y="437"/>
      <point x="128" y="392" type="curve"/>
      <point x="74" y="343"/>
      <point x="36" y="248"/>
      <point x="36" y="166" type="curve" smooth="yes"/>
      <point x="36" y="48"/>
      <point x="103" y="-11"/>
      <point x="236" y="-11" type="curve" smooth="yes"/>
      <point x="316" y="-11"/>
      <point x="379" y="13"/>
      <point x="427" y="61" type="curve" smooth="yes"/>
      <point x="480" y="113"/>
      <point x="514" y="205"/>
      <point x="514" y="291" type="curve" smooth="yes"/>
      <point x="514" y="399"/>
      <point x="443" y="459"/>
    </contour>
    <contour>
      <point x="309" y="378" type="curve" smooth="yes"/>
      <point x="363" y="378"/>
      <point x="396" y="342"/>
      <point x="396" y="285" type="curve" smooth="yes"/>
      <point x="396" y="238"/>
      <point x="380" y="181"/>
      <point x="357" y="142" type="curve" smooth="yes"/>
      <point x="328" y="94"/>
      <point x="288" y="69"/>
      <point x="241" y="69" type="curve" smooth="yes"/>
      <point x="185" y="69"/>
      <point x="154" y="104"/>
      <point x="154" y="166" type="curve" smooth="yes"/>
      <point x="154" y="208"/>
      <point x="172" y="268"/>
      <point x="195" y="306" type="curve" smooth="yes"/>
      <point x="224" y="353"/>
      <point x="263" y="378"/>
    </contour>
  </outline>
</glyph>
<glyph name="p" format="2">
  <advance width="567"/>
  <unicode hex="0070"/>
  <outline>
    <contour>
      <point x="86" y="-218" type="line"/>
      <point x="143" y="50" type="line"/>
      <point x="185" y="5"/>
      <point x="219" y="-11"/>
      <point x="275" y="-11" type="curve" smooth="yes"/>
      <point x="347" y="-11"/>
      <point x="416" y="22"/>
      <point x="461" y="77" type="curve" smooth="yes"/>
      <point x="505" y="131"/>
      <point x="534" y="219"/>
      <point x="534" y="296" type="curve" smooth="yes"/>
      <point x="534" y="394"/>
      <point x="468" y="459"/>
      <point x="368" y="459" type="curve" smooth="yes"/>
      <point x="314" y="459"/>
      <point x="272" y="442"/>
      <point x="218" y="400" type="curve"/>
      <point x="228" y="448" type="line" name="hr01"/>
      <point x="117" y="448" type="line"/>
      <point x="-25" y="-218" type="line"/>
    </contour>
    <contour>
      <point x="326" y="377" type="curve" smooth="yes" name="hr02"/>
      <point x="382" y="377"/>
      <point x="414" y="340"/>
      <point x="414" y="277" type="curve" smooth="yes"/>
      <point x="414" y="240"/>
      <point x="398" y="183"/>
      <point x="378" y="148" type="curve" smooth="yes"/>
      <point x="350" y="98"/>
      <point x="308" y="71"/>
      <point x="260" y="71" type="curve" smooth="yes"/>
      <point x="204" y="71"/>
      <point x="171" y="108"/>
      <point x="171" y="170" type="curve" smooth="yes"/>
      <point x="171" y="215"/>
      <point x="187" y="270"/>
      <point x="210" y="307" type="curve" smooth="yes"/>
      <point x="239" y="352"/>
      <point x="280" y="377"/>
    </contour>
  </outline>
</glyph>
<glyph name="q" format="2">
  <advance width="567"/>
  <unicode hex="0071"/>
  <outline>
    <contour>
      <point x="464" y="448" type="line"/>
      <point x="426" y="401" type="line"/>
      <point x="389" y="442"/>
      <point x="350" y="459"/>
      <point x="295" y="459" type="curve" smooth="yes"/>
      <point x="150" y="459"/>
      <point x="35" y="324"/>
      <point x="35" y="154" type="curve" smooth="yes"/>
      <point x="35" y="54"/>
      <point x="97" y="-11"/>
      <point x="195" y="-11" type="curve" smooth="yes"/>
      <point x="256" y="-11"/>
      <point x="301" y="7"/>
      <point x="352" y="52" type="curve"/>
      <point x="294" y="-218" type="line"/>
      <point x="405" y="-218" type="line"/>
      <point x="547" y="448" type="line"/>
    </contour>
    <contour>
      <point x="309" y="377" type="curve" smooth="yes"/>
      <point x="363" y="377"/>
      <point x="398" y="339" name="hr01"/>
      <point x="398" y="281" type="curve" smooth="yes"/>
      <point x="398" y="165"/>
      <point x="328" y="71"/>
      <point x="243" y="71" type="curve" smooth="yes"/>
      <point x="187" y="71"/>
      <point x="155" y="107"/>
      <point x="155" y="169" type="curve" smooth="yes"/>
      <point x="155" y="210"/>
      <point x="174" y="272"/>
      <point x="197" y="309" type="curve" smooth="yes"/>
      <point x="226" y="354"/>
      <point x="264" y="377"/>
    </contour>
  </outline>
</glyph>
<glyph name="u" format="2">
  <advance width="553"/>
  <unicode hex="0075"/>
  <outline>
    <contour>
      <point x="117" y="448" type="line"/>
      <point x="63" y="193" type="line" smooth="yes"/>
      <point x="56" y="160"/>
      <point x="51" y="126"/>
      <point x="51" y="106" type="curve" smooth="yes"/>
      <point x="51" y="36"/>
      <point x="106" y="-11"/>
      <point x="188" y="-11" type="curve" smooth="yes"/>
      <point x="243" y="-11"/>
      <point x="283" y="6"/>
      <point x="337" y="50" type="curve"/>
      <point x="326" y="0" type="line"/>
      <point x="438" y="0" type="line"/>
      <point x="533" y="448" type="line"/>
      <point x="422" y="448" type="line"/>
      <point x="371" y="212" type="line"/>
      <point x="361" y="162"/>
      <point x="350" y="137"/>
      <point x="327" y="114" type="curve" smooth="yes"/>
      <point x="304" y="91"/>
      <point x="272" y="77"/>
      <point x="239" y="77" type="curve" smooth="yes"/>
      <point x="193" y="77"/>
      <point x="167" y="101"/>
      <point x="167" y="142" type="curve" smooth="yes"/>
      <point x="167" y="157"/>
      <point x="169" y="172"/>
      <point x="178" y="211" type="curve"/>
      <point x="228" y="448" type="line"/>
    </contour>
  </outline>
</glyph>
<glyph name="v" format="2">
  <advance width="454"/>
  <unicode hex="0076"/>
  <outline>
    <contour>
      <point x="123" y="0" type="line"/>
      <point x="228" y="0" type="line"/>
      <point x="508" y="448" type="line"/>
      <point x="391" y="448" type="line"/>
      <point x="213" y="148" type="line"/>
      <point x="171" y="448" type="line"/>
      <point x="55" y="448" type="line"/>
    </contour>
  </outline>
</glyph>
<glyph name="w" format="2">
  <advance width="727"/>
  <unicode hex="0077"/>
  <outline>
    <contour>
      <point x="104" y="0" type="line"/>
      <point x="217" y="0" type="line"/>
      <point x="383" y="297" type="line"/>
      <point x="408" y="0" type="line"/>
      <point x="522" y="0" type="line"/>
      <point x="768" y="448" type="line"/>
      <point x="654" y="448" type="line"/>
      <point x="496" y="144" type="line"/>
      <point x="469" y="448" type="line"/>
      <point x="373" y="448" type="line"/>
      <point x="204" y="150" type="line"/>
      <point x="182" y="448" type="line"/>
      <point x="68" y="448" type="line"/>
    </contour>
  </outline>
</glyph>
<glyph name="x" format="2">
  <advance width="427"/>
  <unicode hex="0078"/>
  <outline>
    <contour>
      <point x="-56" y="0" type="line"/>
      <point x="72" y="0" type="line"/>
      <point x="199" y="153" type="line"/>
      <point x="258" y="0" type="line"/>
      <point x="376" y="0" type="line"/>
      <point x="280" y="234" type="line"/>
      <point x="468" y="448" type="line"/>
      <point x="346" y="448" type="line"/>
      <point x="238" y="324" type="line"/>
      <point x="191" y="448" type="line"/>
      <point x="72" y="448" type="line"/>
      <point x="156" y="239" type="line"/>
    </contour>
  </outline>
</glyph>
<glyph name="y" format="2">
  <advance width="459"/>
  <unicode hex="0079"/>
  <outline>
    <contour>
      <point x="56" y="448" type="line"/>
      <point x="130" y="18" type="line"/>
      <point x="94" y="-38" type="line" smooth="yes"/>
      <point x="49" y="-110"/>
      <point x="17" y="-135"/>
      <point x="-29" y="-135" type="curve" smooth="yes"/>
      <point x="-48" y="-135"/>
      <point x="-65" y="-132"/>
      <point x="-105" y="-120" type="curve"/>
      <point x="-105" y="-211" type="line"/>
      <point x="-68" y="-222"/>
      <point x="-51" y="-225"/>
      <point x="-25" y="-225" type="curve" smooth="yes"/>
      <point x="70" y="-225"/>
      <point x="104" y="-195"/>
      <point x="232" y="5" type="curve" smooth="yes"/>
      <point x="516" y="448" type="line"/>
      <point x="398" y="448" type="line"/>
      <point x="219" y="151" type="line"/>
      <point x="174" y="448" type="line"/>
    </contour>
  </outline>
</glyph>
<glyph name="braceleft" format="2">
  <advance width="267"/>
  <unicode hex="007B"/>
  <outline>
    <contour>
      <point x="340" y="696" type="line"/>
      <point x="310" y="696" type="line" smooth="yes"/>
      <point x="257" y="696"/>
      <point x="223" y="686"/>
      <point x="196" y="662" type="curve" smooth="yes"/>
      <point x="165" y="634"/>
      <point x="151" y="605"/>
      <point x="135" y="528" type="curve" smooth="yes"/>
      <point x="117" y="445" type="line" smooth="yes"/>
      <point x="98" y="353"/>
      <point x="70" y="319"/>
      <point x="11" y="317" type="curve"/>
      <point x="6" y="294" type="line"/>
      <point x="56" y="291"/>
      <point x="71" y="279"/>
      <point x="71" y="245" type="curve" smooth="yes"/>
      <point x="71" y="234"/>
      <point x="68" y="212"/>
      <point x="63" y="191" type="curve"/>
      <point x="32" y="42" type="line"/>
      <point x="28" y="26"/>
      <point x="26" y="9" name="hr01"/>
      <point x="26" y="-2" type="curve" smooth="yes"/>
      <point x="26" y="-55"/>
      <point x="72" y="-87"/>
      <point x="148" y="-87" type="curve" smooth="yes"/>
      <point x="156" y="-87"/>
      <point x="156" y="-87"/>
      <point x="174" y="-86" type="curve"/>
      <point x="179" y="-63" type="line"/>
      <point x="130" y="-56"/>
      <point x="111" y="-38"/>
      <point x="111" y="3" type="curve" smooth="yes"/>
      <point x="111" y="14"/>
      <point x="114" y="37"/>
      <point x="118" y="57" type="curve" smooth="yes"/>
      <point x="143" y="172" type="line" smooth="yes"/>
      <point x="148" y="195"/>
      <point x="151" y="218" name="hr02"/>
      <point x="151" y="230" type="curve" smooth="yes"/>
      <point x="151" y="270"/>
      <point x="129" y="294"/>
      <point x="83" y="307" type="curve"/>
      <point x="162" y="335"/>
      <point x="184" y="364"/>
      <point x="205" y="462" type="curve" smooth="yes"/>
      <point x="219" y="528" type="line"/>
      <point x="236" y="624"/>
      <point x="270" y="666"/>
      <point x="335" y="672" type="curve"/>
    </contour>
  </outline>
</glyph>
<glyph name="bar" format="2">
  <advance width="563"/>
  <unicode hex="007C"/>
  <outline>
    <contour>
      <point x="259" y="667" type="line"/>
      <point x="259" y="-167" type="line"/>
      <point x="317" y="-167" type="line"/>
      <point x="317" y="667" type="line"/>
    </contour>
  </outline>
</glyph>
<glyph name="braceright" format="2">
  <advance width="267"/>
  <unicode hex="007D"/>
  <outline>
    <contour>
      <point x="96" y="672" type="line"/>
      <point x="138" y="668"/>
      <point x="162" y="643"/>
      <point x="162" y="602" type="curve" smooth="yes"/>
      <point x="162" y="586"/>
      <point x="158" y="558"/>
      <point x="152" y="528" type="curve" smooth="yes"/>
      <point x="138" y="462" type="line" smooth="yes"/>
      <point x="131" y="432"/>
      <point x="128" y="409" name="hr01"/>
      <point x="128" y="394" type="curve" smooth="yes"/>
      <point x="128" y="348"/>
      <point x="141" y="330"/>
      <point x="193" y="307" type="curve"/>
      <point x="124" y="291"/>
      <point x="91" y="253"/>
      <point x="76" y="172" type="curve"/>
      <point x="52" y="57" type="line" smooth="yes"/>
      <point x="36" y="-24"/>
      <point x="7" y="-55"/>
      <point x="-60" y="-63" type="curve"/>
      <point x="-65" y="-86" type="line"/>
      <point x="-47" y="-87"/>
      <point x="-47" y="-87"/>
      <point x="-39" y="-87" type="curve" smooth="yes"/>
      <point x="-7" y="-87"/>
      <point x="28" y="-80"/>
      <point x="51" y="-70" type="curve"/>
      <point x="96" y="-48"/>
      <point x="120" y="-16"/>
      <point x="132" y="42" type="curve" smooth="yes"/>
      <point x="164" y="191" type="line" smooth="yes"/>
      <point x="181" y="272"/>
      <point x="199" y="291"/>
      <point x="265" y="294" type="curve"/>
      <point x="270" y="317" type="line"/>
      <point x="227" y="319"/>
      <point x="209" y="337"/>
      <point x="209" y="378" type="curve" smooth="yes"/>
      <point x="209" y="394"/>
      <point x="212" y="420"/>
      <point x="218" y="445" type="curve"/>
      <point x="235" y="528" type="line" smooth="yes"/>
      <point x="242" y="562"/>
      <point x="247" y="595" name="hr02"/>
      <point x="247" y="612" type="curve" smooth="yes"/>
      <point x="247" y="641"/>
      <point x="234" y="667"/>
      <point x="212" y="680" type="curve" smooth="yes"/>
      <point x="194" y="691"/>
      <point x="169" y="696"/>
      <point x="131" y="696" type="curve" smooth="yes"/>
      <point x="101" y="696" type="line"/>
    </contour>
  </outline>
</glyph>
<glyph name="asciitilde" format="2">
  <advance width="482"/>
  <unicode hex="007E"/>
  <outline>
    <contour>
      <point x="139" y="590" type="line"/>
      <point x="170" y="619"/>
      <point x="200" y="633"/>
      <point x="231" y="633" type="curve" smooth="yes"/>
      <point x="248" y="633"/>
      <point x="270" y="628"/>
      <point x="317" y="611" type="curve" smooth="yes"/>
      <point x="368" y="593"/>
      <point x="389" y="588" name="hr01"/>
      <point x="415" y="588" type="curve" smooth="yes"/>
      <point x="460" y="588"/>
      <point x="501" y="608"/>
      <point x="541" y="648" type="curve"/>
      <point x="529" y="702" type="line"/>
      <point x="491" y="664"/>
      <point x="460" y="649"/>
      <point x="423" y="649" type="curve" smooth="yes"/>
      <point x="401" y="649"/>
      <point x="378" y="655"/>
      <point x="333" y="671" type="curve" smooth="yes"/>
      <point x="287" y="688"/>
      <point x="264" y="694" name="hr02"/>
      <point x="241" y="694" type="curve" smooth="yes"/>
      <point x="202" y="694"/>
      <point x="166" y="678"/>
      <point x="122" y="641" type="curve"/>
    </contour>
  </outline>
</glyph>
<glyph name="exclamdown" format="2">
  <advance width="265"/>
  <unicode hex="00A1"/>
  <outline>
    <contour>
      <point x="176" y="257" type="line"/>
      <point x="108" y="257" type="line"/>
      <point x="29" y="-14" type="line"/>
      <point x="-10" y="-201" type="line"/>
      <point x="101" y="-201" type="line"/>
      <point x="136" y="-37" type="line"/>
    </contour>
    <contour>
      <point x="179" y="478" type="curve" smooth="yes"/>
      <point x="136" y="478"/>
      <point x="105" y="447"/>
      <point x="105" y="405" type="curve" smooth="yes"/>
      <point x="105" y="369"/>
      <point x="130" y="345"/>
      <point x="168" y="345" type="curve" smooth="yes"/>
      <point x="209" y="345"/>
      <point x="241" y="376"/>
      <point x="241" y="416" type="curve" smooth="yes"/>
      <point x="241" y="454"/>
      <point x="217" y="478"/>
    </contour>
  </outline>
</glyph>
<glyph name="cent" format="2">
  <advance width="564"/>
  <unicode hex="00A2"/>
  <outline>
    <contour>
      <point x="544" y="462" type="line"/>
      <point x="531" y="531"/>
      <point x="488" y="562"/>
      <point x="394" y="569" type="curve"/>
      <point x="412" y="653" type="line"/>
      <point x="375" y="653" type="line"/>
      <point x="358" y="569" type="line"/>
      <point x="296" y="566"/>
      <point x="258" y="554"/>
      <point x="217" y="526" type="curve" smooth="yes"/>
      <point x="145" y="477"/>
      <point x="97" y="372"/>
      <point x="97" y="268" type="curve" smooth="yes"/>
      <point x="97" y="209"/>
      <point x="117" y="162"/>
      <point x="154" y="135" type="curve" smooth="yes"/>
      <point x="178" y="117"/>
      <point x="208" y="108"/>
      <point x="258" y="102" type="curve"/>
      <point x="238" y="5" type="line"/>
      <point x="274" y="5" type="line"/>
      <point x="295" y="102" type="line"/>
      <point x="383" y="106"/>
      <point x="432" y="130"/>
      <point x="486" y="199" type="curve"/>
      <point x="408" y="244" type="line"/>
      <point x="380" y="200"/>
      <point x="346" y="175"/>
      <point x="310" y="173" type="curve"/>
      <point x="379" y="499" type="line"/>
      <point x="420" y="496"/>
      <point x="439" y="475"/>
      <point x="449" y="425" type="curve"/>
    </contour>
    <contour>
      <point x="274" y="174" type="line"/>
      <point x="228" y="181"/>
      <point x="204" y="215"/>
      <point x="204" y="273" type="curve" smooth="yes"/>
      <point x="204" y="330"/>
      <point x="226" y="403"/>
      <point x="256" y="444" type="curve" smooth="yes"/>
      <point x="280" y="478"/>
      <point x="307" y="495"/>
      <point x="343" y="500" type="curve"/>
    </contour>
  </outline>
</glyph>
<glyph name="sterling" format="2">
  <advance width="564"/>
  <unicode hex="00A3"/>
  <outline>
    <contour>
      <point x="-2" y="0" type="line"/>
      <point x="472" y="0" type="line"/>
      <point x="489" y="92" type="line"/>
      <point x="166" y="92" type="line"/>
      <point x="213" y="121"/>
      <point x="251" y="187"/>
      <point x="271" y="271" type="curve" smooth="yes"/>
      <point x="280" y="310" type="line"/>
      <point x="451" y="310" type="line"/>
      <point x="463" y="391" type="line"/>
      <point x="298" y="391" type="line"/>
      <point x="313" y="454" type="line"/>
      <point x="333" y="547"/>
      <point x="378" y="594"/>
      <point x="444" y="594" type="curve" smooth="yes"/>
      <point x="481" y="594"/>
      <point x="510" y="582"/>
      <point x="540" y="554" type="curve"/>
      <point x="567" y="641" type="line"/>
      <point x="532" y="668"/>
      <point x="488" y="681"/>
      <point x="437" y="681" type="curve" smooth="yes"/>
      <point x="376" y="681"/>
      <point x="322" y="658"/>
      <point x="277" y="613" type="curve" smooth="yes"/>
      <point x="244" y="579"/>
      <point x="215" y="517"/>
      <point x="201" y="449" type="curve" smooth="yes"/>
      <point x="189" y="391" type="line"/>
      <point x="102" y="391" type="line"/>
      <point x="88" y="310" type="line"/>
      <point x="171" y="310" type="line"/>
      <point x="162" y="258" type="line"/>
      <point x="136" y="138"/>
      <point x="96" y="92"/>
      <point x="14" y="91" type="curve"/>
    </contour>
  </outline>
</glyph>
<glyph name="currency" format="2">
  <advance width="521"/>
  <unicode hex="00A4"/>
  <outline>
    <contour>
      <point x="30" y="421" type="line"/>
      <point x="131" y="323" type="line"/>
      <point x="110" y="293"/>
      <point x="102" y="267"/>
      <point x="102" y="234" type="curve" smooth="yes"/>
      <point x="102" y="201"/>
      <point x="110" y="175"/>
      <point x="131" y="141" type="curve"/>
      <point x="30" y="42" type="line"/>
      <point x="70" y="-1" type="line"/>
      <point x="170" y="101" type="line"/>
      <point x="205" y="79"/>
      <point x="231" y="71"/>
      <point x="266" y="71" type="curve" smooth="yes"/>
      <point x="300" y="71"/>
      <point x="325" y="79"/>
      <point x="355" y="100" type="curve"/>
      <point x="454" y="-2" type="line"/>
      <point x="495" y="38" type="line"/>
      <point x="395" y="140" type="line"/>
      <point x="416" y="170"/>
      <point x="424" y="197"/>
      <point x="424" y="231" type="curve" smooth="yes"/>
      <point x="424" y="265"/>
      <point x="416" y="292"/>
      <point x="395" y="323" type="curve"/>
      <point x="492" y="421" type="line"/>
      <point x="452" y="461" type="line"/>
      <point x="354" y="364" type="line"/>
      <point x="320" y="384"/>
      <point x="295" y="392"/>
      <point x="263" y="392" type="curve" smooth="yes"/>
      <point x="231" y="392"/>
      <point x="207" y="384"/>
      <point x="171" y="363" type="curve"/>
      <point x="72" y="463" type="line"/>
    </contour>
    <contour>
      <point x="264" y="342" type="curve" smooth="yes"/>
      <point x="325" y="342"/>
      <point x="374" y="293"/>
      <point x="374" y="232" type="curve" smooth="yes"/>
      <point x="374" y="170"/>
      <point x="326" y="121"/>
      <point x="265" y="121" type="curve" smooth="yes"/>
      <point x="202" y="121"/>
      <point x="153" y="171"/>
      <point x="153" y="234" type="curve" smooth="yes"/>
      <point x="153" y="293"/>
      <point x="203" y="342"/>
    </contour>
  </outline>
</glyph>
<glyph name="yen" format="2">
  <advance width="588"/>
  <unicode hex="00A5"/>
  <outline>
    <contour>
      <point x="300" y="0" type="line"/>
      <point x="350" y="237" type="line"/>
      <point x="553" y="237" type="line"/>
      <point x="563" y="281" type="line"/>
      <point x="357" y="281" type="line"/>
      <point x="424" y="371" type="line"/>
      <point x="579" y="371" type="line"/>
      <point x="588" y="414" type="line"/>
      <point x="460" y="414" type="line"/>
      <point x="664" y="667" type="line"/>
      <point x="538" y="667" type="line"/>
      <point x="327" y="396" type="line"/>
      <point x="231" y="667" type="line"/>
      <point x="102" y="667" type="line"/>
      <point x="199" y="414" type="line"/>
      <point x="80" y="414" type="line"/>
      <point x="70" y="371" type="line"/>
      <point x="217" y="371" type="line"/>
      <point x="248" y="281" type="line"/>
      <point x="55" y="281" type="line"/>
      <point x="45" y="237" type="line"/>
      <point x="236" y="237" type="line"/>
      <point x="185" y="0" type="line"/>
    </contour>
  </outline>
</glyph>
<glyph name="brokenbar" format="2">
  <advance width="563"/>
  <unicode hex="00A6"/>
  <outline>
    <contour>
      <point x="250" y="667" type="line"/>
      <point x="250" y="324" type="line"/>
      <point x="361" y="324" type="line"/>
      <point x="361" y="667" type="line"/>
    </contour>
    <contour>
      <point x="250" y="153" type="line"/>
      <point x="250" y="-167" type="line"/>
      <point x="361" y="-167" type="line"/>
      <point x="361" y="153" type="line"/>
    </contour>
  </outline>
</glyph>
<glyph name="section" format="2">
  <advance width="536"/>
  <unicode hex="00A7"/>
  <outline>
    <contour>
      <point x="-14" y="8" type="line"/>
      <point x="-4" y="-33"/>
      <point x="6" y="-55"/>
      <point x="25" y="-77" type="curve" smooth="yes"/>
      <point x="59" y="-115"/>
      <point x="119" y="-137"/>
      <point x="192" y="-137" type="curve" smooth="yes"/>
      <point x="327" y="-137"/>
      <point x="425" y="-60"/>
      <point x="425" y="46" type="curve" smooth="yes"/>
      <point x="425" y="75"/>
      <point x="419" y="96"/>
      <point x="404" y="126" type="curve"/>
      <point x="465" y="157"/>
      <point x="500" y="210" name="hr01"/>
      <point x="500" y="271" type="curve" smooth="yes"/>
      <point x="500" y="342"/>
      <point x="458" y="390"/>
      <point x="360" y="430" type="curve" smooth="yes"/>
      <point x="312" y="450" name="hr02"/>
      <point x="288" y="461"/>
      <point x="277" y="470" type="curve" smooth="yes"/>
      <point x="255" y="486"/>
      <point x="245" y="505"/>
      <point x="245" y="529" type="curve" smooth="yes"/>
      <point x="245" y="581"/>
      <point x="289" y="619"/>
      <point x="350" y="619" type="curve" smooth="yes"/>
      <point x="407" y="619"/>
      <point x="446" y="590"/>
      <point x="452" y="542" type="curve"/>
      <point x="553" y="580" type="line"/>
      <point x="525" y="660"/>
      <point x="461" y="699"/>
      <point x="357" y="699" type="curve" smooth="yes"/>
      <point x="229" y="699"/>
      <point x="135" y="622"/>
      <point x="135" y="518" type="curve" smooth="yes"/>
      <point x="135" y="493"/>
      <point x="139" y="475"/>
      <point x="151" y="452" type="curve"/>
      <point x="82" y="412"/>
      <point x="51" y="367" name="hr03"/>
      <point x="51" y="306" type="curve" smooth="yes"/>
      <point x="51" y="234"/>
      <point x="91" y="190"/>
      <point x="199" y="142" type="curve" smooth="yes"/>
      <point x="263" y="114"/>
      <point x="266" y="113"/>
      <point x="275" y="106" type="curve" smooth="yes"/>
      <point x="300" y="89"/>
      <point x="312" y="67"/>
      <point x="312" y="40" type="curve" smooth="yes"/>
      <point x="312" y="-11"/>
      <point x="267" y="-46"/>
      <point x="203" y="-46" type="curve" smooth="yes"/>
      <point x="136" y="-46"/>
      <point x="97" y="-16"/>
      <point x="91" y="43" type="curve"/>
    </contour>
    <contour>
      <point x="359" y="172" type="curve"/>
      <point x="339" y="189"/>
      <point x="323" y="197"/>
      <point x="269" y="222" type="curve"/>
      <point x="169" y="265"/>
      <point x="143" y="287"/>
      <point x="143" y="327" type="curve" smooth="yes"/>
      <point x="143" y="358"/>
      <point x="161" y="384"/>
      <point x="196" y="404" type="curve"/>
      <point x="214" y="390"/>
      <point x="234" y="379"/>
      <point x="278" y="358" type="curve"/>
      <point x="384" y="310"/>
      <point x="405" y="292" name="hr04"/>
      <point x="405" y="250" type="curve" smooth="yes"/>
      <point x="405" y="220"/>
      <point x="390" y="194"/>
    </contour>
  </outline>
</glyph>
<glyph name="dieresis" format="2">
  <advance width="500"/>
  <unicode hex="00A8"/>
  <outline>
    <contour>
      <point x="237" y="679" type="curve" smooth="yes"/>
      <point x="198" y="679"/>
      <point x="167" y="649"/>
      <point x="167" y="611" type="curve" smooth="yes"/>
      <point x="167" y="576"/>
      <point x="191" y="553"/>
      <point x="227" y="553" type="curve" smooth="yes"/>
      <point x="267" y="553"/>
      <point x="297" y="582"/>
      <point x="297" y="623" type="curve" smooth="yes"/>
      <point x="297" y="656"/>
      <point x="273" y="679"/>
    </contour>
    <contour>
      <point x="434" y="679" type="curve" smooth="yes"/>
      <point x="395" y="679"/>
      <point x="364" y="649"/>
      <point x="364" y="611" type="curve" smooth="yes"/>
      <point x="364" y="576"/>
      <point x="388" y="553"/>
      <point x="424" y="553" type="curve" smooth="yes"/>
      <point x="464" y="553"/>
      <point x="494" y="582"/>
      <point x="494" y="622" type="curve" smooth="yes"/>
      <point x="494" y="656"/>
      <point x="470" y="679"/>
    </contour>
  </outline>
</glyph>
<glyph name="copyright" format="2">
  <advance width="769"/>
  <unicode hex="00A9"/>
  <outline>
    <contour>
      <point x="576" y="455" type="line"/>
      <point x="533" y="519"/>
      <point x="500" y="537"/>
      <point x="422" y="537" type="curve" smooth="yes"/>
      <point x="294" y="537"/>
      <point x="213" y="458"/>
      <point x="213" y="333" type="curve" smooth="yes"/>
      <point x="213" y="269"/>
      <point x="235" y="214"/>
      <point x="274" y="178" type="curve" smooth="yes"/>
      <point x="308" y="147"/>
      <point x="352" y="133"/>
      <point x="415" y="133" type="curve" smooth="yes"/>
      <point x="496" y="133"/>
      <point x="533" y="152"/>
      <point x="576" y="215" type="curve"/>
      <point x="512" y="253" type="line"/>
      <point x="493" y="209"/>
      <point x="466" y="192"/>
      <point x="417" y="192" type="curve" smooth="yes"/>
      <point x="340" y="192"/>
      <point x="295" y="244"/>
      <point x="295" y="331" type="curve" smooth="yes"/>
      <point x="295" y="422"/>
      <point x="342" y="478"/>
      <point x="418" y="478" type="curve" smooth="yes"/>
      <point x="468" y="478"/>
      <point x="496" y="460"/>
      <point x="512" y="417" type="curve"/>
    </contour>
    <contour>
      <point x="414" y="681" type="curve" smooth="yes"/>
      <point x="217" y="681"/>
      <point x="62" y="527"/>
      <point x="62" y="333" type="curve" smooth="yes"/>
      <point x="62" y="142"/>
      <point x="218" y="-14"/>
      <point x="409" y="-14" type="curve" smooth="yes"/>
      <point x="600" y="-14"/>
      <point x="755" y="142"/>
      <point x="755" y="333" type="curve" smooth="yes"/>
      <point x="755" y="523"/>
      <point x="600" y="681"/>
    </contour>
    <contour>
      <point x="413" y="630" type="curve" smooth="yes"/>
      <point x="569" y="630"/>
      <point x="699" y="495"/>
      <point x="699" y="333" type="curve" smooth="yes"/>
      <point x="699" y="170"/>
      <point x="569" y="37"/>
      <point x="409" y="37" type="curve" smooth="yes"/>
      <point x="249" y="37"/>
      <point x="118" y="171"/>
      <point x="118" y="333" type="curve" smooth="yes"/>
      <point x="118" y="499"/>
      <point x="248" y="630"/>
    </contour>
  </outline>
</glyph>
<glyph name="ordfeminine" format="2">
  <advance width="351"/>
  <unicode hex="00AA"/>
  <outline>
    <contour>
      <point x="328" y="667" type="line"/>
      <point x="323" y="643" type="line"/>
      <point x="307" y="664"/>
      <point x="284" y="674" name="hr01"/>
      <point x="248" y="674" type="curve" smooth="yes"/>
      <point x="156" y="674"/>
      <point x="87" y="596"/>
      <point x="87" y="492" type="curve" smooth="yes"/>
      <point x="87" y="433"/>
      <point x="127" y="394"/>
      <point x="189" y="394" type="curve" smooth="yes"/>
      <point x="223" y="394"/>
      <point x="252" y="404"/>
      <point x="277" y="425" type="curve"/>
      <point x="272" y="400" type="line"/>
      <point x="345" y="400" type="line"/>
      <point x="401" y="667" type="line" name="hr02"/>
    </contour>
    <contour>
      <point x="254" y="620" type="curve" smooth="yes"/>
      <point x="286" y="620"/>
      <point x="306" y="599"/>
      <point x="306" y="565" type="curve" smooth="yes"/>
      <point x="306" y="499"/>
      <point x="267" y="447"/>
      <point x="218" y="447" type="curve" smooth="yes"/>
      <point x="184" y="447"/>
      <point x="165" y="467"/>
      <point x="165" y="503" type="curve" smooth="yes"/>
      <point x="165" y="528"/>
      <point x="177" y="567"/>
      <point x="192" y="587" type="curve" smooth="yes"/>
      <point x="207" y="608"/>
      <point x="229" y="620"/>
    </contour>
  </outline>
</glyph>
<glyph name="guillemotleft" format="2">
  <advance width="402"/>
  <unicode hex="00AB"/>
  <outline>
    <contour>
      <point x="108" y="14" type="line"/>
      <point x="157" y="14" type="line"/>
      <point x="141" y="225" type="line"/>
      <point x="247" y="434" type="line"/>
      <point x="197" y="434" type="line"/>
      <point x="40" y="225" type="line"/>
    </contour>
    <contour>
      <point x="262" y="14" type="line"/>
      <point x="312" y="14" type="line"/>
      <point x="295" y="225" type="line"/>
      <point x="401" y="434" type="line"/>
      <point x="352" y="434" type="line"/>
      <point x="194" y="225" type="line"/>
    </contour>
  </outline>
</glyph>
<glyph name="logicalnot" format="2">
  <advance width="575"/>
  <unicode hex="00AC"/>
  <outline>
    <contour>
      <point x="-2" y="250" type="line"/>
      <point x="-2" y="193" type="line"/>
      <point x="443" y="193" type="line"/>
      <point x="443" y="-30" type="line"/>
      <point x="503" y="-30" type="line"/>
      <point x="503" y="250" type="line"/>
    </contour>
  </outline>
</glyph>
<glyph name="registered" format="2">
  <advance width="769"/>
  <unicode hex="00AE"/>
  <outline>
    <contour>
      <point x="281" y="140" type="line"/>
      <point x="357" y="140" type="line"/>
      <point x="357" y="303" type="line"/>
      <point x="394" y="303" type="line"/>
      <point x="494" y="140" type="line"/>
      <point x="584" y="140" type="line"/>
      <point x="470" y="315" type="line"/>
      <point x="521" y="340"/>
      <point x="544" y="374"/>
      <point x="544" y="422" type="curve" smooth="yes"/>
      <point x="544" y="465"/>
      <point x="524" y="499"/>
      <point x="489" y="515" type="curve" smooth="yes"/>
      <point x="469" y="524"/>
      <point x="448" y="527"/>
      <point x="400" y="527" type="curve" smooth="yes"/>
      <point x="281" y="527" type="line"/>
    </contour>
    <contour>
      <point x="357" y="360" type="line"/>
      <point x="357" y="468" type="line"/>
      <point x="382" y="468" type="line" smooth="yes"/>
      <point x="420" y="468"/>
      <point x="422" y="468"/>
      <point x="432" y="465" type="curve" smooth="yes"/>
      <point x="453" y="459"/>
      <point x="464" y="443"/>
      <point x="464" y="419" type="curve" smooth="yes"/>
      <point x="464" y="378"/>
      <point x="440" y="360"/>
      <point x="385" y="360" type="curve" smooth="yes"/>
    </contour>
    <contour>
      <point x="414" y="681" type="curve" smooth="yes"/>
      <point x="217" y="681"/>
      <point x="62" y="527"/>
      <point x="62" y="333" type="curve" smooth="yes"/>
      <point x="62" y="142"/>
      <point x="218" y="-14"/>
      <point x="409" y="-14" type="curve" smooth="yes"/>
      <point x="600" y="-14"/>
      <point x="755" y="142"/>
      <point x="755" y="333" type="curve" smooth="yes"/>
      <point x="755" y="523"/>
      <point x="600" y="681"/>
    </contour>
    <contour>
      <point x="413" y="630" type="curve" smooth="yes"/>
      <point x="569" y="630"/>
      <point x="699" y="495"/>
      <point x="699" y="333" type="curve" smooth="yes"/>
      <point x="699" y="170"/>
      <point x="569" y="37"/>
      <point x="409" y="37" type="curve" smooth="yes"/>
      <point x="249" y="37"/>
      <point x="118" y="171"/>
      <point x="118" y="333" type="curve" smooth="yes"/>
      <point x="118" y="499"/>
      <point x="248" y="630"/>
    </contour>
  </outline>
</glyph>
<glyph name="macron" format="2">
  <advance width="500"/>
  <unicode hex="00AF"/>
  <outline>
    <contour>
      <point x="201" y="638" type="line"/>
      <point x="189" y="583" type="line"/>
      <point x="466" y="583" type="line"/>
      <point x="477" y="638" type="line"/>
    </contour>
  </outline>
</glyph>
<glyph name="degree" format="2">
  <advance width="500"/>
  <unicode hex="00B0"/>
  <outline>
    <contour>
      <point x="315" y="673" type="curve" smooth="yes"/>
      <point x="233" y="673"/>
      <point x="165" y="607"/>
      <point x="165" y="528" type="curve" smooth="yes"/>
      <point x="165" y="445"/>
      <point x="231" y="379"/>
      <point x="315" y="379" type="curve" smooth="yes"/>
      <point x="397" y="379"/>
      <point x="464" y="445"/>
      <point x="464" y="526" type="curve" smooth="yes"/>
      <point x="464" y="607"/>
      <point x="397" y="673"/>
    </contour>
    <contour>
      <point x="315" y="610" type="curve" smooth="yes"/>
      <point x="360" y="610"/>
      <point x="398" y="572"/>
      <point x="398" y="526" type="curve" smooth="yes"/>
      <point x="398" y="481"/>
      <point x="360" y="442"/>
      <point x="314" y="442" type="curve" smooth="yes"/>
      <point x="268" y="442"/>
      <point x="231" y="480"/>
      <point x="231" y="527" type="curve" smooth="yes"/>
      <point x="231" y="572"/>
      <point x="270" y="610"/>
    </contour>
  </outline>
</glyph>
<glyph name="plusminus" format="2">
  <advance width="560"/>
  <unicode hex="00B1"/>
  <outline>
    <contour>
      <point x="71.1406" y="371" type="line"/>
      <point x="63.5514" y="317" type="line"/>
      <point x="289.551" y="317" type="line"/>
      <point x="257.789" y="91" type="line"/>
      <point x="312.789" y="91" type="line"/>
      <point x="344.551" y="317" type="line"/>
      <point x="571.551" y="317" type="line"/>
      <point x="579.141" y="371" type="line"/>
      <point x="352.141" y="371" type="line"/>
      <point x="383.481" y="594" type="line"/>
      <point x="328.481" y="594" type="line"/>
      <point x="297.141" y="371" type="line"/>
    </contour>
    <contour>
      <point x="26.5892" y="54" type="line"/>
      <point x="19" y="0" type="line"/>
      <point x="527" y="0" type="line"/>
      <point x="534.589" y="54" type="line"/>
    </contour>
  </outline>
</glyph>
<glyph name="twosuperior" format="2">
  <advance width="366"/>
  <unicode hex="00B2"/>
  <outline>
    <contour>
      <point x="53" y="266" type="line"/>
      <point x="335" y="266" type="line"/>
      <point x="349" y="331" type="line"/>
      <point x="173" y="331" type="line"/>
      <point x="267" y="417" type="line"/>
      <point x="339" y="477"/>
      <point x="339" y="477"/>
      <point x="358" y="502" type="curve" smooth="yes"/>
      <point x="380" y="531"/>
      <point x="392" y="561"/>
      <point x="392" y="588" type="curve" smooth="yes"/>
      <point x="392" y="641"/>
      <point x="344" y="676"/>
      <point x="273" y="676" type="curve" smooth="yes"/>
      <point x="200" y="676"/>
      <point x="150" y="642"/>
      <point x="129" y="578" type="curve"/>
      <point x="193" y="546" type="line"/>
      <point x="206" y="595"/>
      <point x="229" y="618"/>
      <point x="266" y="618" type="curve" smooth="yes"/>
      <point x="294" y="618"/>
      <point x="313" y="600"/>
      <point x="313" y="573" type="curve" smooth="yes"/>
      <point x="313" y="554"/>
      <point x="305" y="537"/>
      <point x="285" y="514" type="curve" smooth="yes"/>
      <point x="266" y="492"/>
      <point x="266" y="492"/>
      <point x="205" y="443" type="curve"/>
      <point x="65" y="322" type="line"/>
    </contour>
  </outline>
</glyph>
<glyph name="threesuperior" format="2">
  <advance width="366"/>
  <unicode hex="00B3"/>
  <outline>
    <contour>
      <point x="56" y="335" type="line"/>
      <point x="77" y="282"/>
      <point x="115" y="259"/>
      <point x="183" y="259" type="curve" smooth="yes"/>
      <point x="283" y="259"/>
      <point x="355" y="322"/>
      <point x="355" y="408" type="curve" smooth="yes"/>
      <point x="355" y="444"/>
      <point x="335" y="473"/>
      <point x="302" y="485" type="curve"/>
      <point x="323" y="496"/>
      <point x="330" y="500"/>
      <point x="338" y="507" type="curve" smooth="yes"/>
      <point x="364" y="529"/>
      <point x="379" y="561" name="hr01"/>
      <point x="379" y="590" type="curve" smooth="yes"/>
      <point x="379" y="642"/>
      <point x="332" y="676"/>
      <point x="262" y="676" type="curve" smooth="yes"/>
      <point x="196" y="676"/>
      <point x="160" y="655"/>
      <point x="129" y="599" type="curve"/>
      <point x="192" y="565" type="line"/>
      <point x="208" y="604"/>
      <point x="225" y="618"/>
      <point x="256" y="618" type="curve" smooth="yes"/>
      <point x="286" y="618"/>
      <point x="303" y="603"/>
      <point x="303" y="577" type="curve" smooth="yes"/>
      <point x="303" y="533"/>
      <point x="267" y="509"/>
      <point x="192" y="503" type="curve"/>
      <point x="181" y="455" type="line"/>
      <point x="213" y="455"/>
      <point x="226" y="454"/>
      <point x="239" y="450" type="curve" smooth="yes"/>
      <point x="264" y="443"/>
      <point x="277" y="426" name="hr02"/>
      <point x="277" y="403" type="curve" smooth="yes"/>
      <point x="277" y="357"/>
      <point x="240" y="320"/>
      <point x="195" y="320" type="curve" smooth="yes"/>
      <point x="162" y="320"/>
      <point x="139" y="338"/>
      <point x="132" y="368" type="curve"/>
    </contour>
  </outline>
</glyph>
<glyph name="acute" format="2">
  <advance width="500"/>
  <unicode hex="00B4"/>
  <outline>
    <contour>
      <point x="243" y="544" type="line"/>
      <point x="281" y="535" type="line"/>
      <point x="511" y="666" type="line"/>
      <point x="425" y="697" type="line"/>
    </contour>
  </outline>
</glyph>
<glyph name="micro" format="2">
  <advance width="606"/>
  <unicode hex="00B5"/>
  <outline>
    <contour>
      <point x="163" y="446" type="line"/>
      <point x="86" y="64" type="line"/>
      <point x="69" y="-13"/>
      <point x="39" y="-128"/>
      <point x="22" y="-180" type="curve"/>
      <point x="111" y="-180" type="line"/>
      <point x="152" y="30" type="line"/>
      <point x="178" y="3"/>
      <point x="202" y="-7"/>
      <point x="239" y="-7" type="curve" smooth="yes"/>
      <point x="283" y="-7"/>
      <point x="312" y="6"/>
      <point x="360" y="45" type="curve"/>
      <point x="351" y="0" type="line"/>
      <point x="438" y="0" type="line"/>
      <point x="533" y="446" type="line"/>
      <point x="444" y="446" type="line"/>
      <point x="395" y="213" type="line"/>
      <point x="382" y="155"/>
      <point x="372" y="130"/>
      <point x="351" y="109" type="curve" smooth="yes"/>
      <point x="329" y="88"/>
      <point x="296" y="75" name="hr02"/>
      <point x="261" y="75" type="curve" smooth="yes"/>
      <point x="218" y="75"/>
      <point x="190" y="99"/>
      <point x="190" y="137" type="curve" smooth="yes"/>
      <point x="190" y="154"/>
      <point x="193" y="179"/>
      <point x="199" y="205" type="curve" smooth="yes"/>
      <point x="251" y="446" type="line"/>
    </contour>
  </outline>
</glyph>
<glyph name="paragraph" format="2">
  <advance width="555"/>
  <unicode hex="00B6"/>
  <outline>
    <contour>
      <point x="447" y="620" type="line"/>
      <point x="297" y="-86" type="line"/>
      <point x="345" y="-86" type="line"/>
      <point x="496" y="626" type="line"/>
      <point x="581" y="634" type="line"/>
      <point x="588" y="667" type="line"/>
      <point x="325" y="667" type="line" smooth="yes"/>
      <point x="229" y="667"/>
      <point x="182" y="651"/>
      <point x="136" y="603" type="curve" smooth="yes"/>
      <point x="101" y="565"/>
      <point x="80" y="514"/>
      <point x="80" y="462" type="curve" smooth="yes"/>
      <point x="80" y="422"/>
      <point x="92" y="388"/>
      <point x="115" y="364" type="curve" smooth="yes"/>
      <point x="146" y="331"/>
      <point x="185" y="314"/>
      <point x="262" y="303" type="curve"/>
      <point x="179" y="-86" type="line"/>
      <point x="227" y="-86" type="line"/>
      <point x="375" y="611" type="line"/>
    </contour>
  </outline>
</glyph>
<glyph name="periodcentered" format="2">
  <advance width="247"/>
  <unicode hex="00B7"/>
  <outline>
    <contour>
      <point x="132" y="300" type="curve" smooth="yes"/>
      <point x="90" y="300"/>
      <point x="58" y="269"/>
      <point x="58" y="229" type="curve" smooth="yes"/>
      <point x="58" y="191"/>
      <point x="83" y="167"/>
      <point x="120" y="167" type="curve" smooth="yes"/>
      <point x="163" y="167"/>
      <point x="194" y="198"/>
      <point x="194" y="241" type="curve" smooth="yes"/>
      <point x="194" y="276"/>
      <point x="169" y="300"/>
    </contour>
  </outline>
</glyph>
<glyph name="cedilla" format="2">
  <advance width="500"/>
  <unicode hex="00B8"/>
  <outline>
    <contour>
      <point x="103" y="-189" type="line"/>
      <point x="187" y="-164"/>
      <point x="232" y="-121"/>
      <point x="232" y="-68" type="curve" smooth="yes"/>
      <point x="232" y="-46"/>
      <point x="225" y="-31"/>
      <point x="208" y="-11" type="curve"/>
      <point x="131" y="-58" type="line"/>
      <point x="148" y="-72"/>
      <point x="155" y="-84"/>
      <point x="155" y="-100" type="curve" smooth="yes"/>
      <point x="155" y="-131"/>
      <point x="130" y="-155"/>
      <point x="81" y="-172" type="curve"/>
    </contour>
  </outline>
</glyph>
<glyph name="onesuperior" format="2">
  <advance width="366"/>
  <unicode hex="00B9"/>
  <outline>
    <contour>
      <point x="182" y="267" type="line"/>
      <point x="261" y="267" type="line"/>
      <point x="346" y="667" type="line"/>
      <point x="289" y="667" type="line"/>
      <point x="258" y="622"/>
      <point x="224" y="607"/>
      <point x="143" y="602" type="curve"/>
      <point x="133" y="555" type="line"/>
      <point x="244" y="557" type="line"/>
    </contour>
  </outline>
</glyph>
<glyph name="ordmasculine" format="2">
  <advance width="341"/>
  <unicode hex="00BA"/>
  <outline>
    <contour>
      <point x="260" y="673" type="curve" smooth="yes"/>
      <point x="212" y="673"/>
      <point x="174" y="660"/>
      <point x="145" y="633" type="curve" smooth="yes"/>
      <point x="112" y="603"/>
      <point x="89" y="548"/>
      <point x="89" y="500" type="curve" smooth="yes"/>
      <point x="89" y="429"/>
      <point x="131" y="393"/>
      <point x="214" y="393" type="curve" smooth="yes"/>
      <point x="263" y="393"/>
      <point x="302" y="407"/>
      <point x="331" y="436" type="curve" smooth="yes"/>
      <point x="363" y="467"/>
      <point x="384" y="520"/>
      <point x="384" y="571" type="curve" smooth="yes"/>
      <point x="384" y="637"/>
      <point x="340" y="673"/>
    </contour>
    <contour>
      <point x="256" y="620" type="curve" smooth="yes"/>
      <point x="287" y="620"/>
      <point x="307" y="600"/>
      <point x="307" y="567" type="curve" smooth="yes"/>
      <point x="307" y="499"/>
      <point x="267" y="445"/>
      <point x="217" y="445" type="curve" smooth="yes"/>
      <point x="184" y="445"/>
      <point x="166" y="465"/>
      <point x="166" y="501" type="curve" smooth="yes"/>
      <point x="166" y="524"/>
      <point x="176" y="559"/>
      <point x="190" y="580" type="curve" smooth="yes"/>
      <point x="207" y="606"/>
      <point x="229" y="620"/>
    </contour>
  </outline>
</glyph>
<glyph name="guillemotright" format="2">
  <advance width="402"/>
  <unicode hex="00BB"/>
  <outline>
    <contour>
      <point x="294" y="425" type="line"/>
      <point x="244" y="425" type="line"/>
      <point x="261" y="214" type="line"/>
      <point x="155" y="5" type="line"/>
      <point x="204" y="5" type="line"/>
      <point x="361" y="214" type="line"/>
    </contour>
    <contour>
      <point x="139" y="425" type="line"/>
      <point x="89" y="425" type="line"/>
      <point x="106" y="214" type="line"/>
      <point x="0" y="5" type="line"/>
      <point x="50" y="5" type="line"/>
      <point x="207" y="214" type="line"/>
    </contour>
  </outline>
</glyph>
<glyph name="onequarter" format="2">
  <advance width="899"/>
  <unicode hex="00BC"/>
  <outline>
    <contour>
      <point x="182" y="267" type="line"/>
      <point x="261" y="267" type="line"/>
      <point x="346" y="667" type="line"/>
      <point x="289" y="667" type="line"/>
      <point x="258" y="622"/>
      <point x="224" y="607"/>
      <point x="143" y="602" type="curve"/>
      <point x="133" y="555" type="line"/>
      <point x="244" y="557" type="line"/>
    </contour>
    <contour>
      <point x="769" y="681" type="line"/>
      <point x="716" y="689" type="line"/>
      <point x="192" y="-12" type="line"/>
      <point x="248" y="-17" type="line"/>
    </contour>
    <contour>
      <point x="698" y="0" type="line"/>
      <point x="770" y="0" type="line"/>
      <point x="788" y="86" type="line"/>
      <point x="844" y="86" type="line"/>
      <point x="856" y="145" type="line"/>
      <point x="801" y="145" type="line"/>
      <point x="855" y="400" type="line"/>
      <point x="766" y="400" type="line"/>
      <point x="544" y="141" type="line"/>
      <point x="532" y="86" type="line"/>
      <point x="716" y="86" type="line"/>
    </contour>
    <contour>
      <point x="622" y="145" type="line"/>
      <point x="767" y="326" type="line"/>
      <point x="729" y="145" type="line"/>
    </contour>
  </outline>
</glyph>
<glyph name="onehalf" format="2">
  <advance width="899"/>
  <unicode hex="00BD"/>
  <outline>
    <contour>
      <point x="182" y="267" type="line"/>
      <point x="261" y="267" type="line"/>
      <point x="346" y="667" type="line"/>
      <point x="289" y="667" type="line"/>
      <point x="258" y="622"/>
      <point x="224" y="607"/>
      <point x="143" y="602" type="curve"/>
      <point x="133" y="555" type="line"/>
      <point x="244" y="557" type="line"/>
    </contour>
    <contour>
      <point x="769" y="681" type="line"/>
      <point x="716" y="689" type="line"/>
      <point x="192" y="-12" type="line"/>
      <point x="248" y="-17" type="line"/>
    </contour>
    <contour>
      <point x="530" y="0" type="line" name="hr01"/>
      <point x="812" y="0" type="line"/>
      <point x="826" y="65" type="line"/>
      <point x="650" y="65" type="line"/>
      <point x="744" y="150" type="line"/>
      <point x="815" y="211"/>
      <point x="815" y="211"/>
      <point x="834" y="236" type="curve" smooth="yes"/>
      <point x="856" y="264"/>
      <point x="868" y="294"/>
      <point x="868" y="321" type="curve" smooth="yes"/>
      <point x="868" y="374"/>
      <point x="820" y="409"/>
      <point x="749" y="409" type="curve" smooth="yes"/>
      <point x="677" y="409"/>
      <point x="627" y="375"/>
      <point x="606" y="311" type="curve"/>
      <point x="670" y="279" type="line"/>
      <point x="683" y="328"/>
      <point x="706" y="351"/>
      <point x="742" y="351" type="curve" smooth="yes"/>
      <point x="770" y="351"/>
      <point x="789" y="333"/>
      <point x="789" y="306" type="curve" smooth="yes"/>
      <point x="789" y="287"/>
      <point x="781" y="270"/>
      <point x="761" y="248" type="curve" smooth="yes"/>
      <point x="742" y="226"/>
      <point x="742" y="226"/>
      <point x="682" y="177" type="curve"/>
      <point x="542" y="56" type="line"/>
    </contour>
  </outline>
</glyph>
<glyph name="threequarters" format="2">
  <advance width="899"/>
  <unicode hex="00BE"/>
  <outline>
    <contour>
      <point x="56" y="335" type="line"/>
      <point x="77" y="282"/>
      <point x="115" y="259"/>
      <point x="183" y="259" type="curve" smooth="yes"/>
      <point x="283" y="259"/>
      <point x="355" y="322"/>
      <point x="355" y="408" type="curve" smooth="yes"/>
      <point x="355" y="444"/>
      <point x="335" y="473"/>
      <point x="302" y="485" type="curve"/>
      <point x="323" y="496"/>
      <point x="330" y="500"/>
      <point x="338" y="507" type="curve" smooth="yes"/>
      <point x="364" y="529"/>
      <point x="379" y="561" name="hr01"/>
      <point x="379" y="590" type="curve" smooth="yes"/>
      <point x="379" y="642"/>
      <point x="332" y="676"/>
      <point x="262" y="676" type="curve" smooth="yes"/>
      <point x="196" y="676"/>
      <point x="160" y="655"/>
      <point x="129" y="599" type="curve"/>
      <point x="192" y="565" type="line"/>
      <point x="208" y="604"/>
      <point x="225" y="618"/>
      <point x="256" y="618" type="curve" smooth="yes"/>
      <point x="286" y="618"/>
      <point x="303" y="603"/>
      <point x="303" y="577" type="curve" smooth="yes"/>
      <point x="303" y="533"/>
      <point x="267" y="509"/>
      <point x="192" y="503" type="curve"/>
      <point x="181" y="455" type="line"/>
      <point x="213" y="455"/>
      <point x="226" y="454"/>
      <point x="239" y="450" type="curve" smooth="yes"/>
      <point x="264" y="443"/>
      <point x="277" y="426" name="hr02"/>
      <point x="277" y="403" type="curve" smooth="yes"/>
      <point x="277" y="357"/>
      <point x="240" y="320"/>
      <point x="195" y="320" type="curve" smooth="yes"/>
      <point x="162" y="320"/>
      <point x="139" y="338"/>
      <point x="132" y="368" type="curve"/>
    </contour>
    <contour>
      <point x="769" y="681" type="line"/>
      <point x="716" y="689" type="line"/>
      <point x="192" y="-12" type="line"/>
      <point x="248" y="-17" type="line"/>
    </contour>
    <contour>
      <point x="698" y="0" type="line"/>
      <point x="770" y="0" type="line"/>
      <point x="788" y="86" type="line"/>
      <point x="844" y="86" type="line"/>
      <point x="856" y="145" type="line"/>
      <point x="801" y="145" type="line"/>
      <point x="855" y="400" type="line"/>
      <point x="766" y="400" type="line"/>
      <point x="544" y="141" type="line"/>
      <point x="532" y="86" type="line"/>
      <point x="716" y="86" type="line"/>
    </contour>
    <contour>
      <point x="622" y="145" type="line"/>
      <point x="767" y="326" type="line"/>
      <point x="729" y="145" type="line"/>
    </contour>
  </outline>
</glyph>
<glyph name="questiondown" format="2">
  <advance width="387"/>
  <unicode hex="00BF"/>
  <outline>
    <contour>
      <point x="181" y="270" type="line"/>
      <point x="183" y="264"/>
      <point x="185" y="257"/>
      <point x="186" y="255" type="curve" smooth="yes"/>
      <point x="190" y="240"/>
      <point x="192" y="228"/>
      <point x="192" y="220" type="curve" smooth="yes"/>
      <point x="192" y="188"/>
      <point x="169" y="159"/>
      <point x="95" y="100" type="curve" smooth="yes"/>
      <point x="33" y="51"/>
      <point x="33" y="51"/>
      <point x="13" y="29" type="curve" smooth="yes"/>
      <point x="-17" y="-6"/>
      <point x="-34" y="-45"/>
      <point x="-34" y="-83" type="curve" smooth="yes"/>
      <point x="-34" y="-163"/>
      <point x="27" y="-215"/>
      <point x="120" y="-215" type="curve" smooth="yes"/>
      <point x="210" y="-215"/>
      <point x="271" y="-172"/>
      <point x="301" y="-88" type="curve"/>
      <point x="214" y="-44" type="line"/>
      <point x="201" y="-101"/>
      <point x="176" y="-127"/>
      <point x="133" y="-127" type="curve" smooth="yes"/>
      <point x="98" y="-127"/>
      <point x="72" y="-101"/>
      <point x="72" y="-66" type="curve" smooth="yes"/>
      <point x="72" y="-40"/>
      <point x="86" y="-10"/>
      <point x="113" y="16" type="curve"/>
      <point x="128" y="32"/>
      <point x="137" y="39"/>
      <point x="182" y="72" type="curve" smooth="yes"/>
      <point x="219" y="99"/>
      <point x="238" y="115"/>
      <point x="252" y="132" type="curve" smooth="yes"/>
      <point x="271" y="155"/>
      <point x="283" y="186"/>
      <point x="283" y="211" type="curve" smooth="yes"/>
      <point x="283" y="227"/>
      <point x="280" y="242"/>
      <point x="268" y="277" type="curve"/>
    </contour>
    <contour>
      <point x="264" y="478" type="curve" smooth="yes"/>
      <point x="221" y="478"/>
      <point x="190" y="447"/>
      <point x="190" y="404" type="curve" smooth="yes"/>
      <point x="190" y="369"/>
      <point x="215" y="345"/>
      <point x="252" y="345" type="curve" smooth="yes"/>
      <point x="294" y="345"/>
      <point x="326" y="376"/>
      <point x="326" y="417" type="curve" smooth="yes"/>
      <point x="326" y="454"/>
      <point x="302" y="478"/>
    </contour>
  </outline>
</glyph>
<glyph name="Acircumflex" format="2">
  <advance width="623"/>
  <unicode hex="00C2"/>
  <outline>
    <contour>
      <point x="-55" y="0" type="line"/>
      <point x="68" y="0" type="line"/>
      <point x="170" y="176" type="line"/>
      <point x="426" y="176" type="line"/>
      <point x="453" y="0" type="line"/>
      <point x="578" y="0" type="line"/>
      <point x="475" y="667" type="line"/>
      <point x="343" y="667" type="line"/>
    </contour>
    <contour>
      <point x="219" y="263" type="line"/>
      <point x="378" y="537" type="line"/>
      <point x="418" y="263" type="line"/>
    </contour>
    <contour>
      <point x="243" y="732" type="line"/>
      <point x="279" y="723" type="line"/>
      <point x="438" y="814" type="line"/>
      <point x="555" y="723" type="line"/>
      <point x="590" y="734" type="line"/>
      <point x="484" y="869" type="line"/>
      <point x="418" y="869" type="line"/>
    </contour>
  </outline>
</glyph>
<glyph name="Atilde" format="2">
  <advance width="623"/>
  <unicode hex="00C3"/>
  <outline>
    <contour>
      <point x="-55" y="0" type="line"/>
      <point x="68" y="0" type="line"/>
      <point x="170" y="176" type="line"/>
      <point x="426" y="176" type="line"/>
      <point x="453" y="0" type="line"/>
      <point x="578" y="0" type="line"/>
      <point x="475" y="667" type="line"/>
      <point x="343" y="667" type="line"/>
    </contour>
    <contour>
      <point x="219" y="263" type="line"/>
      <point x="378" y="537" type="line"/>
      <point x="418" y="263" type="line"/>
    </contour>
    <contour>
      <point x="274" y="742" type="line"/>
      <point x="311" y="780"/>
      <point x="337" y="795"/>
      <point x="363" y="795" type="curve" smooth="yes"/>
      <point x="378" y="795"/>
      <point x="393" y="789"/>
      <point x="416" y="774" type="curve" smooth="yes"/>
      <point x="455" y="749"/>
      <point x="469" y="743" name="hr01"/>
      <point x="493" y="743" type="curve" smooth="yes"/>
      <point x="517" y="743"/>
      <point x="522" y="746"/>
      <point x="561" y="781" type="curve" smooth="yes"/>
      <point x="595" y="813"/>
      <point x="595" y="813"/>
      <point x="610" y="833" type="curve"/>
      <point x="588" y="853" type="line"/>
      <point x="556" y="820"/>
      <point x="522" y="800"/>
      <point x="498" y="800" type="curve" smooth="yes"/>
      <point x="486" y="800"/>
      <point x="481" y="803"/>
      <point x="448" y="824" type="curve" smooth="yes"/>
      <point x="423" y="841"/>
      <point x="399" y="849" name="hr02"/>
      <point x="377" y="849" type="curve" smooth="yes"/>
      <point x="341" y="849"/>
      <point x="299" y="820"/>
      <point x="253" y="762" type="curve"/>
    </contour>
  </outline>
</glyph>
<glyph name="Adieresis" format="2">
  <advance width="623"/>
  <unicode hex="00C4"/>
  <outline>
    <contour>
      <point x="-55" y="0" type="line"/>
      <point x="68" y="0" type="line"/>
      <point x="170" y="176" type="line"/>
      <point x="426" y="176" type="line"/>
      <point x="453" y="0" type="line"/>
      <point x="578" y="0" type="line"/>
      <point x="475" y="667" type="line"/>
      <point x="343" y="667" type="line"/>
    </contour>
    <contour>
      <point x="219" y="263" type="line"/>
      <point x="378" y="537" type="line"/>
      <point x="418" y="263" type="line"/>
    </contour>
    <contour>
      <point x="333" y="864" type="curve" smooth="yes"/>
      <point x="292" y="864"/>
      <point x="261" y="834"/>
      <point x="261" y="794" type="curve" smooth="yes"/>
      <point x="261" y="758"/>
      <point x="285" y="734"/>
      <point x="322" y="734" type="curve" smooth="yes"/>
      <point x="363" y="734"/>
      <point x="394" y="764"/>
      <point x="394" y="806" type="curve" smooth="yes"/>
      <point x="394" y="840"/>
      <point x="369" y="864"/>
    </contour>
    <contour>
      <point x="540" y="864" type="curve" smooth="yes"/>
      <point x="499" y="864"/>
      <point x="468" y="834"/>
      <point x="468" y="794" type="curve" smooth="yes"/>
      <point x="468" y="758"/>
      <point x="492" y="734"/>
      <point x="529" y="734" type="curve" smooth="yes"/>
      <point x="570" y="734"/>
      <point x="601" y="764"/>
      <point x="601" y="805" type="curve" smooth="yes"/>
      <point x="601" y="840"/>
      <point x="576" y="864"/>
    </contour>
  </outline>
</glyph>
<glyph name="Aring" format="2">
  <advance width="623"/>
  <unicode hex="00C5"/>
  <outline>
    <contour>
      <point x="-55" y="0" type="line"/>
      <point x="68" y="0" type="line"/>
      <point x="170" y="176" type="line"/>
      <point x="426" y="176" type="line"/>
      <point x="453" y="0" type="line"/>
      <point x="578" y="0" type="line"/>
      <point x="475" y="667" type="line"/>
      <point x="343" y="667" type="line"/>
    </contour>
    <contour>
      <point x="219" y="263" type="line"/>
      <point x="378" y="537" type="line"/>
      <point x="418" y="263" type="line"/>
    </contour>
    <contour>
      <point x="445" y="900" type="curve" smooth="yes"/>
      <point x="374" y="900"/>
      <point x="321" y="855"/>
      <point x="321" y="795" type="curve" smooth="yes"/>
      <point x="321" y="739"/>
      <point x="360" y="707"/>
      <point x="427" y="707" type="curve" smooth="yes"/>
      <point x="499" y="707"/>
      <point x="550" y="751"/>
      <point x="550" y="815" type="curve" smooth="yes"/>
      <point x="550" y="867"/>
      <point x="509" y="900"/>
    </contour>
    <contour>
      <point x="442" y="863" type="curve" smooth="yes"/>
      <point x="472" y="863"/>
      <point x="493" y="844"/>
      <point x="493" y="816" type="curve" smooth="yes"/>
      <point x="493" y="775"/>
      <point x="465" y="744"/>
      <point x="429" y="744" type="curve" smooth="yes"/>
      <point x="398" y="744"/>
      <point x="378" y="764"/>
      <point x="378" y="795" type="curve" smooth="yes"/>
      <point x="378" y="832"/>
      <point x="407" y="863"/>
    </contour>
  </outline>
</glyph>
<glyph name="AE" format="2">
  <advance width="802"/>
  <unicode hex="00C6"/>
  <outline>
    <contour>
      <point x="-84" y="0" type="line"/>
      <point x="47" y="0" type="line"/>
      <point x="169" y="166" type="line"/>
      <point x="371" y="166" type="line"/>
      <point x="335" y="0" type="line"/>
      <point x="721" y="0" type="line"/>
      <point x="741" y="94" type="line"/>
      <point x="464" y="94" type="line"/>
      <point x="507" y="295" type="line"/>
      <point x="747" y="295" type="line"/>
      <point x="766" y="385" type="line"/>
      <point x="526" y="385" type="line"/>
      <point x="566" y="573" type="line"/>
      <point x="806" y="573" type="line"/>
      <point x="826" y="667" type="line"/>
      <point x="419" y="667" type="line"/>
    </contour>
    <contour>
      <point x="227" y="252" type="line"/>
      <point x="456" y="569" type="line"/>
      <point x="389" y="252" type="line"/>
    </contour>
  </outline>
</glyph>
<glyph name="Ccedilla" format="2">
  <advance width="640"/>
  <unicode hex="00C7"/>
  <outline>
    <contour>
      <point x="519" y="177" type="line"/>
      <point x="470" y="106"/>
      <point x="420" y="77"/>
      <point x="344" y="77" type="curve" smooth="yes"/>
      <point x="245" y="77"/>
      <point x="190" y="136"/>
      <point x="190" y="242" type="curve" smooth="yes"/>
      <point x="190" y="318"/>
      <point x="213" y="406"/>
      <point x="249" y="466" type="curve" smooth="yes"/>
      <point x="297" y="546"/>
      <point x="364" y="588"/>
      <point x="444" y="588" type="curve" smooth="yes"/>
      <point x="514" y="588"/>
      <point x="562" y="558"/>
      <point x="575" y="505" type="curve"/>
      <point x="681" y="562" type="line"/>
      <point x="631" y="649"/>
      <point x="568" y="682"/>
      <point x="453" y="682" type="curve" smooth="yes"/>
      <point x="337" y="682"/>
      <point x="238" y="639"/>
      <point x="170" y="560" type="curve" smooth="yes"/>
      <point x="103" y="482"/>
      <point x="60" y="353"/>
      <point x="60" y="233" type="curve" smooth="yes"/>
      <point x="60" y="70"/>
      <point x="153" y="-14"/>
      <point x="333" y="-14" type="curve" smooth="yes"/>
      <point x="423" y="-14"/>
      <point x="494" y="4"/>
      <point x="543" y="40" type="curve" smooth="yes"/>
      <point x="565" y="56"/>
      <point x="582" y="73"/>
      <point x="609" y="109" type="curve"/>
    </contour>
    <contour>
      <point x="201" y="-212" type="line"/>
      <point x="205" y="-210"/>
      <point x="210" y="-208"/>
      <point x="213" y="-207" type="curve" smooth="yes"/>
      <point x="270" y="-186"/>
      <point x="281" y="-181"/>
      <point x="307" y="-159" type="curve" smooth="yes"/>
      <point x="337" y="-134"/>
      <point x="354" y="-104"/>
      <point x="354" y="-75" type="curve" smooth="yes"/>
      <point x="354" y="-54"/>
      <point x="346" y="-38"/>
      <point x="326" y="-15" type="curve"/>
      <point x="235" y="-67" type="line"/>
      <point x="255" y="-84"/>
      <point x="263" y="-98"/>
      <point x="263" y="-116" type="curve" smooth="yes"/>
      <point x="263" y="-150"/>
      <point x="238" y="-172"/>
      <point x="174" y="-192" type="curve"/>
    </contour>
  </outline>
</glyph>
<glyph name="Egrave" format="2">
  <advance width="529"/>
  <unicode hex="00C8"/>
  <outline>
    <contour>
      <point x="38" y="0" type="line"/>
      <point x="447" y="0" type="line"/>
      <point x="467" y="94" type="line"/>
      <point x="178" y="94" type="line"/>
      <point x="221" y="295" type="line"/>
      <point x="473" y="295" type="line"/>
      <point x="492" y="385" type="line"/>
      <point x="240" y="385" type="line"/>
      <point x="280" y="573" type="line"/>
      <point x="532" y="573" type="line"/>
      <point x="552" y="667" type="line"/>
      <point x="180" y="667" type="line"/>
    </contour>
    <contour>
      <point x="428" y="721" type="line"/>
      <point x="455" y="739" type="line"/>
      <point x="290" y="871" type="line"/>
      <point x="221" y="820" type="line"/>
    </contour>
  </outline>
</glyph>
<glyph name="Eacute" format="2">
  <advance width="529"/>
  <unicode hex="00C9"/>
  <outline>
    <contour>
      <point x="38" y="0" type="line"/>
      <point x="447" y="0" type="line"/>
      <point x="467" y="94" type="line"/>
      <point x="178" y="94" type="line"/>
      <point x="221" y="295" type="line"/>
      <point x="473" y="295" type="line"/>
      <point x="492" y="385" type="line"/>
      <point x="240" y="385" type="line"/>
      <point x="280" y="573" type="line"/>
      <point x="532" y="573" type="line"/>
      <point x="552" y="667" type="line"/>
      <point x="180" y="667" type="line"/>
    </contour>
    <contour>
      <point x="302" y="736" type="line"/>
      <point x="340" y="723" type="line"/>
      <point x="572" y="828" type="line"/>
      <point x="487" y="871" type="line"/>
    </contour>
  </outline>
</glyph>
<glyph name="Ecircumflex" format="2">
  <advance width="529"/>
  <unicode hex="00CA"/>
  <outline>
    <contour>
      <point x="38" y="0" type="line"/>
      <point x="447" y="0" type="line"/>
      <point x="467" y="94" type="line"/>
      <point x="178" y="94" type="line"/>
      <point x="221" y="295" type="line"/>
      <point x="473" y="295" type="line"/>
      <point x="492" y="385" type="line"/>
      <point x="240" y="385" type="line"/>
      <point x="280" y="573" type="line"/>
      <point x="532" y="573" type="line"/>
      <point x="552" y="667" type="line"/>
      <point x="180" y="667" type="line"/>
    </contour>
    <contour>
      <point x="199" y="732" type="line"/>
      <point x="235" y="723" type="line"/>
      <point x="394" y="814" type="line"/>
      <point x="511" y="723" type="line"/>
      <point x="546" y="734" type="line"/>
      <point x="440" y="869" type="line"/>
      <point x="374" y="869" type="line"/>
    </contour>
  </outline>
</glyph>
<glyph name="Edieresis" format="2">
  <advance width="529"/>
  <unicode hex="00CB"/>
  <outline>
    <contour>
      <point x="38" y="0" type="line"/>
      <point x="447" y="0" type="line"/>
      <point x="467" y="94" type="line"/>
      <point x="178" y="94" type="line"/>
      <point x="221" y="295" type="line"/>
      <point x="473" y="295" type="line"/>
      <point x="492" y="385" type="line"/>
      <point x="240" y="385" type="line"/>
      <point x="280" y="573" type="line"/>
      <point x="532" y="573" type="line"/>
      <point x="552" y="667" type="line"/>
      <point x="180" y="667" type="line"/>
    </contour>
    <contour>
      <point x="294" y="864" type="curve" smooth="yes"/>
      <point x="253" y="864"/>
      <point x="222" y="834"/>
      <point x="222" y="794" type="curve" smooth="yes"/>
      <point x="222" y="758"/>
      <point x="246" y="734"/>
      <point x="283" y="734" type="curve" smooth="yes"/>
      <point x="324" y="734"/>
      <point x="355" y="764"/>
      <point x="355" y="806" type="curve" smooth="yes"/>
      <point x="355" y="840"/>
      <point x="330" y="864"/>
    </contour>
    <contour>
      <point x="501" y="864" type="curve" smooth="yes"/>
      <point x="460" y="864"/>
      <point x="429" y="834"/>
      <point x="429" y="794" type="curve" smooth="yes"/>
      <point x="429" y="758"/>
      <point x="453" y="734"/>
      <point x="490" y="734" type="curve" smooth="yes"/>
      <point x="531" y="734"/>
      <point x="562" y="764"/>
      <point x="562" y="805" type="curve" smooth="yes"/>
      <point x="562" y="840"/>
      <point x="537" y="864"/>
    </contour>
  </outline>
</glyph>
<glyph name="Igrave" format="2">
  <advance width="290"/>
  <unicode hex="00CC"/>
  <outline>
    <contour>
      <point x="38" y="0" type="line"/>
      <point x="158" y="0" type="line"/>
      <point x="300" y="667" type="line"/>
      <point x="180" y="667" type="line"/>
    </contour>
    <contour>
      <point x="292" y="721" type="line"/>
      <point x="319" y="739" type="line"/>
      <point x="154" y="871" type="line"/>
      <point x="85" y="820" type="line"/>
    </contour>
  </outline>
</glyph>
<glyph name="Iacute" format="2">
  <advance width="290"/>
  <unicode hex="00CD"/>
  <outline>
    <contour>
      <point x="38" y="0" type="line"/>
      <point x="158" y="0" type="line"/>
      <point x="300" y="667" type="line"/>
      <point x="180" y="667" type="line"/>
    </contour>
    <contour>
      <point x="189" y="736" type="line"/>
      <point x="227" y="723" type="line"/>
      <point x="433" y="828" type="line"/>
      <point x="354" y="871" type="line"/>
    </contour>
  </outline>
</glyph>
<glyph name="Icircumflex" format="2">
  <advance width="290"/>
  <unicode hex="00CE"/>
  <outline>
    <contour>
      <point x="38" y="0" type="line"/>
      <point x="158" y="0" type="line"/>
      <point x="300" y="667" type="line"/>
      <point x="180" y="667" type="line"/>
    </contour>
    <contour>
      <point x="96" y="732" type="line"/>
      <point x="132" y="723" type="line"/>
      <point x="271" y="814" type="line"/>
      <point x="368" y="723" type="line"/>
      <point x="403" y="734" type="line"/>
      <point x="317" y="869" type="line"/>
      <point x="251" y="869" type="line"/>
    </contour>
  </outline>
</glyph>
<glyph name="Idieresis" format="2">
  <advance width="290"/>
  <unicode hex="00CF"/>
  <outline>
    <contour>
      <point x="38" y="0" type="line"/>
      <point x="158" y="0" type="line"/>
      <point x="300" y="667" type="line"/>
      <point x="180" y="667" type="line"/>
    </contour>
    <contour>
      <point x="186" y="864" type="curve" smooth="yes"/>
      <point x="145" y="864"/>
      <point x="114" y="834"/>
      <point x="114" y="794" type="curve" smooth="yes"/>
      <point x="114" y="758"/>
      <point x="138" y="734"/>
      <point x="175" y="734" type="curve" smooth="yes"/>
      <point x="217" y="734"/>
      <point x="247" y="764"/>
      <point x="247" y="806" type="curve" smooth="yes"/>
      <point x="247" y="841"/>
      <point x="223" y="864"/>
    </contour>
    <contour>
      <point x="360" y="864" type="curve" smooth="yes"/>
      <point x="319" y="864"/>
      <point x="288" y="834"/>
      <point x="288" y="794" type="curve" smooth="yes"/>
      <point x="288" y="758"/>
      <point x="312" y="734"/>
      <point x="349" y="734" type="curve" smooth="yes"/>
      <point x="390" y="734"/>
      <point x="421" y="764"/>
      <point x="421" y="805" type="curve" smooth="yes"/>
      <point x="421" y="840"/>
      <point x="397" y="864"/>
    </contour>
  </outline>
</glyph>
<glyph name="Eth" format="2">
  <advance width="700"/>
  <unicode hex="00D0"/>
  <outline>
    <contour>
      <point x="38" y="0" type="line"/>
      <point x="268" y="0" type="line" smooth="yes"/>
      <point x="418" y="0"/>
      <point x="502" y="31"/>
      <point x="577" y="114" type="curve" smooth="yes"/>
      <point x="644" y="188"/>
      <point x="689" y="316"/>
      <point x="689" y="432" type="curve" smooth="yes"/>
      <point x="689" y="512"/>
      <point x="656" y="580"/>
      <point x="599" y="620" type="curve" smooth="yes"/>
      <point x="552" y="652"/>
      <point x="493" y="667"/>
      <point x="410" y="667" type="curve" smooth="yes"/>
      <point x="180" y="667" type="line"/>
      <point x="118" y="377" type="line"/>
      <point x="52" y="377" type="line"/>
      <point x="38" y="314" type="line"/>
      <point x="105" y="314" type="line"/>
    </contour>
    <contour>
      <point x="178" y="94" type="line"/>
      <point x="225" y="314" type="line"/>
      <point x="380" y="314" type="line"/>
      <point x="393" y="377" type="line"/>
      <point x="238" y="377" type="line"/>
      <point x="280" y="573" type="line"/>
      <point x="395" y="573" type="line" smooth="yes"/>
      <point x="450" y="573"/>
      <point x="486" y="563"/>
      <point x="513" y="539" type="curve" smooth="yes"/>
      <point x="544" y="512"/>
      <point x="560" y="470"/>
      <point x="560" y="417" type="curve" smooth="yes"/>
      <point x="560" y="345"/>
      <point x="537" y="264"/>
      <point x="499" y="206" type="curve" smooth="yes"/>
      <point x="447" y="126"/>
      <point x="388" y="94"/>
      <point x="288" y="94" type="curve" smooth="yes"/>
    </contour>
  </outline>
</glyph>
<glyph name="Ntilde" format="2">
  <advance width="756"/>
  <unicode hex="00D1"/>
  <outline>
    <contour>
      <point x="38" y="0" type="line"/>
      <point x="156" y="0" type="line"/>
      <point x="259" y="484" type="line"/>
      <point x="507" y="0" type="line"/>
      <point x="624" y="0" type="line"/>
      <point x="766" y="667" type="line"/>
      <point x="649" y="667" type="line"/>
      <point x="546" y="185" type="line"/>
      <point x="298" y="667" type="line"/>
      <point x="180" y="667" type="line"/>
    </contour>
    <contour>
      <point x="347" y="742" type="line"/>
      <point x="384" y="780"/>
      <point x="410" y="795"/>
      <point x="436" y="795" type="curve" smooth="yes"/>
      <point x="451" y="795"/>
      <point x="466" y="789"/>
      <point x="489" y="774" type="curve" smooth="yes"/>
      <point x="528" y="749"/>
      <point x="542" y="743" name="hr01"/>
      <point x="566" y="743" type="curve" smooth="yes"/>
      <point x="590" y="743"/>
      <point x="595" y="746"/>
      <point x="634" y="781" type="curve" smooth="yes"/>
      <point x="668" y="813"/>
      <point x="668" y="813"/>
      <point x="683" y="833" type="curve"/>
      <point x="661" y="853" type="line"/>
      <point x="629" y="820"/>
      <point x="595" y="800"/>
      <point x="571" y="800" type="curve" smooth="yes"/>
      <point x="559" y="800"/>
      <point x="554" y="803"/>
      <point x="521" y="824" type="curve" smooth="yes"/>
      <point x="496" y="841"/>
      <point x="472" y="849" name="hr02"/>
      <point x="450" y="849" type="curve" smooth="yes"/>
      <point x="414" y="849"/>
      <point x="372" y="820"/>
      <point x="326" y="762" type="curve"/>
    </contour>
  </outline>
</glyph>
<glyph name="Ocircumflex" format="2">
  <advance width="749"/>
  <unicode hex="00D4"/>
  <outline>
    <contour>
      <point x="452" y="682" type="curve" smooth="yes"/>
      <point x="338" y="682"/>
      <point x="246" y="644"/>
      <point x="178" y="571" type="curve" smooth="yes"/>
      <point x="108" y="494"/>
      <point x="59" y="356"/>
      <point x="59" y="234" type="curve" smooth="yes"/>
      <point x="59" y="70"/>
      <point x="155" y="-15"/>
      <point x="339" y="-15" type="curve" smooth="yes"/>
      <point x="458" y="-15"/>
      <point x="544" y="18"/>
      <point x="614" y="90" type="curve" smooth="yes"/>
      <point x="686" y="166"/>
      <point x="738" y="308"/>
      <point x="738" y="428" type="curve" smooth="yes"/>
      <point x="738" y="599"/>
      <point x="645" y="682"/>
    </contour>
    <contour>
      <point x="450" y="588" type="curve" smooth="yes"/>
      <point x="555" y="588"/>
      <point x="608" y="532"/>
      <point x="608" y="419" type="curve" smooth="yes"/>
      <point x="608" y="347"/>
      <point x="581" y="250"/>
      <point x="544" y="192" type="curve" smooth="yes"/>
      <point x="496" y="117"/>
      <point x="430" y="79"/>
      <point x="347" y="79" type="curve" smooth="yes"/>
      <point x="243" y="79"/>
      <point x="189" y="135"/>
      <point x="189" y="244" type="curve" smooth="yes"/>
      <point x="189" y="321"/>
      <point x="214" y="412"/>
      <point x="253" y="474" type="curve" smooth="yes"/>
      <point x="302" y="551"/>
      <point x="366" y="588"/>
    </contour>
    <contour>
      <point x="305" y="732" type="line"/>
      <point x="341" y="723" type="line"/>
      <point x="500" y="814" type="line"/>
      <point x="617" y="723" type="line"/>
      <point x="652" y="734" type="line"/>
      <point x="546" y="869" type="line"/>
      <point x="480" y="869" type="line"/>
    </contour>
  </outline>
</glyph>
<glyph name="Otilde" format="2">
  <advance width="749"/>
  <unicode hex="00D5"/>
  <outline>
    <contour>
      <point x="452" y="682" type="curve" smooth="yes"/>
      <point x="338" y="682"/>
      <point x="246" y="644"/>
      <point x="178" y="571" type="curve" smooth="yes"/>
      <point x="108" y="494"/>
      <point x="59" y="356"/>
      <point x="59" y="234" type="curve" smooth="yes"/>
      <point x="59" y="70"/>
      <point x="155" y="-15"/>
      <point x="339" y="-15" type="curve" smooth="yes"/>
      <point x="458" y="-15"/>
      <point x="544" y="18"/>
      <point x="614" y="90" type="curve" smooth="yes"/>
      <point x="686" y="166"/>
      <point x="738" y="308"/>
      <point x="738" y="428" type="curve" smooth="yes"/>
      <point x="738" y="599"/>
      <point x="645" y="682"/>
    </contour>
    <contour>
      <point x="450" y="588" type="curve" smooth="yes"/>
      <point x="555" y="588"/>
      <point x="608" y="532"/>
      <point x="608" y="419" type="curve" smooth="yes"/>
      <point x="608" y="347"/>
      <point x="581" y="250"/>
      <point x="544" y="192" type="curve" smooth="yes"/>
      <point x="496" y="117"/>
      <point x="430" y="79"/>
      <point x="347" y="79" type="curve" smooth="yes"/>
      <point x="243" y="79"/>
      <point x="189" y="135"/>
      <point x="189" y="244" type="curve" smooth="yes"/>
      <point x="189" y="321"/>
      <point x="214" y="412"/>
      <point x="253" y="474" type="curve" smooth="yes"/>
      <point x="302" y="551"/>
      <point x="366" y="588"/>
    </contour>
    <contour>
      <point x="340" y="742" type="line"/>
      <point x="377" y="780"/>
      <point x="403" y="795"/>
      <point x="429" y="795" type="curve" smooth="yes"/>
      <point x="444" y="795"/>
      <point x="459" y="789"/>
      <point x="482" y="774" type="curve" smooth="yes"/>
      <point x="521" y="749"/>
      <point x="535" y="743"/>
      <point x="559" y="743" type="curve" smooth="yes"/>
      <point x="583" y="743" name="hr01"/>
      <point x="588" y="746"/>
      <point x="627" y="781" type="curve" smooth="yes"/>
      <point x="661" y="813"/>
      <point x="661" y="813"/>
      <point x="676" y="833" type="curve"/>
      <point x="654" y="853" type="line"/>
      <point x="622" y="820"/>
      <point x="588" y="800"/>
      <point x="564" y="800" type="curve" smooth="yes"/>
      <point x="552" y="800"/>
      <point x="547" y="803"/>
      <point x="514" y="824" type="curve" smooth="yes"/>
      <point x="489" y="841"/>
      <point x="465" y="849"/>
      <point x="443" y="849" type="curve" smooth="yes"/>
      <point x="407" y="849" name="hr02"/>
      <point x="365" y="820"/>
      <point x="319" y="762" type="curve"/>
    </contour>
  </outline>
</glyph>
<glyph name="Odieresis" format="2">
  <advance width="749"/>
  <unicode hex="00D6"/>
  <outline>
    <contour>
      <point x="452" y="682" type="curve" smooth="yes"/>
      <point x="338" y="682"/>
      <point x="246" y="644"/>
      <point x="178" y="571" type="curve" smooth="yes"/>
      <point x="108" y="494"/>
      <point x="59" y="356"/>
      <point x="59" y="234" type="curve" smooth="yes"/>
      <point x="59" y="70"/>
      <point x="155" y="-15"/>
      <point x="339" y="-15" type="curve" smooth="yes"/>
      <point x="458" y="-15"/>
      <point x="544" y="18"/>
      <point x="614" y="90" type="curve" smooth="yes"/>
      <point x="686" y="166"/>
      <point x="738" y="308"/>
      <point x="738" y="428" type="curve" smooth="yes"/>
      <point x="738" y="599"/>
      <point x="645" y="682"/>
    </contour>
    <contour>
      <point x="450" y="588" type="curve" smooth="yes"/>
      <point x="555" y="588"/>
      <point x="608" y="532"/>
      <point x="608" y="419" type="curve" smooth="yes"/>
      <point x="608" y="347"/>
      <point x="581" y="250"/>
      <point x="544" y="192" type="curve" smooth="yes"/>
      <point x="496" y="117"/>
      <point x="430" y="79"/>
      <point x="347" y="79" type="curve" smooth="yes"/>
      <point x="243" y="79"/>
      <point x="189" y="135"/>
      <point x="189" y="244" type="curve" smooth="yes"/>
      <point x="189" y="321"/>
      <point x="214" y="412"/>
      <point x="253" y="474" type="curve" smooth="yes"/>
      <point x="302" y="551"/>
      <point x="366" y="588"/>
    </contour>
    <contour>
      <point x="399" y="864" type="curve" smooth="yes"/>
      <point x="358" y="864"/>
      <point x="327" y="834"/>
      <point x="327" y="794" type="curve" smooth="yes"/>
      <point x="327" y="758"/>
      <point x="351" y="734"/>
      <point x="388" y="734" type="curve" smooth="yes"/>
      <point x="429" y="734"/>
      <point x="460" y="764"/>
      <point x="460" y="806" type="curve" smooth="yes"/>
      <point x="460" y="840"/>
      <point x="435" y="864"/>
    </contour>
    <contour>
      <point x="606" y="864" type="curve" smooth="yes"/>
      <point x="565" y="864"/>
      <point x="534" y="834"/>
      <point x="534" y="794" type="curve" smooth="yes"/>
      <point x="534" y="758"/>
      <point x="558" y="734"/>
      <point x="595" y="734" type="curve" smooth="yes"/>
      <point x="636" y="734"/>
      <point x="667" y="764"/>
      <point x="667" y="805" type="curve" smooth="yes"/>
      <point x="667" y="840"/>
      <point x="642" y="864"/>
    </contour>
  </outline>
</glyph>
<glyph name="multiply" format="2">
  <advance width="582"/>
  <unicode hex="00D7"/>
  <outline>
    <contour>
      <point x="131" y="479" type="line"/>
      <point x="89" y="443" type="line"/>
      <point x="263" y="222" type="line"/>
      <point x="1" y="6" type="line"/>
      <point x="27" y="-31" type="line"/>
      <point x="291" y="187" type="line"/>
      <point x="464" y="-31" type="line"/>
      <point x="510" y="5" type="line"/>
      <point x="335" y="222" type="line"/>
      <point x="602" y="442" type="line"/>
      <point x="575" y="479" type="line"/>
      <point x="306" y="258" type="line"/>
    </contour>
  </outline>
</glyph>
<glyph name="Oslash" format="2">
  <advance width="749"/>
  <unicode hex="00D8"/>
  <outline>
    <contour>
      <point x="112" y="-65" type="line"/>
      <point x="175" y="15" type="line"/>
      <point x="239" y="-8"/>
      <point x="277" y="-14"/>
      <point x="343" y="-14" type="curve" smooth="yes"/>
      <point x="465" y="-14"/>
      <point x="551" y="20"/>
      <point x="620" y="96" type="curve" smooth="yes"/>
      <point x="692" y="174"/>
      <point x="737" y="307"/>
      <point x="737" y="438" type="curve" smooth="yes"/>
      <point x="737" y="528"/>
      <point x="718" y="576"/>
      <point x="665" y="621" type="curve"/>
      <point x="728" y="699" type="line"/>
      <point x="680" y="737" type="line"/>
      <point x="613" y="655" type="line"/>
      <point x="557" y="675"/>
      <point x="524" y="681"/>
      <point x="458" y="681" type="curve" smooth="yes"/>
      <point x="334" y="681"/>
      <point x="253" y="651"/>
      <point x="181" y="576" type="curve" smooth="yes"/>
      <point x="107" y="499"/>
      <point x="59" y="366"/>
      <point x="59" y="237" type="curve" smooth="yes"/>
      <point x="59" y="160"/>
      <point x="73" y="121"/>
      <point x="127" y="49" type="curve"/>
      <point x="67" y="-30" type="line"/>
    </contour>
    <contour>
      <point x="209" y="151" type="line"/>
      <point x="194" y="179"/>
      <point x="190" y="197"/>
      <point x="190" y="242" type="curve" smooth="yes"/>
      <point x="190" y="325"/>
      <point x="207" y="391"/>
      <point x="244" y="458" type="curve" smooth="yes"/>
      <point x="295" y="549"/>
      <point x="354" y="585"/>
      <point x="452" y="585" type="curve" smooth="yes"/>
      <point x="497" y="585"/>
      <point x="516" y="581"/>
      <point x="540" y="565" type="curve"/>
    </contour>
    <contour>
      <point x="585" y="522" type="line"/>
      <point x="604" y="483"/>
      <point x="608" y="466"/>
      <point x="608" y="423" type="curve" smooth="yes"/>
      <point x="608" y="350"/>
      <point x="588" y="269"/>
      <point x="554" y="207" type="curve" smooth="yes"/>
      <point x="511" y="126"/>
      <point x="435" y="80"/>
      <point x="346" y="80" type="curve" smooth="yes"/>
      <point x="311" y="80"/>
      <point x="287" y="86"/>
      <point x="248" y="105" type="curve"/>
    </contour>
  </outline>
</glyph>
<glyph name="Ugrave" format="2">
  <advance width="700"/>
  <unicode hex="00D9"/>
  <outline>
    <contour>
      <point x="174" y="667" type="line"/>
      <point x="84" y="244" type="line" smooth="yes"/>
      <point x="78" y="217"/>
      <point x="75" y="190"/>
      <point x="75" y="164" type="curve" smooth="yes"/>
      <point x="75" y="47"/>
      <point x="154" y="-14"/>
      <point x="303" y="-14" type="curve" smooth="yes"/>
      <point x="488" y="-14"/>
      <point x="589" y="68"/>
      <point x="628" y="250" type="curve" smooth="yes"/>
      <point x="717" y="667" type="line"/>
      <point x="597" y="667" type="line"/>
      <point x="506" y="240" type="line" smooth="yes"/>
      <point x="484" y="135"/>
      <point x="419" y="80"/>
      <point x="319" y="80" type="curve" smooth="yes"/>
      <point x="238" y="80"/>
      <point x="194" y="114"/>
      <point x="194" y="175" type="curve" smooth="yes"/>
      <point x="194" y="189"/>
      <point x="198" y="215"/>
      <point x="202" y="238" type="curve"/>
      <point x="294" y="667" type="line"/>
    </contour>
    <contour>
      <point x="486" y="721" type="line"/>
      <point x="513" y="739" type="line"/>
      <point x="348" y="871" type="line"/>
      <point x="279" y="820" type="line"/>
    </contour>
  </outline>
</glyph>
<glyph name="Uacute" format="2">
  <advance width="700"/>
  <unicode hex="00DA"/>
  <outline>
    <contour>
      <point x="174" y="667" type="line"/>
      <point x="84" y="244" type="line" smooth="yes"/>
      <point x="78" y="217"/>
      <point x="75" y="190"/>
      <point x="75" y="164" type="curve" smooth="yes"/>
      <point x="75" y="47"/>
      <point x="154" y="-14"/>
      <point x="303" y="-14" type="curve" smooth="yes"/>
      <point x="488" y="-14"/>
      <point x="589" y="68"/>
      <point x="628" y="250" type="curve" smooth="yes"/>
      <point x="717" y="667" type="line"/>
      <point x="597" y="667" type="line"/>
      <point x="506" y="240" type="line" smooth="yes"/>
      <point x="484" y="135"/>
      <point x="419" y="80"/>
      <point x="319" y="80" type="curve" smooth="yes"/>
      <point x="238" y="80"/>
      <point x="194" y="114"/>
      <point x="194" y="175" type="curve" smooth="yes"/>
      <point x="194" y="189"/>
      <point x="198" y="215"/>
      <point x="202" y="238" type="curve"/>
      <point x="294" y="667" type="line"/>
    </contour>
    <contour>
      <point x="385" y="736" type="line"/>
      <point x="423" y="723" type="line"/>
      <point x="655" y="828" type="line"/>
      <point x="570" y="871" type="line"/>
    </contour>
  </outline>
</glyph>
<glyph name="Ucircumflex" format="2">
  <advance width="700"/>
  <unicode hex="00DB"/>
  <outline>
    <contour>
      <point x="174" y="667" type="line"/>
      <point x="84" y="244" type="line" smooth="yes"/>
      <point x="78" y="217"/>
      <point x="75" y="190"/>
      <point x="75" y="164" type="curve" smooth="yes"/>
      <point x="75" y="47"/>
      <point x="154" y="-14"/>
      <point x="303" y="-14" type="curve" smooth="yes"/>
      <point x="488" y="-14"/>
      <point x="589" y="68"/>
      <point x="628" y="250" type="curve" smooth="yes"/>
      <point x="717" y="667" type="line"/>
      <point x="597" y="667" type="line"/>
      <point x="506" y="240" type="line" smooth="yes"/>
      <point x="484" y="135"/>
      <point x="419" y="80"/>
      <point x="319" y="80" type="curve" smooth="yes"/>
      <point x="238" y="80"/>
      <point x="194" y="114"/>
      <point x="194" y="175" type="curve" smooth="yes"/>
      <point x="194" y="189"/>
      <point x="198" y="215"/>
      <point x="202" y="238" type="curve"/>
      <point x="294" y="667" type="line"/>
    </contour>
    <contour>
      <point x="281" y="732" type="line"/>
      <point x="317" y="723" type="line"/>
      <point x="476" y="814" type="line"/>
      <point x="593" y="723" type="line"/>
      <point x="628" y="734" type="line"/>
      <point x="522" y="869" type="line"/>
      <point x="456" y="869" type="line"/>
    </contour>
  </outline>
</glyph>
<glyph name="Udieresis" format="2">
  <advance width="700"/>
  <unicode hex="00DC"/>
  <outline>
    <contour>
      <point x="174" y="667" type="line"/>
      <point x="84" y="244" type="line" smooth="yes"/>
      <point x="78" y="217"/>
      <point x="75" y="190"/>
      <point x="75" y="164" type="curve" smooth="yes"/>
      <point x="75" y="47"/>
      <point x="154" y="-14"/>
      <point x="303" y="-14" type="curve" smooth="yes"/>
      <point x="488" y="-14"/>
      <point x="589" y="68"/>
      <point x="628" y="250" type="curve" smooth="yes"/>
      <point x="717" y="667" type="line"/>
      <point x="597" y="667" type="line"/>
      <point x="506" y="240" type="line" smooth="yes"/>
      <point x="484" y="135"/>
      <point x="419" y="80"/>
      <point x="319" y="80" type="curve" smooth="yes"/>
      <point x="238" y="80"/>
      <point x="194" y="114"/>
      <point x="194" y="175" type="curve" smooth="yes"/>
      <point x="194" y="189"/>
      <point x="198" y="215"/>
      <point x="202" y="238" type="curve"/>
      <point x="294" y="667" type="line"/>
    </contour>
    <contour>
      <point x="375" y="864" type="curve" smooth="yes"/>
      <point x="334" y="864"/>
      <point x="303" y="834"/>
      <point x="303" y="794" type="curve" smooth="yes"/>
      <point x="303" y="758"/>
      <point x="327" y="734"/>
      <point x="364" y="734" type="curve" smooth="yes"/>
      <point x="405" y="734"/>
      <point x="436" y="764"/>
      <point x="436" y="806" type="curve" smooth="yes"/>
      <point x="436" y="840"/>
      <point x="411" y="864"/>
    </contour>
    <contour>
      <point x="582" y="864" type="curve" smooth="yes"/>
      <point x="541" y="864"/>
      <point x="510" y="834"/>
      <point x="510" y="794" type="curve" smooth="yes"/>
      <point x="510" y="758"/>
      <point x="534" y="734"/>
      <point x="571" y="734" type="curve" smooth="yes"/>
      <point x="612" y="734"/>
      <point x="643" y="764"/>
      <point x="643" y="805" type="curve" smooth="yes"/>
      <point x="643" y="840"/>
      <point x="618" y="864"/>
    </contour>
  </outline>
</glyph>
<glyph name="Yacute" format="2">
  <advance width="524"/>
  <unicode hex="00DD"/>
  <outline>
    <contour>
      <point x="156" y="0" type="line"/>
      <point x="276" y="0" type="line"/>
      <point x="337" y="286" type="line"/>
      <point x="646" y="667" type="line"/>
      <point x="512" y="667" type="line"/>
      <point x="297" y="391" type="line"/>
      <point x="195" y="667" type="line"/>
      <point x="64" y="667" type="line"/>
      <point x="216" y="284" type="line"/>
    </contour>
    <contour>
      <point x="297" y="736" type="line"/>
      <point x="335" y="723" type="line"/>
      <point x="567" y="828" type="line"/>
      <point x="482" y="871" type="line"/>
    </contour>
  </outline>
</glyph>
<glyph name="Thorn" format="2">
  <advance width="542"/>
  <unicode hex="00DE"/>
  <outline>
    <contour>
      <point x="37" y="0" type="line"/>
      <point x="157" y="0" type="line"/>
      <point x="197" y="186" type="line"/>
      <point x="263" y="186" type="line" smooth="yes"/>
      <point x="357" y="186"/>
      <point x="432" y="211"/>
      <point x="486" y="261" type="curve" smooth="yes"/>
      <point x="534" y="305"/>
      <point x="562" y="367"/>
      <point x="562" y="429" type="curve" smooth="yes"/>
      <point x="562" y="478"/>
      <point x="542" y="522"/>
      <point x="511" y="545" type="curve" smooth="yes"/>
      <point x="480" y="567"/>
      <point x="429" y="581"/>
      <point x="381" y="581" type="curve" smooth="yes"/>
      <point x="281" y="581" type="line"/>
      <point x="299" y="667" type="line"/>
      <point x="179" y="667" type="line"/>
    </contour>
    <contour>
      <point x="216" y="279" type="line"/>
      <point x="261" y="488" type="line"/>
      <point x="335" y="488" type="line" smooth="yes"/>
      <point x="377" y="488"/>
      <point x="393" y="485"/>
      <point x="409" y="472" type="curve" smooth="yes"/>
      <point x="425" y="460"/>
      <point x="433" y="440"/>
      <point x="433" y="414" type="curve" smooth="yes"/>
      <point x="433" y="329"/>
      <point x="373" y="279"/>
      <point x="273" y="279" type="curve" smooth="yes"/>
    </contour>
  </outline>
</glyph>
<glyph name="germandbls" format="2">
  <advance width="550"/>
  <unicode hex="00DF"/>
  <outline>
    <contour>
      <point x="26" y="0" type="line"/>
      <point x="137" y="0" type="line"/>
      <point x="237" y="468" type="line" smooth="yes"/>
      <point x="250" y="530"/>
      <point x="258" y="553"/>
      <point x="273" y="575" type="curve" smooth="yes"/>
      <point x="293" y="604"/>
      <point x="321" y="619"/>
      <point x="352" y="619" type="curve" smooth="yes"/>
      <point x="391" y="619"/>
      <point x="417" y="596"/>
      <point x="417" y="563" type="curve" smooth="yes"/>
      <point x="417" y="537"/>
      <point x="404" y="511"/>
      <point x="367" y="465" type="curve" smooth="yes"/>
      <point x="325" y="412"/>
      <point x="315" y="394" name="hr01"/>
      <point x="315" y="369" type="curve" smooth="yes"/>
      <point x="315" y="350"/>
      <point x="327" y="323"/>
      <point x="355" y="282" type="curve" smooth="yes"/>
      <point x="388" y="232"/>
      <point x="396" y="212" name="hr02"/>
      <point x="396" y="183" type="curve" smooth="yes"/>
      <point x="396" y="129"/>
      <point x="350" y="82"/>
      <point x="296" y="82" type="curve" smooth="yes"/>
      <point x="273" y="82"/>
      <point x="254" y="89"/>
      <point x="229" y="107" type="curve"/>
      <point x="186" y="18" type="line"/>
      <point x="217" y="2"/>
      <point x="254" y="-6"/>
      <point x="299" y="-6" type="curve" smooth="yes"/>
      <point x="362" y="-6"/>
      <point x="415" y="12"/>
      <point x="452" y="45" type="curve" smooth="yes"/>
      <point x="493" y="81"/>
      <point x="516" y="132"/>
      <point x="516" y="183" type="curve" smooth="yes"/>
      <point x="516" y="224"/>
      <point x="502" y="262"/>
      <point x="468" y="313" type="curve" smooth="yes"/>
      <point x="433" y="367"/>
      <point x="428" y="377" name="hr03"/>
      <point x="428" y="391" type="curve" smooth="yes"/>
      <point x="428" y="406"/>
      <point x="437" y="423"/>
      <point x="467" y="465" type="curve" smooth="yes"/>
      <point x="504" y="516"/>
      <point x="516" y="547" name="hr04"/>
      <point x="516" y="585" type="curve" smooth="yes"/>
      <point x="516" y="656"/>
      <point x="453" y="702"/>
      <point x="356" y="702" type="curve" smooth="yes"/>
      <point x="276" y="702"/>
      <point x="212" y="671"/>
      <point x="174" y="613" type="curve" smooth="yes"/>
      <point x="151" y="578"/>
      <point x="143" y="553"/>
      <point x="121" y="448" type="curve"/>
      <point x="55" y="448" type="line"/>
      <point x="37" y="361" type="line"/>
      <point x="103" y="361" type="line"/>
    </contour>
  </outline>
</glyph>
<glyph name="aacute" format="2">
  <advance width="567"/>
  <unicode hex="00E1"/>
  <outline>
    <contour>
      <point x="436" y="448" type="line"/>
      <point x="426" y="401" type="line"/>
      <point x="389" y="442"/>
      <point x="350" y="460" name="hr01"/>
      <point x="294" y="460" type="curve" smooth="yes"/>
      <point x="223" y="460"/>
      <point x="155" y="427"/>
      <point x="108" y="371" type="curve"/>
      <point x="64" y="316"/>
      <point x="35" y="232"/>
      <point x="35" y="155" type="curve" smooth="yes"/>
      <point x="35" y="54"/>
      <point x="98" y="-11"/>
      <point x="197" y="-11" type="curve" smooth="yes"/>
      <point x="256" y="-11"/>
      <point x="302" y="8"/>
      <point x="352" y="52" type="curve"/>
      <point x="341" y="0" type="line"/>
      <point x="452" y="0" type="line"/>
      <point x="547" y="448" type="line" name="hr02"/>
    </contour>
    <contour>
      <point x="308" y="378" type="curve" smooth="yes" name="hr03"/>
      <point x="363" y="378"/>
      <point x="398" y="340"/>
      <point x="398" y="281" type="curve" smooth="yes"/>
      <point x="398" y="166"/>
      <point x="328" y="71"/>
      <point x="243" y="71" type="curve" smooth="yes"/>
      <point x="186" y="71"/>
      <point x="153" y="107"/>
      <point x="153" y="169" type="curve" smooth="yes"/>
      <point x="153" y="210"/>
      <point x="172" y="275"/>
      <point x="195" y="310" type="curve" smooth="yes"/>
      <point x="223" y="354"/>
      <point x="264" y="378"/>
    </contour>
    <contour>
      <point x="309" y="544" type="line"/>
      <point x="347" y="535" type="line"/>
      <point x="577" y="666" type="line"/>
      <point x="491" y="697" type="line"/>
    </contour>
  </outline>
</glyph>
<glyph name="acircumflex" format="2">
  <advance width="567"/>
  <unicode hex="00E2"/>
  <outline>
    <contour>
      <point x="436" y="448" type="line"/>
      <point x="426" y="401" type="line"/>
      <point x="389" y="442"/>
      <point x="350" y="460"/>
      <point x="294" y="460" type="curve" smooth="yes"/>
      <point x="223" y="460"/>
      <point x="155" y="427"/>
      <point x="108" y="371" type="curve"/>
      <point x="64" y="316"/>
      <point x="35" y="232"/>
      <point x="35" y="155" type="curve" smooth="yes"/>
      <point x="35" y="54"/>
      <point x="98" y="-11"/>
      <point x="197" y="-11" type="curve" smooth="yes"/>
      <point x="256" y="-11"/>
      <point x="302" y="8"/>
      <point x="352" y="52" type="curve"/>
      <point x="341" y="0" type="line"/>
      <point x="452" y="0" type="line"/>
      <point x="547" y="448" type="line"/>
    </contour>
    <contour>
      <point x="308" y="378" type="curve" smooth="yes"/>
      <point x="363" y="378"/>
      <point x="398" y="340"/>
      <point x="398" y="281" type="curve" smooth="yes"/>
      <point x="398" y="166"/>
      <point x="328" y="71" name="hr02"/>
      <point x="243" y="71" type="curve" smooth="yes"/>
      <point x="186" y="71"/>
      <point x="153" y="107"/>
      <point x="153" y="169" type="curve" smooth="yes"/>
      <point x="153" y="210"/>
      <point x="172" y="275"/>
      <point x="195" y="310" type="curve" smooth="yes"/>
      <point x="223" y="354"/>
      <point x="264" y="378"/>
    </contour>
    <contour>
      <point x="209" y="545" type="line"/>
      <point x="243" y="536" type="line"/>
      <point x="393" y="632" type="line"/>
      <point x="502" y="536" type="line"/>
      <point x="535" y="547" type="line"/>
      <point x="439" y="687" type="line"/>
      <point x="373" y="687" type="line"/>
    </contour>
  </outline>
</glyph>
<glyph name="atilde" format="2">
  <advance width="567"/>
  <unicode hex="00E3"/>
  <outline>
    <contour>
      <point x="436" y="448" type="line"/>
      <point x="426" y="401" type="line"/>
      <point x="389" y="442"/>
      <point x="350" y="460"/>
      <point x="294" y="460" type="curve" smooth="yes"/>
      <point x="223" y="460"/>
      <point x="155" y="427"/>
      <point x="108" y="371" type="curve"/>
      <point x="64" y="316"/>
      <point x="35" y="232"/>
      <point x="35" y="155" type="curve" smooth="yes"/>
      <point x="35" y="54"/>
      <point x="98" y="-11"/>
      <point x="197" y="-11" type="curve" smooth="yes"/>
      <point x="256" y="-11"/>
      <point x="302" y="8"/>
      <point x="352" y="52" type="curve"/>
      <point x="341" y="0" type="line"/>
      <point x="452" y="0" type="line"/>
      <point x="547" y="448" type="line"/>
    </contour>
    <contour>
      <point x="308" y="378" type="curve" smooth="yes"/>
      <point x="363" y="378"/>
      <point x="398" y="340"/>
      <point x="398" y="281" type="curve" smooth="yes"/>
      <point x="398" y="166"/>
      <point x="328" y="71" name="hr02"/>
      <point x="243" y="71" type="curve" smooth="yes"/>
      <point x="186" y="71"/>
      <point x="153" y="107"/>
      <point x="153" y="169" type="curve" smooth="yes"/>
      <point x="153" y="210"/>
      <point x="172" y="275"/>
      <point x="195" y="310" type="curve" smooth="yes"/>
      <point x="223" y="354"/>
      <point x="264" y="378"/>
    </contour>
    <contour>
      <point x="231" y="559" type="line"/>
      <point x="259" y="588"/>
      <point x="290" y="605"/>
      <point x="316" y="605" type="curve" smooth="yes"/>
      <point x="329" y="605"/>
      <point x="341" y="601"/>
      <point x="367" y="587" type="curve" smooth="yes"/>
      <point x="404" y="567"/>
      <point x="424" y="560"/>
      <point x="445" y="560" type="curve" smooth="yes"/>
      <point x="466" y="560"/>
      <point x="478" y="567"/>
      <point x="509" y="595" type="curve" smooth="yes"/>
      <point x="540" y="624"/>
      <point x="540" y="624"/>
      <point x="557" y="643" type="curve"/>
      <point x="535" y="663" type="line"/>
      <point x="512" y="639"/>
      <point x="472" y="618"/>
      <point x="451" y="618" type="curve" smooth="yes"/>
      <point x="442" y="618"/>
      <point x="435" y="620"/>
      <point x="426" y="624" type="curve" smooth="yes"/>
      <point x="368" y="653"/>
      <point x="351" y="659"/>
      <point x="327" y="659" type="curve" smooth="yes"/>
      <point x="291" y="659"/>
      <point x="256" y="635"/>
      <point x="210" y="579" type="curve"/>
    </contour>
  </outline>
</glyph>
<glyph name="adieresis" format="2">
  <advance width="567"/>
  <unicode hex="00E4"/>
  <outline>
    <contour>
      <point x="436" y="448" type="line"/>
      <point x="426" y="401" type="line"/>
      <point x="389" y="442"/>
      <point x="350" y="460"/>
      <point x="294" y="460" type="curve" smooth="yes"/>
      <point x="223" y="460"/>
      <point x="155" y="427"/>
      <point x="108" y="371" type="curve"/>
      <point x="64" y="316"/>
      <point x="35" y="232"/>
      <point x="35" y="155" type="curve" smooth="yes"/>
      <point x="35" y="54"/>
      <point x="98" y="-11"/>
      <point x="197" y="-11" type="curve" smooth="yes"/>
      <point x="256" y="-11"/>
      <point x="302" y="8"/>
      <point x="352" y="52" type="curve"/>
      <point x="341" y="0" type="line"/>
      <point x="452" y="0" type="line"/>
      <point x="547" y="448" type="line"/>
    </contour>
    <contour>
      <point x="308" y="378" type="curve" smooth="yes"/>
      <point x="363" y="378"/>
      <point x="398" y="340"/>
      <point x="398" y="281" type="curve" smooth="yes"/>
      <point x="398" y="166"/>
      <point x="328" y="71" name="hr02"/>
      <point x="243" y="71" type="curve" smooth="yes"/>
      <point x="186" y="71"/>
      <point x="153" y="107"/>
      <point x="153" y="169" type="curve" smooth="yes"/>
      <point x="153" y="210"/>
      <point x="172" y="275"/>
      <point x="195" y="310" type="curve" smooth="yes"/>
      <point x="223" y="354"/>
      <point x="264" y="378"/>
    </contour>
    <contour>
      <point x="277" y="679" type="curve" smooth="yes"/>
      <point x="238" y="679"/>
      <point x="207" y="649"/>
      <point x="207" y="611" type="curve" smooth="yes"/>
      <point x="207" y="576"/>
      <point x="231" y="553"/>
      <point x="267" y="553" type="curve" smooth="yes"/>
      <point x="307" y="553"/>
      <point x="337" y="582"/>
      <point x="337" y="623" type="curve" smooth="yes"/>
      <point x="337" y="656"/>
      <point x="313" y="679"/>
    </contour>
    <contour>
      <point x="474" y="679" type="curve" smooth="yes"/>
      <point x="435" y="679"/>
      <point x="404" y="649"/>
      <point x="404" y="611" type="curve" smooth="yes"/>
      <point x="404" y="576"/>
      <point x="428" y="553"/>
      <point x="464" y="553" type="curve" smooth="yes"/>
      <point x="504" y="553"/>
      <point x="534" y="582"/>
      <point x="534" y="622" type="curve" smooth="yes"/>
      <point x="534" y="656"/>
      <point x="510" y="679"/>
    </contour>
  </outline>
</glyph>
<glyph name="aring" format="2">
  <advance width="567"/>
  <unicode hex="00E5"/>
  <outline>
    <contour>
      <point x="436" y="448" type="line"/>
      <point x="426" y="401" type="line"/>
      <point x="389" y="442"/>
      <point x="350" y="460"/>
      <point x="294" y="460" type="curve" smooth="yes"/>
      <point x="223" y="460"/>
      <point x="155" y="427"/>
      <point x="108" y="371" type="curve"/>
      <point x="64" y="316"/>
      <point x="35" y="232"/>
      <point x="35" y="155" type="curve" smooth="yes"/>
      <point x="35" y="54"/>
      <point x="98" y="-11"/>
      <point x="197" y="-11" type="curve" smooth="yes"/>
      <point x="256" y="-11"/>
      <point x="302" y="8"/>
      <point x="352" y="52" type="curve"/>
      <point x="341" y="0" type="line"/>
      <point x="452" y="0" type="line"/>
      <point x="547" y="448" type="line"/>
    </contour>
    <contour>
      <point x="308" y="378" type="curve" smooth="yes"/>
      <point x="363" y="378"/>
      <point x="398" y="340"/>
      <point x="398" y="281" type="curve" smooth="yes"/>
      <point x="398" y="166"/>
      <point x="328" y="71" name="hr02"/>
      <point x="243" y="71" type="curve" smooth="yes"/>
      <point x="186" y="71"/>
      <point x="153" y="107"/>
      <point x="153" y="169" type="curve" smooth="yes"/>
      <point x="153" y="210"/>
      <point x="172" y="275"/>
      <point x="195" y="310" type="curve" smooth="yes"/>
      <point x="223" y="354"/>
      <point x="264" y="378"/>
    </contour>
    <contour>
      <point x="400" y="710" type="curve" smooth="yes"/>
      <point x="329" y="710"/>
      <point x="276" y="665"/>
      <point x="276" y="605" type="curve" smooth="yes"/>
      <point x="276" y="549"/>
      <point x="315" y="517"/>
      <point x="382" y="517" type="curve" smooth="yes"/>
      <point x="454" y="517"/>
      <point x="505" y="561"/>
      <point x="505" y="625" type="curve" smooth="yes"/>
      <point x="505" y="677"/>
      <point x="464" y="710"/>
    </contour>
    <contour>
      <point x="397" y="673" type="curve" smooth="yes"/>
      <point x="427" y="673"/>
      <point x="448" y="654"/>
      <point x="448" y="626" type="curve" smooth="yes"/>
      <point x="448" y="585"/>
      <point x="420" y="554"/>
      <point x="384" y="554" type="curve" smooth="yes"/>
      <point x="353" y="554"/>
      <point x="333" y="574"/>
      <point x="333" y="605" type="curve" smooth="yes"/>
      <point x="333" y="642"/>
      <point x="362" y="673"/>
    </contour>
  </outline>
</glyph>
<glyph name="ae" format="2">
  <advance width="758"/>
  <unicode hex="00E6"/>
  <outline>
    <contour>
      <point x="163" y="333" type="line"/>
      <point x="188" y="368"/>
      <point x="215" y="383"/>
      <point x="253" y="383" type="curve" smooth="yes"/>
      <point x="295" y="383"/>
      <point x="322" y="362"/>
      <point x="322" y="331" type="curve" smooth="yes"/>
      <point x="322" y="313"/>
      <point x="310" y="294"/>
      <point x="294" y="285" type="curve" smooth="yes"/>
      <point x="277" y="276"/>
      <point x="269" y="274"/>
      <point x="196" y="262" type="curve" smooth="yes"/>
      <point x="127" y="251"/>
      <point x="86" y="236"/>
      <point x="55" y="211" type="curve" smooth="yes"/>
      <point x="26" y="186"/>
      <point x="7" y="145"/>
      <point x="7" y="105" type="curve" smooth="yes"/>
      <point x="7" y="34"/>
      <point x="57" y="-12"/>
      <point x="137" y="-12" type="curve" smooth="yes"/>
      <point x="204" y="-12"/>
      <point x="259" y="15"/>
      <point x="306" y="72" type="curve"/>
      <point x="337" y="16"/>
      <point x="393" y="-11" name="hr01"/>
      <point x="477" y="-11" type="curve" smooth="yes"/>
      <point x="521" y="-11"/>
      <point x="565" y="-2"/>
      <point x="600" y="15" type="curve" smooth="yes"/>
      <point x="639" y="34"/>
      <point x="661" y="56"/>
      <point x="687" y="102" type="curve"/>
      <point x="585" y="130" type="line"/>
      <point x="561" y="85"/>
      <point x="530" y="65"/>
      <point x="483" y="65" type="curve" smooth="yes"/>
      <point x="428" y="65"/>
      <point x="395" y="99"/>
      <point x="395" y="156" type="curve" smooth="yes"/>
      <point x="395" y="172"/>
      <point x="397" y="185"/>
      <point x="402" y="207" type="curve"/>
      <point x="715" y="207" type="line"/>
      <point x="725" y="248"/>
      <point x="728" y="272"/>
      <point x="728" y="299" type="curve" smooth="yes"/>
      <point x="728" y="402"/>
      <point x="669" y="459"/>
      <point x="562" y="459" type="curve" smooth="yes"/>
      <point x="498" y="459"/>
      <point x="440" y="437"/>
      <point x="397" y="397" type="curve"/>
      <point x="376" y="440"/>
      <point x="336" y="459"/>
      <point x="267" y="459" type="curve" smooth="yes"/>
      <point x="184" y="459"/>
      <point x="122" y="431"/>
      <point x="91" y="379" type="curve"/>
    </contour>
    <contour>
      <point x="304" y="224" type="curve"/>
      <point x="290" y="153"/>
      <point x="284" y="134"/>
      <point x="263" y="109" type="curve" smooth="yes"/>
      <point x="241" y="82"/>
      <point x="208" y="66" name="hr02"/>
      <point x="175" y="66" type="curve" smooth="yes"/>
      <point x="140" y="66"/>
      <point x="116" y="87"/>
      <point x="116" y="119" type="curve" smooth="yes"/>
      <point x="116" y="163"/>
      <point x="155" y="194"/>
      <point x="225" y="206" type="curve" smooth="yes"/>
      <point x="278" y="215"/>
      <point x="284" y="216"/>
      <point x="299" y="222" type="curve"/>
      <point x="302" y="224"/>
      <point x="302" y="224"/>
    </contour>
    <contour>
      <point x="418" y="271" type="line"/>
      <point x="440" y="342"/>
      <point x="489" y="386"/>
      <point x="548" y="386" type="curve" smooth="yes"/>
      <point x="593" y="386"/>
      <point x="621" y="358"/>
      <point x="621" y="313" type="curve" smooth="yes"/>
      <point x="621" y="301"/>
      <point x="620" y="292"/>
      <point x="617" y="271" type="curve"/>
    </contour>
  </outline>
</glyph>
<glyph name="ccedilla" format="2">
  <advance width="480"/>
  <unicode hex="00E7"/>
  <outline>
    <contour>
      <point x="343" y="146" type="line"/>
      <point x="319" y="91"/>
      <point x="281" y="61"/>
      <point x="233" y="61" type="curve" smooth="yes"/>
      <point x="181" y="61"/>
      <point x="151" y="98"/>
      <point x="151" y="162" type="curve" smooth="yes"/>
      <point x="151" y="198"/>
      <point x="161" y="243"/>
      <point x="179" y="285" type="curve" smooth="yes"/>
      <point x="208" y="351"/>
      <point x="251" y="387"/>
      <point x="303" y="387" type="curve" smooth="yes"/>
      <point x="333" y="387"/>
      <point x="357" y="371"/>
      <point x="368" y="346" type="curve"/>
      <point x="373" y="332"/>
      <point x="375" y="322"/>
      <point x="375" y="296" type="curve"/>
      <point x="482" y="330" type="line"/>
      <point x="472" y="417"/>
      <point x="416" y="459"/>
      <point x="313" y="459" type="curve" smooth="yes"/>
      <point x="221" y="459"/>
      <point x="151" y="428"/>
      <point x="103" y="364" type="curve"/>
      <point x="62" y="312"/>
      <point x="37" y="234"/>
      <point x="37" y="163" type="curve" smooth="yes"/>
      <point x="37" y="52"/>
      <point x="104" y="-11"/>
      <point x="222" y="-11" type="curve" smooth="yes"/>
      <point x="275" y="-11"/>
      <point x="324" y="0"/>
      <point x="363" y="21" type="curve" smooth="yes"/>
      <point x="400" y="42"/>
      <point x="421" y="66"/>
      <point x="447" y="118" type="curve"/>
    </contour>
    <contour>
      <point x="123" y="-190" type="line"/>
      <point x="207" y="-165"/>
      <point x="252" y="-122"/>
      <point x="252" y="-69" type="curve" smooth="yes"/>
      <point x="252" y="-47"/>
      <point x="245" y="-32"/>
      <point x="228" y="-12" type="curve"/>
      <point x="151" y="-59" type="line"/>
      <point x="168" y="-73"/>
      <point x="175" y="-85"/>
      <point x="175" y="-101" type="curve" smooth="yes"/>
      <point x="175" y="-132"/>
      <point x="150" y="-156"/>
      <point x="101" y="-173" type="curve"/>
    </contour>
  </outline>
</glyph>
